<?xml version="1.0" standalone="no"?>
<!DOCTYPE svg PUBLIC "-//W3C//DTD SVG 1.1//EN" "http://www.w3.org/Graphics/SVG/1.1/DTD/svg11.dtd" >
<svg xmlns="http://www.w3.org/2000/svg" xmlns:xlink="http://www.w3.org/1999/xlink" version="1.1">
<metadata></metadata>
<defs>
<font id="johnson_boldbold" horiz-adv-x="1138" >
<font-face units-per-em="2048" ascent="1546" descent="-502" />
<missing-glyph horiz-adv-x="569" />
<glyph horiz-adv-x="0" />
<glyph horiz-adv-x="682" />
<glyph unicode=" "  horiz-adv-x="569" />
<glyph unicode="&#x09;" horiz-adv-x="569" />
<glyph unicode="&#xa0;" horiz-adv-x="569" />
<glyph unicode="!" horiz-adv-x="681" d="M176 145q0 68 47 116t117 48t117 -48t47 -116t-47 -115.5t-117 -47.5t-117 48t-47 115zM188 1374q0 39 15.5 61.5t56.5 22.5h164q37 0 52.5 -22.5t15.5 -61.5q0 -23 -6.5 -86t-16.5 -148t-22.5 -181.5t-24.5 -184.5t-22.5 -159.5t-14.5 -104.5q-2 -10 -15.5 -14t-29.5 -4 t-29.5 4t-15.5 14q-6 35 -15.5 105.5t-21.5 158.5t-24.5 184.5t-22.5 181.5t-16.5 148.5t-6.5 85.5z" />
<glyph unicode="&#x22;" horiz-adv-x="1024" d="M170 1313q0 12 10 33.5t28.5 42t44.5 35t56 14.5q31 0 56.5 -14.5t44 -35t29 -42t10.5 -33.5q0 -10 -10.5 -71.5t-25 -142.5t-29.5 -167t-28 -148h-94q-12 61 -27.5 147.5t-30 167.5t-24.5 142.5t-10 71.5zM575 1313q0 12 10.5 33.5t29 42t44 35t56.5 14.5t56.5 -14.5 t44 -35t28.5 -42t10 -33.5q0 -10 -10 -71.5t-24.5 -142.5t-30 -167t-27.5 -148h-94q-12 61 -27.5 147.5t-30 167.5t-25 142.5t-10.5 71.5z" />
<glyph unicode="#" d="M51 422v182h246l31 203h-215v182h241l64 422h180l-63 -422h182l63 422h181l-64 -422h190v-182h-217l-30 -203h190v-182h-217l-63 -422h-181l64 422h-182l-64 -422h-180l63 422h-219zM477 604h182l31 203h-182z" />
<glyph unicode="$" d="M57 360q0 8 9.5 10.5t37.5 2.5q18 0 24.5 -12.5t16.5 -41.5q45 -121 132.5 -194.5t230.5 -73.5v533q-72 37 -145.5 73.5t-133 88t-98.5 120t-39 170.5q0 94 31 171t86 134.5t132 91t167 44.5v33.5t-1 23.5t-1 19.5v23.5q0 18 9 21.5t40 3.5q29 0 38 -3.5t9 -21.5 q0 -29 -1 -45t-1 -51q53 0 100.5 -8.5t85.5 -14.5q45 -10 76 -16t41 -6t16.5 6t14.5 14q8 6 15 12.5t16 6.5q12 0 17 -13.5t7 -62.5q4 -125 16.5 -203t12.5 -84q0 -16 -16.5 -21.5t-43.5 -5.5q-8 0 -18 24t-26.5 58.5t-40 74.5t-60.5 75t-89 58.5t-124 23.5v-492 q166 -74 259 -140.5t139 -127.5t56.5 -119.5t10.5 -120.5q0 -80 -28.5 -152.5t-87 -131t-145.5 -96t-204 -50.5q0 -27 1 -48t1 -54q0 -18 -11 -21.5t-34 -3.5t-37 3t-14 24q0 31 1 51.5t1 48.5q-49 0 -93 4t-88 9.5t-93.5 9.5t-106.5 4q-16 0 -27.5 4t-15.5 27q-2 20 -6 65 t-9.5 95.5t-8.5 98.5t-3 74zM358 1163q0 -72 42 -119t108 -86v431q-70 -23 -110 -76t-40 -150zM600 61q76 16 119 76t43 142q0 92 -46 151t-116 102v-471z" />
<glyph unicode="%" horiz-adv-x="1933" d="M170 1090q0 86 26.5 151.5t73.5 109.5t111.5 65.5t142.5 21.5q76 0 141.5 -21.5t112.5 -65.5t74 -109.5t27 -151.5t-27 -152t-74 -110t-112.5 -65.5t-141.5 -21.5q-78 0 -142.5 21.5t-111.5 65.5t-73.5 110t-26.5 152zM365 1090q0 -37 7 -85.5t25.5 -90.5t49 -70.5 t77.5 -28.5t78 28.5t49.5 70.5t25.5 90.5t7 85.5t-7 85t-25.5 90t-49.5 70.5t-78 28.5t-77.5 -28.5t-49 -70.5t-25.5 -90.5t-7 -84.5zM543 -27l737 1465h113l-738 -1465h-112zM1055 322q0 86 26.5 151.5t73.5 109.5t111.5 65.5t142.5 21.5q76 0 141.5 -21.5t112.5 -65.5 t73.5 -109.5t26.5 -151.5t-26.5 -152t-73.5 -110t-112.5 -65.5t-141.5 -21.5q-78 0 -142.5 21.5t-111.5 65.5t-73.5 110t-26.5 152zM1249 322q0 -37 7.5 -85.5t25.5 -90.5t49 -70.5t78 -28.5t78 28.5t49 70.5t25.5 90.5t7.5 85.5t-7.5 85t-25.5 90t-49 70.5t-78 28.5 t-78 -28.5t-49 -70.5t-25.5 -90.5t-7.5 -84.5z" />
<glyph unicode="&#x26;" horiz-adv-x="1781" d="M113 332q0 76 33.5 146.5t87 130t117 107.5t122.5 81q-61 59 -108.5 136t-47.5 167q0 76 30 136t80 102t115.5 63.5t137.5 21.5q57 0 117.5 -12t110.5 -41t82 -78t32 -123q0 -57 -25.5 -102t-64.5 -81t-86 -63.5t-92 -50.5q98 -96 192 -192t174 -207q45 59 74 102t44 76 t20.5 56.5t5.5 46.5q0 14 -7.5 28.5t-30 24.5t-62.5 17t-107 10q-14 0 -15 38q0 23 5.5 29t27.5 6q57 0 112.5 -3t112.5 -3q35 0 80 1t94.5 2t97.5 2t89 1q16 0 16 -26q0 -31 -3 -39t-19 -8q-55 0 -95 -7.5t-71 -24t-57.5 -43t-53.5 -65.5l-204 -286q29 -37 62.5 -90.5 t73.5 -100.5t87 -81t102 -34q51 0 83 20.5t56 20.5q10 0 22.5 -19.5t12.5 -29.5t-30.5 -30.5t-78.5 -40t-108.5 -35t-120.5 -15.5q-68 0 -117 17.5t-87.5 48.5t-71.5 74t-70 94q-106 -109 -222 -171.5t-271 -62.5q-80 0 -151 27t-122 74t-80.5 113.5t-29.5 144.5zM373 440 q0 -57 24.5 -114.5t66.5 -103.5t97 -74.5t115 -28.5q88 0 146.5 44t113.5 107q-86 129 -194 240.5t-212 226.5q-82 -57 -119.5 -126.5t-37.5 -170.5zM532 1188q0 -35 17.5 -70t43 -67.5t53.5 -62t48 -54.5q29 18 58.5 42.5t53 53.5t38 61.5t14.5 71.5q0 78 -44 128t-126 50 q-66 0 -111 -44t-45 -109z" />
<glyph unicode="'" horiz-adv-x="569" d="M145 1313q0 12 10.5 33.5t29 42t44 35t56.5 14.5t56.5 -14.5t43.5 -35t28.5 -42t10.5 -33.5q0 -10 -10.5 -71.5t-24.5 -142.5t-29.5 -167t-27.5 -148h-94q-12 61 -27.5 147.5t-30 167.5t-25 142.5t-10.5 71.5z" />
<glyph unicode="(" horiz-adv-x="720" d="M113 524q0 145 38.5 274.5t107.5 245t163 219t207 197.5q37 31 47 31q4 0 11 -6t14.5 -14.5t12.5 -15.5t5 -9q0 -4 -20.5 -27.5t-45.5 -54.5q-158 -205 -219 -413t-61 -427t61.5 -427t218.5 -412q25 -31 45.5 -54.5t20.5 -27.5q0 -2 -5 -9.5t-12.5 -15.5t-14.5 -14 t-11 -6q-10 0 -47 30q-113 94 -207 197.5t-163 219.5t-107.5 245t-38.5 274z" />
<glyph unicode=")" horiz-adv-x="720" d="M2 -397q0 4 20.5 27.5t45.5 54.5q158 205 219 412.5t61 426.5t-61.5 427t-218.5 413q-25 31 -45.5 54.5t-20.5 27.5q0 2 5 9t12.5 15.5t14.5 14.5t11 6q10 0 47 -31q113 -94 207 -197.5t162.5 -219t107.5 -244.5t39 -275q0 -145 -39 -274t-107.5 -245t-162.5 -219 t-207 -198q-37 -31 -47 -30q-4 0 -11 6t-14.5 14t-12.5 15.5t-5 9.5z" />
<glyph unicode="*" horiz-adv-x="872" d="M61 1208q0 31 28 52.5t56 21.5q41 0 77 -16.5t66.5 -40t59.5 -51t58 -52.5l4 4q-18 59 -39 118t-21 124q0 18 7.5 37.5t19.5 36t28.5 28t34.5 11.5q47 0 67.5 -36t20.5 -79q0 -59 -26.5 -122.5t-48.5 -117.5l4 -4q29 18 57.5 42t60 43.5t65.5 33.5t71 14q35 0 65.5 -21.5 t30.5 -59.5q0 -29 -19.5 -48.5t-48 -32t-59.5 -17.5t-51 -5q-41 0 -83 2t-81 4l-4 -4q31 -20 67.5 -43.5t70.5 -52.5t56.5 -63.5t22.5 -77.5q0 -35 -24.5 -57.5t-59.5 -22.5q-41 0 -70.5 34.5t-49 84t-31 99.5t-15.5 81h-4q-10 -33 -25.5 -82t-37 -94t-53.5 -77t-77 -32 q-33 0 -54 23.5t-21 56.5q0 39 26.5 73.5t63.5 64.5t78 53.5t69 41.5v2h-91t-109.5 9.5t-92.5 35t-39 78.5z" />
<glyph unicode="+" d="M117 348v207h348v348h207v-348h350v-207h-350v-348h-207v348h-348z" />
<glyph unicode="," horiz-adv-x="569" d="M106 141q0 33 13.5 61.5t36 49t51.5 33t61 12.5q53 0 89 -22.5t57.5 -58.5t31 -81t9.5 -90q0 -98 -42 -178t-96.5 -136.5t-103.5 -87t-63 -30.5q-10 0 -20.5 15.5t-10.5 23.5q0 12 27.5 31.5t61.5 53.5t62.5 86t28.5 130q0 10 -2 23.5t-12 23.5h-58q-35 0 -57.5 13.5 t-36.5 35t-20.5 46t-6.5 46.5z" />
<glyph unicode="-" horiz-adv-x="872" d="M104 416v135q0 14 9.5 24.5t25.5 10.5h594q35 0 35 -41v-133q0 -25 -31 -25h-606q-27 0 -27 29z" />
<glyph unicode="." horiz-adv-x="569" d="M121 145q0 68 47 116t117 48t117 -48t47 -116t-47.5 -115.5t-116.5 -47.5q-70 0 -117 48t-47 115z" />
<glyph unicode="/" horiz-adv-x="757" d="M-41 0l633 1452h207l-633 -1452h-207z" />
<glyph unicode="0" d="M61 707q0 125 26 255t86 235.5t157.5 173t238.5 67.5t238.5 -67.5t158 -173t86 -236t25.5 -254.5q0 -125 -25.5 -255t-86 -236.5t-157.5 -174.5t-239 -68q-141 0 -238.5 68t-157.5 174.5t-86 236.5t-26 255zM365 707q0 -39 1 -101.5t7 -135.5t18 -146.5t36 -133 t57.5 -97.5t84.5 -38q49 0 84 38t58.5 97.5t36 133t18.5 146.5t7 135.5t1 101.5t-1 101t-7 135t-18.5 146.5t-36 132t-58.5 96.5t-84 38q-51 0 -84.5 -38t-57.5 -96.5t-36 -132t-18 -146.5t-7 -135t-1 -101z" />
<glyph unicode="1" d="M219 39q0 29 6 34t29 5q63 0 98 8t50.5 38t18.5 85t3 151v644q0 63 -4 100t-19.5 55.5t-44 23.5t-77.5 7q-14 2 -36 6t-22 16q0 39 4 48.5t21 11.5q20 2 70.5 11t109.5 29.5t120.5 51.5t106.5 76q4 4 11.5 8t23.5 4q29 0 36 -5t7 -28q0 -37 -3 -65.5t-6 -59t-5 -64.5 t-2 -79v-860q0 -72 3 -115t19.5 -64.5t51 -27.5t100.5 -6q29 0 34 -16.5t5 -32.5q0 -33 -27 -33q-82 0 -162 3t-161 3q-84 0 -166 -3t-164 -3q-16 0 -22.5 12t-6.5 31z" />
<glyph unicode="2" d="M59 0v78q182 205 297 349t179.5 247.5t87 175.5t22.5 133q0 57 -17.5 107.5t-49 87t-78.5 57t-107 20.5q-59 0 -104 -18t-77 -39.5t-50.5 -39t-20.5 -17.5q-14 0 -29.5 21.5t-15.5 27.5t32 46t90 84t139 81t182 37q82 0 153.5 -23.5t124.5 -70t84 -113t31 -150.5 t-33 -160.5t-106.5 -170t-193.5 -216t-296 -298.5h516q27 0 46.5 15t34.5 32.5t25.5 33t18.5 15.5q10 0 27.5 -9.5t17.5 -23.5q0 -4 -16.5 -46t-37 -93t-37.5 -98.5t-19 -61.5h-820z" />
<glyph unicode="3" d="M115 94q0 41 30.5 66.5t69.5 25.5q43 0 72.5 -17t56.5 -38.5t53.5 -39t63.5 -17.5q23 0 57.5 17.5t66 52t54.5 88t23 126.5q0 82 -29 143.5t-78 102.5t-115.5 64.5t-142.5 33.5v66q53 14 107.5 42t99.5 68t72.5 91t27.5 112q0 102 -61.5 152.5t-157.5 50.5 q-49 0 -88 -13.5t-66.5 -28.5t-43 -28.5t-21.5 -13.5q-16 0 -29.5 15.5t-13.5 33.5q0 14 37 46t95 64t131 55.5t144 23.5q88 0 153 -22.5t106.5 -60.5t62 -85t20.5 -96q0 -66 -21.5 -114t-57 -86t-82.5 -69t-99 -57q143 -35 232.5 -128t89.5 -239q0 -92 -34 -165.5t-87 -130 t-120.5 -97.5t-135.5 -67.5t-128 -39t-99 -12.5q-33 0 -71 4t-69.5 17.5t-53 38t-21.5 65.5z" />
<glyph unicode="4" d="M39 444v99q8 23 34.5 71t62.5 106t78 120.5t83 115.5q29 37 67.5 86.5t83 102.5t87.5 103t80.5 91t64.5 66t37 25h131q31 0 31 -25v-784h192q23 0 27 -17.5t4 -85.5q0 -57 -2 -78.5t-17 -21.5h-204v-416q0 -33 -27 -33h-209q-25 0 -25 51v398h-540q-16 0 -27.5 4 t-11.5 22zM190 631q0 -4 11.5 -5t26 -3t27.5 -2h19h344v602q-117 -127 -222 -263.5t-191 -287.5q-14 -29 -15 -41z" />
<glyph unicode="5" d="M127 94q0 39 31.5 66.5t68.5 27.5q45 0 77 -18t57.5 -39.5t50 -40t59.5 -18.5q51 0 89 28.5t64.5 71.5t40 92t13.5 90q0 113 -66.5 197t-230.5 139q-63 20 -98 33.5t-52.5 22t-20.5 14.5t-3 14q0 4 11 64.5t31.5 148.5t46.5 189.5t54 191.5q10 29 18.5 38t34.5 9 q68 0 136.5 -5t138.5 -5q53 0 105.5 3t105.5 7q14 2 25.5 11.5t20.5 19.5t16 18.5t16 8.5q16 0 31.5 -7.5t15.5 -17.5t-11.5 -47t-26.5 -81t-28.5 -85t-15.5 -55q-53 -4 -104.5 -9.5t-104.5 -5.5q-72 0 -143.5 7.5t-143.5 7.5q-16 0 -29.5 -18.5t-17.5 -41.5l-29 -135 q100 -35 199.5 -67.5t178.5 -84t127 -131t48 -208.5q0 -111 -47 -207.5t-123.5 -167t-178 -110.5t-208.5 -40q-31 0 -70.5 4t-75.5 17.5t-59.5 38t-23.5 65.5z" />
<glyph unicode="6" d="M68 469q0 178 53 318.5t137 248t186.5 184t203 125t186.5 71t135 22.5q18 0 18 -52q0 -10 -8 -15t-18 -7q-37 -6 -106 -45t-146.5 -107.5t-154.5 -168t-128 -228.5l4 -4q35 29 89 45t120 16q92 0 172 -31.5t137.5 -89t90 -135t32.5 -170.5q0 -113 -39 -200.5t-107.5 -148 t-164.5 -92.5t-209 -32q-106 0 -194.5 38t-153 104.5t-100 158t-35.5 195.5zM344 399q0 -94 17.5 -159.5t47 -106.5t67.5 -59.5t81 -18.5q70 0 112 32t63.5 83t28.5 114.5t7 129.5q0 57 -8 121.5t-31.5 118t-63.5 88t-102 34.5q-61 0 -103 -32.5t-67.5 -85t-37 -121 t-11.5 -138.5z" />
<glyph unicode="7" d="M96 1051q0 6 13.5 53t33 110.5t41 132t37.5 117.5q4 16 21.5 18.5t21.5 2.5q18 0 23.5 -11.5t9.5 -25.5t12 -25.5t31 -11.5h698q25 0 25 -22q0 -4 -21.5 -60.5t-56.5 -145.5t-81 -204t-96 -236.5t-99.5 -242.5t-90 -222.5t-71.5 -175t-43 -100.5q-4 -10 -17.5 -33.5 t-23.5 -23.5q-6 0 -31.5 9t-54.5 20.5t-52.5 22.5t-23.5 17t9 27.5t22.5 49.5t30 58.5t30.5 57.5q68 131 133.5 265t124 257t107.5 231.5t84 192.5h-543q-35 0 -56.5 -20.5t-37 -46t-28.5 -46t-27 -20.5q-18 0 -36 11t-18 20z" />
<glyph unicode="8" d="M96 340q0 59 23.5 110.5t61.5 94.5t86 75.5t98 55.5q-113 57 -182.5 136t-69.5 212q0 100 37.5 177t102 129t150.5 80t181 28q119 0 202.5 -31t137 -79t78 -108.5t24.5 -117.5q0 -66 -21.5 -117t-58.5 -89t-87 -67t-107 -49q55 -25 108 -60.5t93 -80.5t64.5 -101.5 t24.5 -121.5q0 -106 -38.5 -189.5t-106.5 -139.5t-158 -85t-192 -29q-106 0 -190.5 28t-141.5 77t-88 116.5t-31 145.5zM332 330q0 -55 14 -105.5t43 -87.5t73 -59.5t103 -22.5q49 0 89 18.5t69 50.5t44 75t15 90q0 72 -28.5 122t-73.5 87t-101.5 66.5t-109.5 60.5 q-74 -55 -105.5 -130t-31.5 -165zM336 1137q0 -66 31.5 -112t79 -82t102.5 -62.5t104 -51.5q66 51 108 117t42 152q0 111 -64.5 184.5t-179.5 73.5q-45 0 -86 -17.5t-71.5 -46t-48 -69.5t-17.5 -86z" />
<glyph unicode="9" d="M66 948q0 109 35.5 199t101 154.5t157 100.5t199.5 36q123 0 219 -42t162 -116t99.5 -174t33.5 -219q0 -152 -53 -279t-136 -228t-181.5 -179t-190.5 -129.5t-165 -77t-101 -25.5q-4 0 -11.5 19.5t-7.5 29.5t8.5 17.5t18.5 11.5q98 47 175 107.5t134.5 132t97 151.5 t66.5 166l-4 4q-39 -37 -101.5 -58.5t-148.5 -21.5q-90 0 -165 36t-128 95.5t-83.5 135t-30.5 153.5zM369 991q0 -109 16 -179.5t46 -111.5t69 -56t84 -15q63 0 104 33.5t65.5 87t34 118t9.5 123.5q0 57 -9.5 122t-35 118t-69.5 89t-112 36q-61 0 -100 -36t-62.5 -89 t-31.5 -117.5t-8 -122.5z" />
<glyph unicode=":" horiz-adv-x="569" d="M121 145q0 68 47 116t117 48t117 -48t47 -116t-47.5 -115.5t-116.5 -47.5q-70 0 -117 48t-47 115zM121 713q0 68 47 116t117 48t117 -48t47 -116t-47.5 -116t-116.5 -48q-70 0 -117 48t-47 116z" />
<glyph unicode=";" horiz-adv-x="569" d="M131 141q0 33 13.5 61.5t36 49t51 33t61.5 12.5q53 0 89 -22.5t57.5 -58.5t30.5 -81t9 -90q0 -98 -42 -178t-96 -136.5t-103.5 -87t-63.5 -30.5q-10 0 -20.5 15.5t-10.5 23.5q0 12 28 31.5t61.5 53.5t62.5 86t29 130q0 10 -2.5 23.5t-12.5 23.5h-57q-35 0 -57.5 13.5 t-37 35t-20.5 46t-6 46.5zM131 713q0 68 47 116t117 48t117 -48t47 -116t-47 -116t-117 -48t-117 48t-47 116z" />
<glyph unicode="&#x3c;" d="M117 367v168l905 397v-199l-660 -280l660 -281v-199z" />
<glyph unicode="=" d="M117 176v207h905v-207h-905zM117 522v207h905v-207h-905z" />
<glyph unicode="&#x3e;" d="M117 -27v199l659 281l-659 280v199l905 -393v-168z" />
<glyph unicode="?" horiz-adv-x="909" d="M135 145q0 68 47 116t117 48t117 -48t47 -116t-47 -115.5t-117 -47.5t-117 48t-47 115zM137 1430q0 51 16.5 62t28.5 11q10 0 22.5 -3t12.5 -19q0 -23 9.5 -36t22.5 -19.5t28.5 -8.5t27.5 -2q111 0 183.5 -17.5t118.5 -54t74 -93t50 -132.5q37 -123 37 -256q0 -12 -3 -43 t-13.5 -67.5t-28.5 -72.5t-49 -56q-16 -12 -32.5 -19.5t-45.5 -13.5t-76 -10.5t-123 -8.5q-53 -4 -64 -44t-14 -91q-2 -10 -9 -14t-31 -4q-23 0 -30 3t-7 19v293q0 35 7 51.5t50 16.5h223q86 0 121 32.5t35 118.5q0 59 -28.5 114.5t-88.5 76.5q-18 6 -65 12t-99.5 11 t-100.5 8.5t-73 3.5q-33 0 -50 24.5t-25.5 61t-9.5 81t-1 85.5z" />
<glyph unicode="@" horiz-adv-x="1638" d="M76 725q0 156 57 294t160.5 240.5t245 162t307.5 59.5q143 0 273 -39t228.5 -114t157 -186.5t58.5 -256.5q0 -115 -37 -220.5t-105.5 -188.5t-166 -132t-216.5 -49q-47 0 -95 27.5t-71 70.5q-57 -41 -107 -69.5t-122 -28.5q-59 0 -106.5 25.5t-81 67.5t-52 96.5 t-18.5 109.5q0 92 33 190.5t91 179t139 134t179 53.5q74 0 121 -25.5t78 -74.5l23 65h200l-200 -635q-10 -33 5 -57.5t42 -24.5q55 0 105 33t90 92.5t63.5 141.5t23.5 178q0 115 -36.5 209t-105.5 161.5t-168 105.5t-222 38q-133 0 -241.5 -49t-185.5 -134t-118 -201 t-41 -249t41 -249t118 -201t185.5 -134t241.5 -49q84 0 156.5 19.5t132 50.5t102.5 69.5t70 75.5h196q-43 -68 -108.5 -129t-148.5 -107t-184 -74t-216 -28q-166 0 -307.5 59.5t-245 162t-160.5 239.5t-57 295zM592 506q0 -23 4 -45.5t14.5 -40t26.5 -29.5t43 -14 q39 -4 71.5 26.5t59.5 71.5t43 80t20 51l84 262q12 37 13.5 74t-9 64.5t-32 45t-51.5 17.5q-45 0 -84 -31.5t-71 -82t-56.5 -113t-42 -125t-25.5 -118.5t-8 -93z" />
<glyph unicode="A" horiz-adv-x="1441" d="M-51 31q0 29 14 37t60 10q51 2 75.5 51t57.5 125q43 98 84 198.5t75 204.5q20 63 52 145.5t67 170.5t72 173t66.5 154.5t51 115.5t25.5 54q4 10 23.5 12.5t29.5 2.5q31 0 41.5 -5t16.5 -20q25 -61 65.5 -163.5t90 -225.5t102.5 -255t103 -252t91 -215t66 -146 q20 -41 35.5 -65.5t34 -38t45 -17.5t67.5 -4q25 0 29 -11.5t4 -27.5q0 -14 -2 -28.5t-23 -14.5q-86 0 -172 2t-170 2q-170 0 -243.5 -2t-83.5 -2q-23 0 -23 37q0 14 2 23.5t10.5 13.5t25.5 6t48 2q41 0 66.5 6t25.5 45q0 14 -18 64.5t-43 106.5t-46.5 108.5t-27.5 74.5h-446 q-12 0 -21.5 -1t-13.5 -11q-12 -23 -30.5 -64.5t-36 -89t-31 -90.5t-13.5 -67q0 -31 22.5 -56.5t86.5 -25.5q80 0 97.5 -7.5t17.5 -31.5q0 -16 -3.5 -29.5t-25.5 -13.5q-59 0 -119.5 2t-120.5 2q-53 0 -105 -2t-106 -2q-23 0 -22 35zM381 592q0 -4 8 -10.5t37 -6.5h356 l-204 529q-8 -18 -24.5 -60.5t-39 -95.5t-46.5 -110.5t-43 -107.5t-31.5 -88t-12.5 -50z" />
<glyph unicode="B" horiz-adv-x="1441" d="M55 23q0 39 8.5 47t40.5 8q55 0 86 9t45.5 42t17.5 97.5t3 176.5v705q0 92 -4 145.5t-19.5 81t-44 35.5t-79.5 8q-20 0 -37 7.5t-17 17.5q0 41 5.5 49t31.5 8q66 0 150 -4t174 -4q16 0 42.5 1t69.5 3t105.5 3t150.5 1q160 0 258.5 -35.5t153.5 -86t73.5 -106.5t18.5 -97 q0 -78 -25.5 -137.5t-71.5 -101.5t-108.5 -69.5t-136.5 -44.5q-10 -4 -18 -5t-8 -7q0 -4 18 -8t86 -23q119 -33 184.5 -87t94 -109.5t33.5 -100.5t5 -57q0 -197 -138 -293t-380 -96q-8 0 -24.5 1t-57.5 1t-117.5 1t-207.5 1q-90 0 -175 -2t-159 -2q-27 0 -27 27zM575 184 q0 -53 24 -79.5t85 -26.5q104 0 166.5 38t96.5 89t45.5 102t11.5 78q0 72 -20.5 133.5t-60.5 106.5t-99.5 70.5t-137.5 25.5h-111v-537zM575 803h62q102 0 163.5 27.5t95.5 70.5t44 93t10 93q0 59 -17.5 112.5t-51 93.5t-81.5 62.5t-112 22.5q-39 0 -61.5 -4t-33.5 -15 t-14.5 -31.5t-3.5 -53.5v-471z" />
<glyph unicode="C" horiz-adv-x="1630" d="M76 756q0 66 15 145.5t53 160.5t101.5 156.5t158 134t222.5 93.5t296 35q100 0 178 -12.5t135 -27t92 -26.5t51 -12q25 0 41.5 19.5t30.5 19.5q16 0 22.5 -12.5t10.5 -47.5q4 -43 10 -88t11 -87t8.5 -78.5t3.5 -61.5q0 -8 -21.5 -14t-30.5 -6q-18 0 -24 12 q-55 150 -163 245t-276 95q-141 0 -246.5 -61.5t-174 -161t-102.5 -223.5t-34 -248q0 -152 38 -260.5t94.5 -181.5t125 -115t129 -63.5t106.5 -27.5t58 -6q123 0 202 34t130 84t82 106.5t55 101.5q4 16 19 16q41 0 50 -5t9 -15q0 -18 -5 -56t-11 -81t-12.5 -85t-8.5 -69 q-2 -16 -11 -22.5t-26 -10.5q-147 -33 -271 -56.5t-234 -23.5q-190 0 -352 47t-281 143.5t-186.5 245t-67.5 351.5z" />
<glyph unicode="D" horiz-adv-x="1744" d="M45 1403q0 41 5 49t32 8q74 0 159 -4t175 -4q29 0 60.5 1t80.5 3t120 3t175 1q180 0 311 -35.5t221.5 -95t146.5 -134.5t87 -151.5t41 -149.5t10 -126q0 -147 -47 -285.5t-151.5 -247t-273.5 -174t-415 -65.5q-92 0 -183 2t-183 2q-90 0 -175 -2t-159 -2q-27 0 -27 27 q0 39 8.5 47t40.5 8q55 0 86 9t45.5 42t17.5 97.5t3 176.5v705q0 92 -4 145.5t-22.5 81t-54.5 35.5t-97 8q-4 0 -18.5 7.5t-14.5 17.5zM575 221q0 -49 7.5 -77.5t24 -43t45 -18.5t69.5 -4q129 0 235.5 44t183.5 128t118.5 209t41.5 284q0 47 -7 112t-29.5 135.5t-62.5 140 t-106.5 125t-161.5 89t-226 33.5q-27 0 -50.5 -2t-42 -11t-29 -27.5t-10.5 -51.5v-1065z" />
<glyph unicode="E" horiz-adv-x="1441" d="M25 1403q0 41 5 49t31 8q41 0 130.5 -4t185.5 -4q248 0 397.5 1t234.5 3t121.5 3t61.5 1q6 0 13 -4t7 -10q0 -12 14.5 -55t31 -94.5t31 -94.5t14.5 -55q0 -14 -10.5 -16.5t-32.5 -2.5q-23 0 -33 8.5t-43 49.5q-10 12 -26.5 31.5t-38 41t-47 42t-54.5 34.5 q-23 12 -39 18.5t-38.5 9.5t-59.5 4t-101 1q-74 0 -115.5 -2t-61 -13.5t-24 -37t-4.5 -72.5v-473h134q59 0 97 9t61.5 32t35.5 58.5t23 91.5q6 35 13 47t32 12t35 -4t10 -21q0 -8 -1 -24.5t-2 -47t-2 -77.5t-1 -117q0 -72 3 -138.5t3 -133.5q0 -12 -14.5 -15.5t-43.5 -3.5 q-10 0 -14 6.5t-10 38.5q-12 68 -24.5 108t-41 61.5t-81 28.5t-142.5 7h-70v-528q0 -29 8.5 -44.5t54.5 -24.5t146.5 -11t284.5 -2q29 0 70 20.5t67 55.5q43 61 68.5 96t42 53.5t27 23.5t24.5 5q25 0 35 -2t10 -13q0 -4 -11 -35.5t-27.5 -74.5t-36 -92t-35.5 -88 q-10 -23 -20.5 -27t-51.5 -4h-22.5t-43 1t-86 1t-147.5 1t-230.5 1h-334.5q-98 0 -154.5 -1t-87.5 -1t-43 -1t-21 -1q-27 0 -26 27q0 39 11 47t58 8q55 0 86 9t45.5 42t17.5 97.5t3 176.5v705q0 92 -4 145.5t-22.5 81t-54.5 35.5t-97 8q-20 0 -36.5 7.5t-16.5 17.5z" />
<glyph unicode="F" horiz-adv-x="1290" d="M25 1403q0 41 5 49t31 8q41 0 130.5 -4t185.5 -4q248 0 397.5 1t234.5 3t121.5 3t61.5 1q6 0 13 -4t7 -10q0 -12 14.5 -55t31 -94.5t31 -94.5t14.5 -55q0 -14 -10.5 -16.5t-32.5 -2.5q-23 0 -33 8.5t-43 49.5q-10 12 -26.5 31.5t-38 41t-47 42t-54.5 34.5 q-23 12 -39 18.5t-38.5 9.5t-59.5 4t-101 1q-74 0 -115.5 -2t-61 -13.5t-24 -37t-4.5 -72.5v-473h134q59 0 97 9t61.5 32t35.5 58.5t23 91.5q6 35 13 47t32 12t35 -4t10 -21q0 -8 -1 -24.5t-2 -47t-2 -77.5t-1 -117q0 -72 3 -138.5t3 -133.5q0 -12 -14.5 -15.5t-43.5 -3.5 q-10 0 -14 6.5t-10 38.5q-12 68 -24.5 108t-41 61.5t-81 28.5t-142.5 7h-70v-285q0 -113 3.5 -177t17.5 -97t45 -42t86 -9q63 0 76.5 -8.5t13.5 -46.5q0 -14 -8 -20.5t-39 -6.5q-90 0 -177 2t-177 2t-177 -2t-178 -2q-27 0 -26 27q0 39 11 47t58 8q55 0 86 9t45.5 42 t17.5 97.5t3 176.5v705q0 92 -4 145.5t-22.5 81t-54.5 35.5t-97 8q-20 0 -36.5 7.5t-16.5 17.5z" />
<glyph unicode="G" horiz-adv-x="1744" d="M76 705q0 174 68.5 317t187.5 245.5t275.5 158t334.5 55.5q121 0 213 -20.5t156.5 -46t102.5 -46t52 -20.5q29 0 45.5 19t26.5 19q20 0 21 -14q0 -92 5 -183t5 -183q0 -23 -45 -23q-18 0 -28.5 18.5t-19 46t-19.5 59.5t-30 60q-43 63 -88 105.5t-99 68t-121.5 37 t-155.5 11.5q-135 0 -233.5 -60.5t-161 -159t-93.5 -221.5t-31 -246q0 -139 34 -257.5t102.5 -206.5t170 -137.5t236.5 -49.5q27 0 71 3t85 18.5t70.5 50.5t29.5 100v226q0 8 -2 23t-15.5 29.5t-41 26t-78.5 11.5h-109q-16 0 -21 14t-5 31q0 23 8 30t31 7q92 0 183 -3.5 t183 -3.5q86 0 170 3.5t170 3.5q16 0 19.5 -10.5t3.5 -26.5q0 -12 -2 -21.5t-12.5 -14.5t-33 -7t-61.5 -2q-29 0 -56.5 -31t-27.5 -123v-168q0 -33 9.5 -51.5t21.5 -30.5t21.5 -24.5t9.5 -32.5q0 -14 -18.5 -22.5t-43 -13.5t-49 -8t-35.5 -5q-121 -23 -245.5 -41.5 t-243.5 -18.5q-244 0 -414 56.5t-277.5 156t-156.5 233.5t-49 290z" />
<glyph unicode="H" horiz-adv-x="1820" d="M25 1403q0 41 5 49t31 8q90 0 177.5 -4t177.5 -4t177 4t177 4q10 0 13 -8t3 -49q0 -10 -19 -17.5t-54 -7.5q-47 0 -75 -8t-41 -35.5t-17.5 -81t-4.5 -145.5v-324h670v324q0 92 -4 145.5t-17.5 81t-41 35.5t-74.5 8q-35 0 -54.5 7.5t-19.5 17.5q0 41 3 49t14 8 q90 0 177 -4t177 -4t177 4t177 4q27 0 32 -8t5 -49q0 -10 -16.5 -17.5t-36.5 -7.5q-61 0 -97 -8t-54.5 -35.5t-22.5 -81t-4 -145.5v-705q0 -113 3 -177t17 -97t45 -42t86 -9q47 0 58.5 -8.5t11.5 -46.5q0 -27 -27 -27q-90 0 -177 2t-177 2t-177 -2t-177 -2q-27 0 -27 27 q0 39 11.5 47t58.5 8q55 0 85.5 9t45 42t17.5 97.5t3 176.5v289h-670v-289q0 -113 3.5 -177t17.5 -97t45 -42t86 -9q47 0 58.5 -8.5t11.5 -46.5q0 -27 -27 -27q-90 0 -177 2t-177 2t-177 -2t-178 -2q-27 0 -26 27q0 39 11 47t58 8q55 0 86 9t45.5 42t17.5 97.5t3 176.5v705 q0 92 -4 145.5t-22.5 81t-54.5 35.5t-97 8q-20 0 -36.5 7.5t-16.5 17.5z" />
<glyph unicode="I" horiz-adv-x="833" d="M25 1403q0 41 5 49t31 8q90 0 177.5 -4t177.5 -4t177 4t177 4q27 0 32 -8t5 -49q0 -10 -16.5 -17.5t-36.5 -7.5q-61 0 -97 -8t-54.5 -35.5t-23 -81t-4.5 -145.5v-705q0 -113 3.5 -177t17.5 -97t45 -42t86 -9q47 0 58.5 -8.5t11.5 -46.5q0 -27 -27 -27q-90 0 -177 2 t-177 2t-177 -2t-178 -2q-27 0 -26 27q0 39 11 47t58 8q55 0 86 9t45.5 42t17.5 97.5t3 176.5v705q0 92 -4 145.5t-22.5 81t-54.5 35.5t-97 8q-20 0 -36.5 7.5t-16.5 17.5z" />
<glyph unicode="J" horiz-adv-x="833" d="M-231 -289q0 51 35.5 94t89.5 43q53 0 86.5 -23.5t60.5 -51t53.5 -50t69.5 -22.5q25 0 43 19.5t28.5 52t15.5 74.5t5 85v1176q0 92 -4 145.5t-22.5 81t-54.5 35.5t-97 8q-20 0 -36.5 7.5t-16.5 17.5q0 41 5 49t31 8q90 0 177.5 -4t177.5 -4t175 4t159 4q18 0 22 -8t4 -49 q0 -10 -11 -17.5t-32 -7.5q-55 0 -86 -8t-47 -35.5t-20.5 -81t-4.5 -145.5v-705q0 -86 -4 -156.5t-14 -132t-28.5 -115.5t-47.5 -108q-45 -82 -105.5 -142t-129 -101t-138 -61.5t-133.5 -20.5q-39 0 -75.5 6t-66.5 23.5t-47 45t-17 70.5z" />
<glyph unicode="K" horiz-adv-x="1630" d="M25 1403q0 41 5 49t31 8q90 0 177.5 -4t177.5 -4t177 4t177 4q27 0 32 -8t5 -49q0 -10 -16.5 -17.5t-36.5 -7.5q-61 0 -97 -8t-54.5 -35.5t-23 -81t-4.5 -145.5v-367q18 0 33 1t28 6.5t27.5 15.5t34.5 31l351 358q76 78 103.5 116t27.5 50t-2 22.5t-13.5 17.5t-36 12 t-67.5 7q-27 2 -33 9.5t-6 33.5q0 16 3 27.5t24 11.5q72 0 128 -4t83 -4q33 0 99 4t179 4q20 0 23.5 -14t3.5 -29q0 -20 -7.5 -29.5t-48.5 -9.5q-16 0 -57 -10t-82 -33q-23 -12 -56.5 -42.5t-88 -84t-132 -132.5t-188.5 -187q-6 -6 -21.5 -22.5t-15.5 -22.5q0 -2 32 -39 t80 -93.5t105.5 -123t109.5 -127t92 -107.5t52 -61q68 -80 112 -124t77 -63.5t58.5 -23.5t60.5 -4q45 0 52 -8.5t7 -24.5q0 -29 -2 -39t-23 -10q-90 0 -179 2t-179 2q-92 0 -183 -2t-184 -2q-20 0 -22 12t-2 29q0 31 14.5 36t81.5 5q10 0 21.5 7t11.5 21q0 20 -22.5 57.5 t-69.5 95.5t-119 143t-170 202q-35 41 -58.5 48t-46.5 7v-256q0 -113 3.5 -177t17.5 -97t45 -42t86 -9q47 0 58.5 -8.5t11.5 -46.5q0 -27 -27 -27q-90 0 -177 2t-177 2t-177 -2t-178 -2q-27 0 -26 27q0 39 11 47t58 8q55 0 86 9t45.5 42t17.5 97.5t3 176.5v705 q0 92 -4 145.5t-22.5 81t-54.5 35.5t-97 8q-20 0 -36.5 7.5t-16.5 17.5z" />
<glyph unicode="L" horiz-adv-x="1402" d="M25 1403q0 41 5 49t31 8q90 0 177.5 -4t177.5 -4t177 4t177 4q27 0 32 -8t5 -49q0 -10 -16.5 -17.5t-36.5 -7.5q-61 0 -97 -8t-54.5 -35.5t-23 -81t-4.5 -145.5v-879q0 -43 5.5 -70.5t25 -43t59.5 -21.5t109 -6q109 0 189.5 5t142 35t109 93.5t90.5 177.5q6 18 16 21.5 t27 3.5q16 0 23 -3t7 -15q0 -8 -6 -39t-14 -74t-18.5 -92t-20.5 -90t-17.5 -70t-9.5 -33q-4 -10 -12 -11t-18 -1q-33 0 -110 1t-171 3t-195.5 3t-183.5 1q-121 0 -205 -1t-144 -3t-104.5 -3t-87.5 -1q-27 0 -26 27q0 39 11 47t58 8q55 0 86 9t45.5 42t17.5 97.5t3 176.5v705 q0 92 -4 145.5t-22.5 81t-54.5 35.5t-97 8q-20 0 -36.5 7.5t-16.5 17.5z" />
<glyph unicode="M" horiz-adv-x="2048" d="M-18 29q0 31 12 38t53 11q45 2 69.5 9t39 28.5t23.5 64.5t22 119l166 967q-14 37 -26.5 59.5t-29 34.5t-38 15t-54.5 3t-51 2t-26.5 7.5t-10.5 13.5t-2 22q0 18 5 27.5t26 9.5q86 0 141 -4t96 -4q37 0 94.5 4t145.5 4q4 0 12 -4t10 -10q76 -229 172.5 -486.5 t202.5 -543.5q104 246 208 488.5t200 490.5q14 37 25.5 51t23.5 14q92 0 150.5 -4t84.5 -4q33 0 94.5 4t166.5 4q10 0 16 -5t6 -32q0 -31 -11 -38t-59 -7q-51 0 -81.5 -7t-47 -24.5t-21.5 -45t-5 -66.5q0 -27 2 -78t7 -151.5t10 -263t12 -414.5q2 -82 7 -131.5t23.5 -76 t55 -34.5t102.5 -8q23 0 28 -9.5t5 -25.5q0 -29 -2 -38t-25 -9q-59 0 -119.5 2t-120.5 2q-111 0 -221 -2t-221 -2q-20 0 -23.5 11t-3.5 26q0 29 8.5 37t34.5 8q74 0 121 10t47 62q0 68 -4 198.5t-9 286.5t-10 317.5t-9 294.5h-4l-531 -1241q-12 -31 -45 -31q-25 0 -37 9.5 t-31 64.5q-59 168 -112 316.5t-102.5 280.5t-96.5 252t-90 232h-4q-51 -289 -79 -462.5t-41 -270t-15 -131.5t-2 -43q0 -45 6 -72.5t19.5 -44t38 -22.5t61.5 -6q43 0 57 -7.5t14 -25.5q0 -35 -6 -42t-18 -7q-45 0 -91 2t-102 2q-86 0 -135 -1t-73.5 -1t-32 -1t-9.5 -1 q-16 0 -26 5t-10 28z" />
<glyph unicode="N" horiz-adv-x="1781" d="M-4 1419q0 16 5 28.5t24 12.5q18 0 48.5 -1t63.5 -2t62.5 -3t44.5 -2q20 0 55 1t73 2t74.5 3t61.5 2q14 0 24.5 -9t20.5 -19q229 -248 453.5 -495t466.5 -482q0 172 8 326.5t8 273.5q0 111 -14.5 175t-41 97t-65.5 42t-90 9q-31 0 -37 9.5t-6 31.5q0 16 4 28.5t23 12.5 q20 0 59 -1t80 -3t76.5 -3t52.5 -1q14 0 50 1t76 3t74.5 3t49.5 1q25 0 24 -37q0 -23 -4 -34t-31 -11q-49 0 -83.5 -9t-56 -30.5t-32 -57.5t-14.5 -91q-2 -33 -6 -117t-8 -195.5t-8.5 -238.5t-7.5 -248t-5 -222t-2 -163q0 -35 -12 -40t-51 -5q-4 0 -16.5 10.5t-55.5 57.5 l-1055 1132q-2 -43 -4 -107.5t-3 -136t-2 -145.5t-1 -135.5v-104.5v-55q0 -145 3 -224t21.5 -118t59.5 -47t115 -10q35 -2 43 -9.5t8 -37.5q0 -20 -5 -27.5t-28 -7.5q-61 0 -123.5 2t-124.5 2q-63 0 -125.5 -2t-126.5 -2q-23 0 -26.5 11t-3.5 30q0 23 7 31t42 10q53 2 86 6 t50.5 20.5t23.5 50t10 95.5q2 20 3 79.5t3 140.5t4 178t3 192.5t2 182.5t1 148q0 35 -7 60.5t-42 60.5q-31 31 -50 47.5t-34.5 24.5t-32 10t-41.5 4q-47 4 -56 10.5t-9 30.5z" />
<glyph unicode="O" horiz-adv-x="1781" d="M76 725q0 170 65.5 309.5t179 238.5t268.5 153.5t333 54.5q172 0 315 -53.5t247.5 -151.5t163 -237.5t58.5 -313.5q0 -66 -14.5 -146.5t-49 -164.5t-96 -164t-155 -142.5t-224.5 -100.5t-307 -38q-172 0 -315.5 53.5t-247.5 151.5t-162.5 237.5t-58.5 313.5zM444 725 q0 -96 19.5 -213t70 -219.5t137.5 -172t220 -69.5q139 0 226 60.5t136.5 158t66.5 217t17 238.5q0 106 -20.5 224t-71.5 218.5t-137 166t-217 65.5q-139 0 -226 -62.5t-136.5 -161t-67 -218t-17.5 -232.5z" />
<glyph unicode="P" horiz-adv-x="1366" d="M25 1403q0 41 5 49t31 8q90 0 177.5 -4t177.5 -4q20 0 56 1t82 3t100.5 3t109.5 1q174 0 283.5 -45t171 -109.5t83 -136t21.5 -122.5q0 -88 -28.5 -169t-93 -143.5t-168 -100.5t-251.5 -38q-51 0 -105 6t-102 14v-309q0 -76 3.5 -121t20.5 -69.5t54 -31.5t105 -7 q55 0 67.5 -8.5t12.5 -46.5q0 -14 -7.5 -20.5t-29.5 -6.5q-113 0 -204 2t-181 2t-177 -2t-178 -2q-27 0 -26 27q0 39 11 47t58 8q55 0 86 9t45.5 42t17.5 97.5t3 176.5v705q0 92 -4 145.5t-22.5 81t-54.5 35.5t-97 8q-20 0 -36.5 7.5t-16.5 17.5zM575 729q0 -12 8.5 -20.5 t20.5 -12.5t25.5 -6t21.5 -2q78 0 139.5 26.5t104.5 75t65.5 113t22.5 139.5q0 147 -81 241.5t-234 94.5q-35 0 -53.5 -7t-27.5 -22.5t-10.5 -39t-1.5 -56.5v-524z" />
<glyph unicode="Q" horiz-adv-x="1781" d="M76 725q0 170 65.5 309.5t179 238.5t268.5 153.5t333 54.5q172 0 315 -53.5t247.5 -151.5t163 -237.5t58.5 -313.5q0 -150 -49 -273.5t-129 -218t-181.5 -154t-205.5 -77.5q-29 -4 -29 -18q0 -6 38 -48t105.5 -88.5t162.5 -84t210 -37.5q10 0 12 -6.5t2 -34.5 q0 -23 -3 -26t-25 -7q-35 -4 -72 -6t-72 -2q-133 0 -244.5 14t-211 53t-188.5 105.5t-175 171.5q-4 4 -10 5t-12 3q-125 33 -227.5 96.5t-174 156.5t-111.5 213t-40 263zM444 725q0 -96 19.5 -213t70 -219.5t137.5 -172t220 -69.5q139 0 226 60.5t136.5 158t66.5 217 t17 238.5q0 106 -20.5 224t-71.5 218.5t-137 166t-217 65.5q-139 0 -226 -62.5t-136.5 -161t-67 -218t-17.5 -232.5z" />
<glyph unicode="R" horiz-adv-x="1517" d="M25 1403q0 41 5 49t31 8q90 0 177.5 -4t177.5 -4q47 0 133 4t209 4q127 0 218 -20.5t153.5 -54t100.5 -75.5t57.5 -86t25.5 -86t6 -73q0 -74 -23.5 -128t-65.5 -95t-96.5 -71t-115.5 -54q-4 -2 -14.5 -7t-10.5 -14q0 -6 9.5 -19t29.5 -42l336 -479q31 -45 69 -59.5 t97 -18.5q14 0 17 -5t3 -20q0 -39 -2 -48t-16 -9q-35 0 -100.5 2t-128.5 2q-49 0 -102.5 -2t-98.5 -2q-16 0 -40 40t-58 91l-242 381q-33 51 -56.5 79.5t-44 42t-42 15.5t-48.5 2v-244q0 -113 3.5 -177t17.5 -97t45 -42t86 -9q47 0 58.5 -8.5t11.5 -46.5q0 -27 -27 -27 q-90 0 -177 2t-177 2t-177 -2t-178 -2q-27 0 -26 27q0 39 11 47t58 8q55 0 86 9t45.5 42t17.5 97.5t3 176.5v705q0 92 -4 145.5t-22.5 81t-54.5 35.5t-97 8q-20 0 -36.5 7.5t-16.5 17.5zM575 729h76q94 0 156.5 23.5t100.5 65.5t54.5 97.5t16.5 118.5q0 68 -15.5 130.5 t-49 109.5t-88 75.5t-130.5 28.5q-20 0 -41.5 -3t-39 -13t-29 -28.5t-11.5 -51.5v-553z" />
<glyph unicode="S" horiz-adv-x="1175" d="M74 360q0 8 9 10.5t38 2.5q18 0 24.5 -12.5t16.5 -41.5q45 -121 132 -194.5t230 -73.5q115 0 184.5 62.5t69.5 165.5q0 94 -49 155.5t-124 106.5t-162 85t-161.5 92t-123.5 127t-49 191q0 102 36.5 185.5t101 140.5t152.5 88t191 31q59 0 114.5 -7.5t98.5 -15.5 q45 -10 75.5 -16t41.5 -6q10 0 16 6l14 14q8 6 15.5 12.5t15.5 6.5q12 0 17.5 -13.5t7.5 -62.5q4 -125 16 -203t12 -84q0 -16 -16.5 -21.5t-42.5 -5.5q-10 0 -19.5 24t-26 58.5t-40 74.5t-60 75t-89 58.5t-124.5 23.5q-104 0 -172.5 -67.5t-68.5 -172.5q0 -78 53 -129 t134 -95t179.5 -92t188.5 -118q82 -63 116.5 -145t34.5 -181q0 -86 -33.5 -164.5t-102 -137t-170 -93.5t-236.5 -35q-53 0 -98.5 4t-91.5 9.5t-96 9.5t-110 4q-16 0 -27.5 4t-15.5 27q-2 20 -6 65t-9 95.5t-8 98.5t-3 74z" />
<glyph unicode="T" horiz-adv-x="1669" d="M-14 1118q0 12 15 61.5t33.5 105.5t34 106.5t17.5 66.5t10 29.5t31 13.5q10 0 20.5 -8t25.5 -17.5t40 -16.5t63 -7h1170q18 0 31.5 9t24.5 19.5t22.5 19.5t23.5 9q29 0 35 -30q2 -8 10.5 -37t18.5 -68t23.5 -82t23.5 -80.5t17 -64.5t7 -33q0 -14 -14 -16t-24 -2 q-20 0 -27.5 4t-18.5 20q-43 68 -81.5 116t-89 77.5t-122 43t-178.5 13.5q-49 0 -76.5 -2t-40 -16.5t-14.5 -43t-2 -79.5v-826q0 -113 3 -177t17.5 -97t45.5 -42t86 -9q47 0 58.5 -8.5t11.5 -46.5q0 -27 -27 -27q-90 0 -177 2t-177 2t-177.5 -2t-177.5 -2q-27 0 -26 27 q0 39 11 47t58 8q55 0 86 9t45.5 42t17.5 97.5t3 176.5v826q0 51 -2 79.5t-16.5 43t-43 16.5t-84.5 2q-96 0 -163.5 -15.5t-119.5 -46t-93 -77.5t-84 -111q-10 -16 -19.5 -22t-27.5 -6q-16 0 -26.5 5t-10.5 21z" />
<glyph unicode="U" horiz-adv-x="1705" d="M4 1403q0 41 5 49t32 8q90 0 177 -4t177 -4t177 4t178 4q27 0 31.5 -8t4.5 -49q0 -10 -16 -17.5t-37 -7.5q-61 0 -97 -8t-54.5 -35.5t-22.5 -81t-4 -145.5v-510q0 -117 24.5 -199t63.5 -135t88 -82.5t98.5 -43t92.5 -16.5t71 -3q205 0 313.5 140t108.5 421v360 q0 127 -13 196t-39 100.5t-63.5 36.5t-87.5 5q-14 0 -37.5 7.5t-23.5 29.5q0 23 5 34t26 11q49 0 121.5 -4t136.5 -4q53 0 121.5 4t140.5 4q20 0 23.5 -12t3.5 -41q0 -16 -17.5 -21.5t-52.5 -7.5q-20 -2 -46 -7t-49.5 -23.5t-40 -52t-16.5 -91.5q-4 -203 -7 -340t-8 -226 t-10 -140.5t-14 -83.5q-29 -121 -89 -206t-143 -138.5t-183.5 -77t-204.5 -23.5q-156 0 -270.5 41t-190.5 109.5t-113.5 160t-37.5 191.5v637q0 92 -4.5 145.5t-23 81t-54 35.5t-97.5 8q-20 0 -36.5 7.5t-16.5 17.5z" />
<glyph unicode="V" horiz-adv-x="1554" d="M-41 1419q0 14 1 22.5t7 12.5t20.5 5t41.5 1q12 0 43.5 -1t74.5 -3t93.5 -3t101.5 -1q29 0 71 1t88 3t90 3t79 1q41 0 49 -5t8 -28t-3 -33t-22 -12l-108 -8q-37 -2 -47 -23.5t-10 -37.5q0 -14 17 -68.5t46 -132.5t64.5 -171t73.5 -187.5t73 -181.5t61 -150 q10 -23 14.5 -36t14.5 -13t14 12q18 41 51 112.5t73 156.5t80 177.5t74 177.5t54.5 154.5t20.5 110.5q0 47 -32 73.5t-75 28.5q-66 2 -83 7.5t-17 33.5q0 18 4 30.5t25 12.5q59 0 117.5 -4t105.5 -4q41 0 83 1t81 3t70.5 3t51.5 1q16 0 20.5 -14t4.5 -27q0 -14 -5 -25.5 t-22 -11.5q-53 0 -86.5 -11t-56 -34.5t-41 -58.5t-41.5 -82q-20 -41 -55 -120t-80 -179t-96 -216t-103.5 -231.5t-101.5 -222t-90 -190.5q-25 -51 -44.5 -59.5t-29.5 -8.5q-47 0 -66.5 38t-46.5 106q-156 385 -268 669.5t-205 477.5q-31 63 -72.5 92.5t-131.5 31.5 q-16 0 -19.5 8.5t-3.5 26.5z" />
<glyph unicode="W" horiz-adv-x="2199" d="M-14 1421q0 39 30 39q78 0 153 -4t153 -4q82 0 161.5 4t161.5 4q16 0 20.5 -13t4.5 -28q0 -10 -2 -17t-12.5 -12.5t-31 -8.5t-59.5 -3q-18 0 -37.5 -12t-19.5 -49q0 -16 16.5 -83t41 -158t54 -193.5t56 -193.5t47 -157.5t27.5 -82.5q4 -10 8 -28t16 -18q6 0 12.5 11.5 t22.5 48.5l268 543q8 16 16.5 34.5t8.5 40.5q0 12 -8.5 51t-20.5 83.5t-28.5 84t-32.5 54.5q-10 8 -34 15t-42 9q-51 2 -59.5 10.5t-8.5 22.5q0 23 4.5 36t30.5 13q78 0 156 -4t155 -4q78 0 154 4t154 4q10 0 14 -7t4 -40q0 -20 -14.5 -27.5t-77.5 -7.5q-29 0 -50.5 -19.5 t-21.5 -55.5q0 -18 14.5 -75t37 -132.5t49 -163.5t52 -170t45 -147.5t30.5 -98.5q16 -53 21 -68.5t11 -15.5q8 0 13.5 7t21.5 50q70 174 117 299t78.5 211t50 140.5t28 85t11.5 46t2 23.5q0 31 -12.5 48.5t-31 25.5t-39 9t-36.5 1q-25 0 -50.5 5.5t-25.5 33.5q0 31 10.5 37 t32.5 6q66 0 124.5 -4t111.5 -4q41 0 93 4t142 4q12 0 17.5 -8t5.5 -33t-14.5 -30t-67.5 -11q-12 -2 -30.5 -6t-40 -17.5t-43 -39t-40.5 -70.5q-74 -172 -143.5 -339t-132 -321.5t-116.5 -293.5t-97 -256q-16 -45 -30.5 -55.5t-41.5 -10.5q-20 0 -33.5 13.5t-21.5 32t-12 36 t-6 25.5q-78 225 -142.5 434t-128.5 405q-4 12 -6 16.5t-12 4.5q-6 0 -11.5 -7t-21.5 -40q-61 -133 -127 -271.5t-125 -259t-108.5 -216t-77.5 -140.5q-8 -14 -15.5 -23.5t-29.5 -9.5q-35 0 -45.5 13.5t-20.5 40.5q-23 55 -54.5 156.5t-68.5 223t-75.5 253.5t-74.5 253 t-64.5 218.5t-47.5 150.5q-2 6 -8 23.5t-18.5 34t-29 29.5t-40.5 13q-68 0 -80 9.5t-12 33.5z" />
<glyph unicode="X" horiz-adv-x="1554" d="M-4 41q0 16 8 26.5t43 10.5q43 0 73 8t59.5 30.5t64.5 62.5t84 104q51 68 102 129t93 113.5t71 93t39 63.5q-10 29 -45 87t-86 138t-115.5 179.5t-134.5 209.5q-16 27 -31.5 43.5t-33 24.5t-40 11t-55.5 3q-59 2 -59 33q0 16 3 32.5t21 16.5q96 0 189.5 -4t189.5 -4 q78 0 153 4t152 4q16 -4 19.5 -14t3.5 -23q0 -8 -1 -16t-10.5 -14.5t-28.5 -10.5t-56 -4q-45 0 -45 -47q0 -8 16 -39.5t43 -78t61.5 -102.5t71.5 -114q27 -41 37 -54t14 -13q10 0 47 44t91 122q12 18 31.5 43.5t38 54.5t32.5 58.5t14 54.5q0 39 -22.5 51t-75.5 20 q-29 4 -40 11.5t-11 29.5q0 29 11 35t38 6q66 0 128 -4t128 -4q61 0 121.5 4t122.5 4q16 0 21 -11t5 -28q0 -12 -10 -27.5t-53 -15.5q-78 0 -123 -25.5t-90 -72.5q-35 -37 -94.5 -106.5t-117 -140t-98 -125t-40.5 -58.5q0 -16 9 -32.5t32 -51.5l342 -553q31 -51 55 -79 t50 -40t56.5 -14t75.5 -2q10 0 12 -13.5t2 -35.5q0 -16 -3 -24.5t-15 -8.5q-88 0 -174 1t-174 3q-82 -2 -163 -3t-163 -1q-29 0 -38 6t-9 33q0 20 8 31.5t31 11.5q39 0 70.5 6t31.5 43q0 14 -13 46t-42 83t-74 125t-110 174q-16 25 -19.5 35t-13.5 10q-6 0 -14 -11t-31 -40 q-141 -182 -205.5 -277.5t-64.5 -124.5q0 -18 4 -30.5t20.5 -20.5t50 -12t93.5 -6q16 0 18 -19.5t2 -29.5q0 -33 -22 -33q-53 0 -124 2t-137 2q-88 0 -159.5 -2t-100.5 -2q-12 0 -15 16.5t-3 28.5z" />
<glyph unicode="Y" horiz-adv-x="1402" d="M-41 1419q0 16 3 28.5t20 12.5q102 0 196 -4t158 -4q63 0 143 4t185 4q16 0 20 -12t4 -23q0 -29 -8 -36t-59 -11q-59 -4 -81 -14t-22 -45q0 -16 54.5 -127t181.5 -346q39 -74 52 -98.5t17 -24.5q6 0 17.5 18.5t19.5 32.5q90 162 143.5 259t80 152.5t33.5 79t7 35.5 q0 16 -3 29.5t-13 24t-32.5 16.5t-61.5 8q-51 4 -61.5 12.5t-10.5 36.5q0 33 39 33q59 0 115.5 -4t115.5 -4q53 0 106.5 4t106.5 4q23 0 27 -10t4 -27q0 -27 -8 -35t-53 -10t-76 -13t-59 -48q-14 -18 -49 -78.5t-84.5 -151t-111 -205t-130.5 -241.5q-16 -31 -19.5 -42 t-3.5 -28v-168q0 -113 3 -177t17.5 -97t45 -42t86.5 -9q47 0 58 -8.5t11 -46.5q0 -27 -26 -27q-90 0 -177 2t-178 2q-90 0 -177 -2t-177 -2q-27 0 -26 27q0 39 11 47t58 8q55 0 86 9t45.5 42t17.5 97.5t3 176.5v134q0 8 -1 17t-7.5 23.5t-18.5 37t-33 61.5l-254 471 q-41 74 -64.5 119t-43 70.5t-41 33.5t-57.5 8q-41 0 -52.5 12.5t-11.5 28.5z" />
<glyph unicode="Z" horiz-adv-x="1517" d="M27 16q0 4 6 15.5t31.5 47.5t78 106.5t144.5 192.5t231 305t338 447q53 70 83 113t43 66.5t15 33t2 13.5q-4 4 -7 4h-38h-311q-90 0 -157.5 -11.5t-122 -43t-98.5 -87t-85 -141.5q-10 -20 -45 -20q-8 0 -22.5 3t-14.5 15q0 4 14.5 56.5t32 117t34 124t20.5 77.5 q12 61 20 74.5t25 13.5q14 0 21 -13.5t19.5 -29.5t36 -29.5t70.5 -13.5h1036q8 0 10.5 -7t2.5 -18l-31 -43t-84 -119.5t-128 -180t-164 -225.5t-188.5 -256t-203.5 -271q-53 -70 -84 -112t-48 -66.5t-22.5 -36t-5.5 -17.5q0 -8 23 -8h418q94 0 156.5 9.5t113.5 38t100 81.5 t119 141q6 8 15.5 12.5t31.5 4.5q12 0 21.5 -4t9.5 -13q0 -2 -10.5 -28.5t-26.5 -71.5t-38.5 -105.5t-47.5 -127.5q-8 -23 -18.5 -26t-36.5 -3h-848q-111 0 -181.5 -1t-117.5 -3t-71.5 -3t-41.5 -1q-10 0 -17 4t-7 20z" />
<glyph unicode="[" horiz-adv-x="720" d="M190 -379v1811q0 29 25 28h475q12 0 14.5 -9t2.5 -26q0 -16 -2.5 -27.5t-16.5 -11.5q-66 0 -107.5 -3t-68.5 -8t-41 -10t-20 -11q-20 -16 -23.5 -64.5t-3.5 -150.5v-1225q0 -102 3 -150.5t24 -64.5q6 -6 20 -11t41 -10.5t69 -8.5t107 -3q14 0 16.5 -11t2.5 -28 q0 -16 -2.5 -25.5t-14.5 -9.5h-475q-25 0 -25 29z" />
<glyph unicode="\" d="M188 1452h215l547 -1452h-215z" />
<glyph unicode="]" horiz-adv-x="720" d="M14 -373q0 16 2 27.5t17 11.5q63 0 106 3t70 8.5t41 10.5t20 11q20 16 23.5 64.5t3.5 150.5v1225q0 102 -3 150t-24 65q-6 6 -20 11t-41 10t-70 8t-106 3q-14 0 -16.5 11.5t-2.5 27.5t2 25.5t15 9.5h475q25 0 24 -28v-1811q0 -29 -24 -29h-475q-12 0 -14.5 9.5t-2.5 25.5 z" />
<glyph unicode="^" d="M117 696l344 715h215l346 -715h-211l-242 475l-243 -475h-209z" />
<glyph unicode="_" horiz-adv-x="1024" d="M0 -154h1024v-102h-1024v102z" />
<glyph unicode="`" horiz-adv-x="569" d="M-37 1364q0 47 31 67.5t74 20.5q23 0 49 -18.5t41 -34.5l288 -314h-104l-326 203q-23 14 -38 29.5t-15 46.5z" />
<glyph unicode="a" horiz-adv-x="985" d="M72 164q0 47 16 81t41 58.5t52.5 39.5t49.5 26l328 141v188q0 27 -14.5 51.5t-37 43t-52 28.5t-60.5 10q-14 0 -35.5 -8t-42 -20t-35 -27.5t-14.5 -30.5q0 -8 14.5 -32.5t14.5 -40.5q0 -57 -33 -86t-92 -29q-41 0 -70.5 23.5t-29.5 70.5q0 25 8 45.5t29.5 42t59.5 47 t95 60.5q55 33 90 51t61.5 27.5t48 11.5t52.5 2q113 0 175.5 -32t90 -73.5t32.5 -84.5t5 -64v-532q0 -18 7.5 -35t31.5 -17q20 0 32.5 7.5t22 16.5t16.5 17.5t17 8.5q4 0 18.5 -11.5t14.5 -17.5q0 -12 -20.5 -37t-55.5 -49.5t-80 -43t-92 -18.5q-59 0 -105 34t-63 93 q-55 -55 -129 -91t-153 -36q-92 0 -150.5 47.5t-58.5 143.5zM324 207q0 -16 4 -34.5t15 -35t29.5 -27t47.5 -10.5q14 0 37.5 7.5t46 19.5t39 26.5t16.5 30.5v23v227q-66 -27 -111 -47t-72.5 -44t-39.5 -55.5t-12 -80.5z" />
<glyph unicode="b" horiz-adv-x="1175" d="M4 1432q0 10 3 17t13.5 11t31 8.5t54.5 8.5q57 6 109.5 19t93.5 26.5t67.5 22.5t33.5 9q4 0 12 -5t8 -15q0 -37 -3 -66.5t-6 -71.5t-6 -107.5t-3 -178.5v-252q53 47 114.5 69.5t114.5 22.5q219 0 347 -122.5t128 -344.5q0 -121 -31.5 -204.5t-80 -141t-107.5 -90.5 t-114.5 -49t-101.5 -20.5t-67 -4.5q-68 0 -121 13.5t-95 29t-73.5 28.5t-58.5 13q-12 0 -26.5 -10t-26.5 -22.5t-22.5 -22.5t-12.5 -10q-4 0 -19.5 4t-15.5 10q0 8 1 25.5t3.5 40t3.5 47t1 43.5v1079q0 49 -4.5 80t-18.5 47t-41 23.5t-70 11.5q-14 0 -14 29zM412 322 q0 -135 46 -205t150 -70q31 0 67 13.5t66.5 55.5t51 116.5t20.5 197.5q0 61 -5 136t-26.5 139.5t-64.5 108.5t-119 44q-84 0 -135 -56.5t-51 -135.5v-344z" />
<glyph unicode="c" horiz-adv-x="985" d="M59 459q0 113 41 204t114 155.5t169 98t207 33.5q121 0 192.5 -25.5t110.5 -59.5t50 -68.5t11 -53.5q0 -53 -31.5 -86.5t-84.5 -33.5t-80 18t-39 47t-16.5 61.5t-13.5 61.5t-30.5 47.5t-66.5 18.5q-72 0 -118 -40t-73.5 -98.5t-39 -127t-11.5 -124.5q0 -74 20.5 -140 t60.5 -117.5t100.5 -81t140.5 -29.5q55 0 98 18.5t75 40t51.5 40t25.5 18.5q10 0 25.5 -13.5t15.5 -23.5q0 -4 -27 -39t-80 -77t-132 -76t-183 -34q-106 0 -195.5 37t-153 101.5t-98.5 153.5t-35 194z" />
<glyph unicode="d" horiz-adv-x="1175" d="M59 442q0 92 36 183.5t97.5 164t146.5 116.5t183 44q63 0 125 -12t117 -45v348q0 49 -4 80t-18.5 47t-41 23.5t-69.5 11.5q-14 0 -15 29q0 10 3.5 17t13.5 11t30.5 8.5t55.5 8.5q57 6 109.5 19t93.5 26.5t67.5 22.5t32.5 9q4 0 12 -5t8 -15q0 -37 -3 -66.5t-6 -71.5 t-6 -107.5t-3 -178.5v-909q0 -55 20.5 -71.5t85.5 -25.5q10 -2 14.5 -9t4.5 -17q0 -8 -2 -19.5t-12 -13.5q-104 -18 -171 -31.5t-106 -22.5t-56.5 -13.5t-19.5 -4.5q-4 0 -10 3.5t-6 7.5q0 10 1 35.5t3 66.5q-59 -57 -133 -85t-158 -28q-104 0 -182 37t-131 100.5t-80 149.5 t-27 182zM362 479q0 -55 10.5 -123.5t37 -129t71.5 -100.5t113 -40q72 0 121 42t49 130v410q0 57 -17.5 95t-44 58.5t-56.5 28.5t-54 8q-76 0 -121 -37t-69.5 -93t-32 -122.5t-7.5 -126.5z" />
<glyph unicode="e" horiz-adv-x="1062" d="M80 455q0 100 33.5 190t95 157.5t147.5 107.5t191 40q129 0 213 -41t135 -98t71.5 -118.5t20.5 -100.5q0 -33 -8 -39t-35 -6h-588q-2 -18 -3 -28.5t-1 -16.5q0 -63 18.5 -128t58.5 -117t103.5 -86t153.5 -34q76 0 124 22.5t78 48t44 48.5t24 23q14 0 27.5 -7.5 t13.5 -23.5q0 -10 -21.5 -54t-71.5 -93.5t-133 -88.5t-208 -39q-147 0 -240.5 52.5t-147.5 128t-74.5 157.5t-20.5 144zM362 627q82 -6 164 -6q61 0 97 3t54.5 11t24 22.5t5.5 36.5q0 78 -42 130.5t-124 52.5q-45 0 -79 -25t-55.5 -61.5t-33 -80.5t-11.5 -83z" />
<glyph unicode="f" horiz-adv-x="681" d="M20 836q0 8 18.5 14t44.5 12t52.5 15.5t40.5 27.5q10 12 23 119q18 158 82.5 257t146.5 154.5t163 76t130 20.5q27 0 59.5 -6t60 -20.5t46 -38t18.5 -58.5q0 -55 -34.5 -86t-88.5 -31q-45 0 -74.5 19.5t-52.5 44.5q-23 23 -44 42t-50 19q-57 0 -82.5 -75.5t-25.5 -190.5 v-260h258q6 0 10 -12.5t4 -47.5q0 -37 -5 -43t-28 -6h-239v-630q0 -29 8 -45.5t18 -23.5t19.5 -9t13.5 -2q80 -4 100.5 -9.5t20.5 -17.5q0 -29 -8.5 -38t-44.5 -9q-61 0 -126 2t-132 2q-66 0 -130.5 -2t-125.5 -2q-14 0 -16.5 9t-2.5 38q0 12 14.5 17.5t71.5 9.5q4 0 13.5 2 t19.5 9t18.5 23.5t8.5 45.5v481q0 88 -4.5 118.5t-30.5 30.5h-97q-29 0 -35 10.5t-6 43.5z" />
<glyph unicode="g" d="M66 -362q0 43 15 81.5t39.5 72.5t56.5 63.5t63 54.5q-53 16 -86 56t-33 100q0 39 15.5 75.5t41 69.5t57 59.5t62.5 46.5q-86 37 -132 104.5t-46 164.5q0 88 34.5 156.5t92 114.5t133.5 69.5t158 23.5q72 0 151.5 -20.5t136.5 -67.5q55 35 99.5 55.5t111.5 20.5 q23 0 47.5 -6t46 -19.5t35 -33t13.5 -43.5q0 -41 -20.5 -67t-63.5 -26q-29 0 -52.5 14.5t-37.5 35.5q-14 23 -27.5 38t-28.5 15q-39 0 -74 -31q33 -39 52.5 -89t19.5 -103q0 -90 -33.5 -156t-91 -109t-133.5 -63.5t-158 -20.5q-37 0 -84 6.5t-81 18.5q-23 -20 -49.5 -48 t-26.5 -61q0 -27 13 -41t30.5 -20t36 -7t30.5 -1h265q72 0 137 -7.5t116.5 -34t81 -77.5t29.5 -139q0 -53 -24.5 -125t-98.5 -137.5t-208 -111.5t-351 -46q-47 0 -97 12.5t-91 36t-66.5 60t-25.5 86.5zM221 -281q0 -55 34 -88.5t83 -52t103.5 -25t95.5 -6.5q47 0 103 7.5 t104.5 29t81 60.5t32.5 100q0 55 -23.5 85t-61.5 43t-85 16t-92 3h-264q-8 0 -25.5 -11t-36 -33.5t-34 -54.5t-15.5 -73zM385 612q0 -41 3 -86t18.5 -82.5t46 -62.5t84.5 -25q49 0 77.5 27t43 66.5t18.5 85t4 81.5q0 37 -3 81t-17.5 82t-43 63.5t-77.5 25.5t-79 -26.5 t-46.5 -64.5t-22.5 -83t-6 -82z" />
<glyph unicode="h" horiz-adv-x="1214" d="M23 1432q0 10 3 17t13 11t30.5 8.5t55.5 8.5q57 6 109.5 19t93.5 26.5t67.5 22.5t32.5 9q4 0 12.5 -5t8.5 -15q0 -37 -3.5 -66.5t-6.5 -71.5t-6 -107.5t-3 -178.5v-313q88 61 175 101t181 40q113 0 187 -71.5t74 -194.5v-520q0 -29 8 -45.5t18 -23.5t19.5 -9t13.5 -2 q57 -4 81.5 -10t24.5 -17q0 -29 -5 -38t-33 -9q-61 0 -126 2t-133 2q-66 0 -127 -2t-108 -2q-14 0 -16 9t-2 38q0 12 12 17.5t53 9.5q4 0 13.5 2t19.5 9t18 23.5t8 45.5v454q0 25 -7 56.5t-26.5 61.5t-53 49.5t-85.5 19.5q-18 0 -43.5 -6.5t-52 -16.5t-49.5 -24.5t-35 -28.5 q-4 -16 -4 -40v-46v-479q0 -29 8 -45.5t18.5 -23.5t19.5 -9t13 -2q57 -4 71.5 -10t14.5 -17q0 -29 -2 -38t-16 -9q-61 0 -125.5 2t-132.5 2q-66 0 -130.5 -2t-125.5 -2q-14 0 -16 9t-2 38q0 12 14 17.5t72 9.5q4 0 13 2t19.5 9t18.5 23.5t8 45.5v1089q0 49 -4 80t-18.5 47 t-41 23.5t-69.5 11.5q-14 0 -14 29z" />
<glyph unicode="i" horiz-adv-x="606" d="M27 45q0 12 14 17.5t72 9.5q4 0 13 2t19.5 9t18.5 23.5t8 45.5v475q0 47 -6 75.5t-20.5 45t-38 24.5t-58.5 16q-14 4 -17 10.5t-3 20.5q0 20 10 25q106 18 178 41.5t115 43t62.5 33t23.5 13.5q10 0 17 -9.5t7 -19.5q0 -12 -5 -90t-5 -225v-479q0 -29 8.5 -45.5 t18.5 -23.5t19 -9t14 -2q57 -4 71.5 -10t14.5 -17q0 -29 -2.5 -38t-16.5 -9q-61 0 -125.5 2t-132.5 2q-66 0 -130.5 -2t-125.5 -2q-14 0 -16 9t-2 38zM147 1319q0 63 44.5 107t107.5 44t107.5 -44t44.5 -107t-44.5 -107.5t-107.5 -44.5t-107.5 44.5t-44.5 107.5z" />
<glyph unicode="j" horiz-adv-x="606" d="M-33 -508q0 10 22.5 24.5t59.5 51.5q39 39 63.5 84t38 101.5t17.5 127t4 160.5v586q0 47 -6 75.5t-20.5 45t-38 24.5t-58.5 16q-14 4 -17 10.5t-3 20.5q0 20 10 25q106 18 178 41.5t115 43t62.5 33t23.5 13.5q10 0 17 -9.5t7 -19.5q0 -12 -5 -90t-5 -225v-627 q0 -33 -3 -69.5t-20.5 -82t-52 -98.5t-98.5 -116q-35 -35 -77 -70t-78.5 -62.5t-65.5 -45t-39 -17.5t-20.5 20.5t-10.5 28.5zM147 1319q0 63 44.5 107t107.5 44t107.5 -44t44.5 -107t-44.5 -107.5t-107.5 -44.5t-107.5 44.5t-44.5 107.5z" />
<glyph unicode="k" d="M25 1432q0 10 3 17t13 11t30.5 8.5t55.5 8.5q57 6 109.5 19t93.5 26.5t67.5 22.5t32.5 9q4 0 12.5 -5t8.5 -15q0 -37 -3.5 -66.5t-6.5 -71.5t-6 -107.5t-3 -178.5v-623q31 0 54.5 15.5t45.5 38.5l175 170q4 4 14 13t19.5 19.5t16.5 22.5t7 25q0 12 -11.5 27.5t-68.5 15.5 q-35 0 -41 14t-6 31q0 10 4 19t16 9q53 0 106.5 -3t106.5 -3t106.5 3t106.5 3q10 0 12.5 -9t2.5 -17q0 -14 -2 -30.5t-17 -16.5q-33 0 -63.5 -6.5t-65.5 -24t-74.5 -49t-89.5 -80.5q-6 -6 -26.5 -25.5t-44 -41t-41 -41t-17.5 -23.5q0 -2 28 -36t69 -83t90 -105.5t92 -105.5 t74.5 -83t40.5 -38q16 -8 28.5 -12t24.5 -6t26.5 -2h34.5q10 0 12.5 -16.5t2.5 -26.5q0 -14 -2 -22.5t-13 -8.5q-63 0 -122.5 2t-112.5 2q-29 0 -75 -1t-89 -1t-76 -1l-33 -1q-20 0 -20 35q0 14 6 26.5t37 12.5q25 0 34 4t9 10q0 14 -8 25.5t-25 29.5l-160 195 q-27 31 -45 54.5t-53 23.5v-262q0 -29 8.5 -45.5t18.5 -23.5t19 -9t14 -2q57 -4 71.5 -9.5t14.5 -17.5q0 -29 -2.5 -38t-16.5 -9q-61 0 -125.5 2t-132.5 2q-66 0 -130.5 -2t-125.5 -2q-14 0 -16 9t-2 38q0 12 14 17.5t72 9.5q4 0 13 2t19.5 9t18.5 23.5t8 45.5v1089 q0 49 -4 80t-18.5 47t-41 23.5t-69.5 11.5q-14 0 -14 29z" />
<glyph unicode="l" horiz-adv-x="606" d="M25 1432q0 10 3 17t13 11t30.5 8.5t55.5 8.5q57 6 109.5 19t93.5 26.5t67.5 22.5t32.5 9q4 0 12.5 -5t8.5 -15q0 -37 -3.5 -66.5t-6.5 -71.5t-6 -107.5t-3 -178.5v-958q0 -29 8.5 -45.5t18.5 -23.5t19 -9t14 -2q57 -4 71.5 -10t14.5 -17q0 -29 -2.5 -38t-16.5 -9 q-61 0 -125.5 2t-132.5 2q-66 0 -130.5 -2t-125.5 -2q-14 0 -16 9t-2 38q0 12 14 17.5t72 9.5q4 0 13 2t19.5 9t18.5 23.5t8 45.5v1089q0 49 -4 80t-18.5 47t-41 23.5t-69.5 11.5q-14 0 -14 29z" />
<glyph unicode="m" horiz-adv-x="1820" d="M25 45q0 12 14 17.5t72 9.5q4 0 13 2t19.5 9t18.5 23.5t8 45.5v475q0 47 -6 75.5t-20.5 45t-38 24.5t-58.5 16q-14 4 -17 10.5t-3 20.5q0 20 10 25q106 18 178 41.5t115 43t62.5 33t23.5 13.5q2 0 9 -5t7 -14q0 -39 -3 -79.5t-3 -81.5q90 61 181 102t196 41q78 0 137 -37 t90 -108q78 57 167 101t194 44q113 0 186.5 -71.5t73.5 -194.5v-520q0 -29 8 -45.5t18.5 -23.5t19.5 -9t13 -2q57 -4 82 -10t25 -17q0 -29 -5.5 -38t-33.5 -9q-61 0 -126 2t-132 2q-66 0 -127.5 -2t-108.5 -2q-14 0 -16 9t-2 38q0 12 12 17.5t53 9.5q4 0 13.5 2t19.5 9 t18.5 23.5t8.5 45.5v454q0 25 -7.5 56.5t-27 61.5t-53 49.5t-84.5 19.5q-37 0 -68 -10.5t-54.5 -24t-38 -25.5t-14.5 -14q-4 -16 -4 -26.5v-20.5v-520q0 -29 8.5 -45.5t18.5 -23.5t19.5 -9t13.5 -2q57 -4 71.5 -10t14.5 -17q0 -29 -2 -38t-17 -9q-61 0 -125.5 2t-132.5 2 q-66 0 -127 -2t-108 -2q-14 0 -16.5 9t-2.5 38q0 12 12.5 17.5t53.5 9.5q4 0 13 2t19.5 9t18.5 23.5t8 45.5v454q0 25 -7 56.5t-26.5 61.5t-53.5 49.5t-85 19.5q-37 0 -67.5 -10.5t-54 -24t-38 -25.5t-14.5 -14q-4 -16 -4 -26.5v-20.5v-520q0 -29 8 -45.5t18.5 -23.5 t19.5 -9t13 -2q57 -4 71.5 -10t14.5 -17q0 -29 -2 -38t-16 -9q-61 0 -125.5 2t-132.5 2q-66 0 -130.5 -2t-125.5 -2q-14 0 -16 9t-2 38z" />
<glyph unicode="n" horiz-adv-x="1214" d="M25 45q0 12 14 17.5t72 9.5q4 0 13 2t19.5 9t18.5 23.5t8 45.5v475q0 47 -6 75.5t-20.5 45t-38 24.5t-58.5 16q-14 4 -17 10.5t-3 20.5q0 20 10 25q106 18 178 41.5t115 43t62.5 33t23.5 13.5q2 0 9 -5t7 -14q0 -39 -3 -79.5t-3 -81.5q92 63 179 103t181 40 q113 0 187 -71.5t74 -194.5v-520q0 -29 8 -45.5t18 -23.5t19.5 -9t13.5 -2q57 -4 81.5 -10t24.5 -17q0 -29 -5 -38t-33 -9q-61 0 -126 2t-133 2q-66 0 -127 -2t-108 -2q-14 0 -16 9t-2 38q0 12 12 17.5t53 9.5q4 0 13.5 2t19.5 9t18 23.5t8 45.5v454q0 25 -7 56.5 t-26.5 61.5t-53 49.5t-85.5 19.5q-18 0 -43.5 -6.5t-52 -16.5t-49.5 -24.5t-35 -28.5q-4 -16 -4 -40v-46v-479q0 -29 8 -45.5t18.5 -23.5t19.5 -9t13 -2q57 -4 71.5 -10t14.5 -17q0 -29 -2 -38t-16 -9q-61 0 -125.5 2t-132.5 2q-66 0 -130.5 -2t-125.5 -2q-14 0 -16 9t-2 38 z" />
<glyph unicode="o" horiz-adv-x="1175" d="M59 463q0 141 56.5 235.5t138.5 149.5t173 78.5t161 23.5t161 -23.5t173 -78.5t138 -149.5t56 -235.5t-56 -235.5t-138 -151t-173 -80t-161 -23.5t-161 23.5t-173 80t-138.5 151t-56.5 235.5zM362 461q0 -68 7.5 -140.5t31 -134t67.5 -100.5t120 -39t120 39t67.5 100.5 t30.5 135t7 141.5t-7 140.5t-30.5 134t-67.5 100.5t-120 39t-120 -39t-67.5 -100.5t-31 -135.5t-7.5 -141z" />
<glyph unicode="p" horiz-adv-x="1175" d="M6 -481q0 12 14.5 17t71.5 9q4 0 13.5 2t19.5 9.5t18.5 24t8.5 44.5v1051q0 31 -6.5 49t-21.5 29.5t-41 18.5t-67 13q-4 0 -4 27q0 16 4 22.5t21 10.5q178 47 265 88t97 41q8 0 13.5 -4t5.5 -8q0 -39 -4 -76t-4 -76q63 47 131.5 87t150.5 40q100 0 171 -28.5t118 -73.5 t73.5 -99.5t41 -104.5t17.5 -91t3 -58q0 -154 -43 -253t-108.5 -155.5t-147.5 -79t-158 -22.5q-61 0 -121.5 7.5t-125.5 23.5v-379q0 -29 8 -45t18.5 -23.5t19.5 -9.5t13 -2q57 -4 83 -9t34 -17q0 -29 -3 -38t-26 -9q-78 0 -144.5 2t-133.5 2q-66 0 -130.5 -2t-125.5 -2 q-14 0 -16.5 9t-2.5 38zM412 242q0 -102 51 -148.5t143 -46.5q61 0 101.5 26.5t64 69.5t32.5 95.5t9 105.5q0 70 -4 152t-24.5 152.5t-64.5 118.5t-124 48q-82 0 -133 -49t-51 -152v-372z" />
<glyph unicode="q" horiz-adv-x="1175" d="M59 457q2 104 39 194t101.5 156.5t152.5 104.5t191 38q68 0 126 -9t103 -19.5t76 -19.5t45 -9q25 0 42 9t31.5 19.5t28 19.5t25.5 9q8 0 12 -6t4 -29q0 -27 -6 -58.5t-6 -70.5v-1161q0 -29 8 -45t18.5 -23.5t19.5 -9.5t13 -2q57 -4 71.5 -9t14.5 -17q0 -29 -2 -38t-16 -9 q-61 0 -125.5 2t-130.5 2q-68 0 -134.5 -2t-144.5 -2q-23 0 -25.5 9t-2.5 38q8 12 33.5 17t83.5 9q4 0 13 2t19.5 9.5t18.5 24t8 44.5v391q-66 -14 -134.5 -28.5t-121.5 -14.5q-104 0 -178 27t-124 71t-79 97t-44 107.5t-19.5 102.5t-4.5 79zM362 475q0 -66 12.5 -138.5 t42 -133t82 -99t132.5 -38.5q35 0 68.5 6t64.5 26v547q0 18 -8 57t-32 78t-66 68t-109 29q-43 0 -77 -18.5t-58.5 -63.5t-38 -123t-13.5 -197z" />
<glyph unicode="r" horiz-adv-x="872" d="M47 45q0 12 14.5 17.5t71.5 9.5q4 0 13.5 2t19.5 9t18.5 23.5t8.5 45.5v475q0 47 -6.5 75.5t-20.5 45t-38 24.5t-58 16q-14 4 -17.5 10.5t-3.5 20.5q0 20 10 25q106 18 178 41.5t115 43t62.5 33t23.5 13.5q2 0 9.5 -5t7.5 -14q0 -39 -3 -83t-3 -99q31 29 64.5 60.5 t71.5 57.5t79 42t86 16q55 0 101 -36.5t46 -96.5q0 -53 -30.5 -92t-88.5 -39q-45 0 -69.5 14.5t-43 33t-35 32.5t-42.5 14q-23 0 -45.5 -13t-41 -29.5t-30.5 -34t-18 -25.5v-526q0 -29 8 -45.5t18 -23.5t19.5 -9t13.5 -2q80 -4 100.5 -10t20.5 -17q0 -29 -8.5 -38t-44.5 -9 q-61 0 -126 2t-132 2q-66 0 -130.5 -2t-125.5 -2q-14 0 -16.5 9t-2.5 38z" />
<glyph unicode="s" horiz-adv-x="872" d="M63 250q0 6 27 6q10 0 22.5 -2t16.5 -6q45 -72 81 -111t66.5 -57.5t60.5 -21.5t64 -3q6 0 31 3t50.5 18.5t46 44.5t20.5 82q0 51 -34 79.5t-86 50t-111.5 41t-111.5 51.5t-86 83t-34 133q0 74 33 132t86 97t118.5 59.5t133.5 20.5q90 0 167.5 -13t112.5 -17q4 0 8.5 -6.5 t4.5 -10.5q0 -23 5 -58.5t11 -71.5t11 -63.5t5 -31.5q0 -16 -12 -16q-16 0 -33.5 1t-21.5 9q-18 33 -41 67.5t-52.5 63t-65.5 47t-79 18.5q-59 0 -105 -35.5t-46 -101.5q0 -35 15 -59.5t52 -48t99.5 -48t156.5 -57.5q74 -27 117 -91.5t43 -141.5q0 -82 -35 -141.5t-91 -97.5 t-127 -55.5t-142 -17.5q-59 0 -125 9.5t-164 9.5q-4 0 -12.5 5t-8.5 9q0 25 -6 60.5t-14 71.5t-14.5 67t-6.5 45z" />
<glyph unicode="t" horiz-adv-x="757" d="M33 815q0 16 2 20.5t6 8.5q133 82 208 150.5t122 131.5q4 4 10 5.5t33 1.5q14 0 21 -3.5t7 -17.5q0 -53 -4 -107.5t-6 -113.5h322q6 0 10 -12.5t4 -47.5q0 -37 -5 -43t-28 -6h-303v-458q0 -37 3 -79t18.5 -76t45 -56.5t83.5 -22.5q29 0 55.5 7t48 16.5t35.5 16.5t16 7 q10 0 19.5 -16.5t9.5 -26.5q0 -6 -20.5 -25.5t-60.5 -41t-96.5 -38t-127.5 -16.5q-135 0 -212 58.5t-77 169.5v581h-119q-16 0 -18 8.5t-2 24.5z" />
<glyph unicode="u" horiz-adv-x="1214" d="M16 862q0 8 2 19.5t13 11.5q98 2 197.5 6t205.5 8v-532q0 -123 35 -189.5t145 -66.5q16 0 44 6t55.5 16.5t47 25.5t19.5 34v454q0 66 -9 101t-27.5 51t-44 19t-58.5 3q-14 0 -16 6.5t-2 26.5q0 8 2 19.5t12 11.5q98 2 198.5 6t215.5 8q-4 -86 -7.5 -163.5t-3.5 -133.5 v-430q0 -37 9.5 -53t50.5 -16q16 0 29.5 2t29.5 2q8 0 13.5 -3t5.5 -24q0 -25 -3.5 -33t-19.5 -10q-63 -6 -123.5 -18.5t-109.5 -22.5q-47 -12 -81 -21.5t-44 -9.5q-8 0 -16.5 9.5t-8.5 42.5q0 10 2 28.5t2 46.5q-63 -51 -145 -89t-166 -38q-109 0 -168 37t-87 96.5t-32 135 t-4 153.5v260q0 66 -9 101t-27.5 51t-44 19t-58.5 3q-14 0 -16.5 6.5t-2.5 26.5z" />
<glyph unicode="v" horiz-adv-x="985" d="M-41 870q0 14 6 25.5t17 11.5q63 0 125.5 -3t125.5 -3q66 0 133.5 3t139.5 3q16 0 16 -35q0 -18 -10 -28t-53 -10q-12 0 -38 -12.5t-26 -41.5q0 -25 25.5 -93.5t57.5 -146t63.5 -145t44.5 -90.5q10 27 41.5 95.5t65.5 144.5t59.5 140.5t25.5 82.5q0 66 -106 66 q-27 0 -33 9t-6 27q0 14 3 25.5t13 11.5q41 0 88 -3t94 -3q45 0 90.5 3t90.5 3q16 0 16 -22q0 -23 -2 -37t-14 -14q-41 0 -70 -7.5t-45 -42.5q-35 -78 -85 -185t-102.5 -218t-101.5 -210t-82 -161q-10 -20 -21 -30.5t-34 -10.5q-29 0 -48.5 47t-53.5 125l-254 588 q-16 37 -28.5 57.5t-27 31.5t-34 13.5t-45.5 2.5q-10 0 -15.5 11t-5.5 25z" />
<glyph unicode="w" horiz-adv-x="1554" d="M-23 870q0 14 6.5 25.5t16.5 11.5q29 0 91.5 -3t146.5 -3q59 0 100 1t69.5 2t50 2t44.5 1q16 0 19 -11t3 -24q0 -12 -7 -25t-30 -13q-29 0 -53 -7.5t-24 -48.5q0 -18 20.5 -73.5t50 -125t61 -143.5t54.5 -131q6 18 32.5 69.5t54.5 110t50.5 108.5t22.5 64q0 16 -7.5 46 t-18.5 59t-27.5 50.5t-34.5 21.5q-43 0 -51.5 11t-8.5 25t5 25.5t16 11.5q29 0 72.5 -3t140.5 -3q49 0 86 1t63.5 2t46 2t35.5 1t20.5 -7t4.5 -28q0 -12 -4 -25t-23 -13q-33 0 -59.5 -5.5t-26.5 -40.5q0 -23 21.5 -85t49 -135.5t54.5 -144.5t37 -106h4q10 33 40 98.5 t60.5 137.5t54 134.5t23.5 90.5q0 33 -17.5 41t-60.5 15q-31 4 -36 13t-5 23q0 37 19 37q25 0 59.5 -3t85.5 -3q70 0 111 3t61 3q23 0 27 -6t4 -29q0 -12 -9 -25t-52 -13q-10 0 -21.5 -2.5t-25 -13.5t-30 -34.5t-34.5 -66.5l-315 -711q-10 -27 -22.5 -32t-31.5 -5 q-16 0 -32.5 22.5t-28.5 57.5l-174 496q-4 -10 -21.5 -47t-42 -89.5t-54.5 -112.5t-57.5 -116.5t-51 -100.5t-35.5 -65q-20 -31 -29.5 -38t-30.5 -7q-10 0 -23.5 19.5t-27.5 48.5t-28.5 61.5t-24.5 59.5l-262 620q-16 37 -42 46.5t-55 9.5q-23 0 -31 10t-8 26z" />
<glyph unicode="x" horiz-adv-x="985" d="M-16 33q0 20 11 27.5t62 11.5q20 2 38 15t28 28l246 293l-258 393q-10 16 -33 22t-70 11q-10 2 -12 17t-2 23q0 10 3 21.5t15 11.5q10 0 25.5 -1t42 -2t68.5 -2t104 -1q104 0 159.5 3t80.5 3q12 0 14 -12t2 -23q0 -8 -3 -23t-13 -15q-35 0 -52.5 -6.5t-17.5 -24.5 q0 -10 18.5 -43t41 -70t45 -69.5t28.5 -45.5q12 14 36.5 45t48.5 65t42 64.5t18 47.5q0 14 -8 21t-20.5 10t-23.5 4.5t-17 1.5q-16 0 -20.5 14t-4.5 24q0 23 5 29t28 6q16 0 51 -3t98 -3t106.5 3t59.5 3q14 0 16.5 -10t2.5 -29q0 -12 -2 -23t-17 -11q-20 0 -42.5 -4.5 t-50 -20.5t-60.5 -48t-72 -85l-125 -170l242 -363q23 -35 48.5 -53t92.5 -18q6 0 11.5 -6.5t5.5 -34.5q0 -23 -4.5 -28t-12.5 -5q-70 0 -138.5 2t-137.5 2q-63 0 -125 -2t-121 -2q-10 0 -13 13.5t-3 21.5q0 23 15 31t68 8q16 0 22.5 9t6.5 21t-19.5 46t-45 73t-49 74 t-31.5 49q-59 -72 -93 -115t-51.5 -67.5t-22.5 -37.5t-5 -26q0 -20 9 -23t26 -3q49 0 56 -15.5t7 -27.5q0 -16 -3 -23.5t-20 -7.5q-37 0 -74.5 2t-74.5 2q-41 0 -83 -2t-83 -2q-14 0 -17 9t-3 26z" />
<glyph unicode="y" horiz-adv-x="1024" d="M-41 870q0 12 4 24.5t31 12.5q10 0 25.5 -1t41 -2t65.5 -2t97 -1q72 0 119 1t77 2t47 2t30 1q16 0 18 -12t2 -25q0 -16 -4 -26t-33 -10q-8 0 -21.5 -2.5t-26.5 -7.5t-22.5 -15t-9.5 -25q0 -29 12.5 -74.5t31 -100t40 -111t43 -107.5t39 -91t25.5 -58q18 37 55 112.5 t74 158.5t65.5 155.5t28.5 105.5q0 25 -12.5 42.5t-71.5 17.5q-27 0 -41 2t-20 7t-7.5 12t-1.5 19q0 20 5.5 26.5t27.5 6.5q18 0 55 -3t117 -3q86 0 121 3t57 3q18 0 21.5 -11t3.5 -26q0 -8 -7 -22t-44 -14q-23 0 -41.5 -12.5t-33.5 -32t-28.5 -44t-23.5 -47.5l-426 -940 q-27 -57 -52.5 -113.5t-57 -101.5t-72.5 -72.5t-99 -27.5q-49 0 -90 34t-41 87t35 91t88 38q27 0 45.5 -8.5t33.5 -17.5t26.5 -17t21.5 -8q16 0 37.5 37.5t42 86t34 90.5t13.5 52q0 25 -11 59.5t-25.5 72.5t-31 71.5t-24.5 54.5q-49 109 -90 214t-73 192t-52.5 145.5 t-26.5 70.5t-12 21.5t-16.5 14.5t-28 7.5t-45.5 2.5q-25 0 -29 11t-4 25z" />
<glyph unicode="z" horiz-adv-x="1024" d="M63 14q0 12 34 70.5t86.5 140.5t114.5 175.5t118.5 179.5t100.5 150.5t61 88.5h-197q-80 0 -129 -33.5t-92 -111.5q-12 -23 -25.5 -27t-30.5 -4q-29 0 -28 19q0 8 4 23t11 47t17.5 81t22.5 125q2 6 7 9t30 3q10 0 13 -7t14 -17q10 -10 27.5 -17.5t51.5 -7.5h336 q29 0 67 2t79 4q41 4 81 5t70 1q12 0 21.5 -1t9.5 -11q0 -16 -34 -60t-101.5 -137.5t-167.5 -244t-236 -377.5h207q70 0 111 3t69.5 21.5t54 59.5t66.5 117q12 23 22.5 27.5t28.5 4.5q14 0 24.5 -4t10.5 -16q0 -4 -11 -44t-24.5 -89t-26.5 -94t-18 -60q0 -4 -17 -6t-38 -2 h-758q-10 0 -23.5 3t-13.5 11z" />
<glyph unicode="{" horiz-adv-x="720" d="M49 526q0 20 25.5 29.5t60.5 26.5q33 14 64.5 66t31.5 138v351q0 100 24 162.5t76 98.5t134 49t201 13q16 0 23 -5t7 -36q0 -25 -7 -29t-23 -4q-104 0 -147.5 -41.5t-43.5 -150.5v-342q0 -127 -46 -210t-142 -112v-8q96 -29 142 -111.5t46 -209.5v-342q0 -109 43 -151 t148 -42q16 0 23 -4t7 -29q0 -31 -7 -36t-23 -5q-119 0 -201 13.5t-134 49.5t-76 98.5t-24 162.5v350q0 86 -31.5 138.5t-64.5 66.5q-35 16 -60.5 25.5t-25.5 29.5z" />
<glyph unicode="|" d="M473 0v1452h191v-1452h-191z" />
<glyph unicode="}" horiz-adv-x="720" d="M25 -367q0 25 7 29t23 4q104 0 147.5 42t43.5 151v342q0 127 46 210t142 111v8q-96 29 -142 112t-46 210v342q0 109 -43 150.5t-148 41.5q-16 0 -23 4.5t-7 28.5q0 31 7 36t23 5q119 0 201 -13t134 -49t75.5 -98.5t23.5 -162.5v-351q0 -86 32 -138t65 -66 q35 -16 60.5 -26t25.5 -30t-25.5 -29.5t-60.5 -25.5q-33 -14 -65 -66.5t-32 -138.5v-350q0 -100 -23.5 -162.5t-75.5 -98.5t-134 -49.5t-201 -13.5q-16 0 -23 5.5t-7 35.5z" />
<glyph unicode="~" d="M117 393q20 37 46.5 77t59.5 71.5t73 52t89 20.5t101.5 -18t102.5 -41t95 -41t76 -18q29 0 49 13t37.5 33.5t31 45t27.5 47.5l117 -137q-25 -37 -49.5 -74t-55 -66.5t-68.5 -49t-87 -19.5q-45 0 -84 13t-80 30l-72 30q-31 12 -67.5 29t-71.5 17q-31 0 -54.5 -14.5 t-41 -36t-31.5 -45t-29 -44.5z" />
<glyph unicode="&#xa1;" horiz-adv-x="681" d="M176 786q0 68 47 116t117 48t117 -48t47 -116t-47 -115.5t-117 -47.5t-117 48t-47 115zM188 -442q0 23 6.5 86t16.5 148t22.5 181.5t24.5 184.5t21.5 158.5t15.5 105.5q2 10 15.5 14t29.5 4t29.5 -4t15.5 -14q4 -35 14.5 -105.5t22.5 -158.5t24.5 -184.5t22.5 -181.5 t16.5 -148.5t6.5 -85.5q0 -39 -15.5 -61.5t-56.5 -22.5h-164q-37 0 -52.5 22.5t-15.5 61.5z" />
<glyph unicode="&#xa2;" d="M109 459q0 113 43 204t116.5 155.5t173 98t209.5 33.5q43 0 80 -6q14 47 23.5 77t14.5 46t8 24.5t7 14.5q8 10 21 10q14 0 40.5 -10t26.5 -31q0 -4 -6 -19.5t-14 -37t-18.5 -45t-16.5 -41.5q74 -16 118 -42t65.5 -53.5t27.5 -53t6 -40.5q0 -53 -31.5 -86.5t-91.5 -33.5 q-49 0 -76.5 15t-41 38.5t-17.5 49.5t-10 46h-4l-203 -604q72 -49 174 -49q61 0 108.5 18.5t81 40t53 40t25.5 18.5q10 0 25.5 -13.5t15.5 -23.5q0 -4 -26.5 -39t-81.5 -77t-138 -76t-194 -34q-29 0 -54.5 3.5t-51.5 7.5q-12 -29 -22.5 -62t-20 -60.5t-16.5 -46t-11 -18.5 q-8 0 -21.5 4t-25.5 9.5t-21.5 11.5t-9.5 10q0 10 9.5 36t20.5 54.5t21.5 53t14.5 32.5q-147 51 -226 171t-79 280zM412 487q0 -74 20.5 -140t61.5 -118l213 639q-8 2 -21.5 5.5t-30.5 3.5q-72 0 -119 -40t-74.5 -98.5t-38.5 -127t-11 -124.5z" />
<glyph unicode="&#xa3;" d="M-4 168q0 82 47 132t133 50q59 0 110.5 -17.5t104.5 -43.5q18 63 19 129q0 51 -15.5 101t-38.5 95h-278q-10 0 -12.5 13.5t-2.5 38.5q0 27 2.5 45t12.5 18h213q-25 37 -52.5 76t-49 81t-36 89t-14.5 100q0 96 44 168t115 120t159 72.5t178 24.5q106 0 185 -29.5 t131.5 -75.5t77 -100.5t24.5 -103.5q0 -86 -38 -137t-120 -51q-45 0 -83 30.5t-38 83.5q0 27 12.5 48.5t27.5 41t27.5 40t12.5 44.5q0 33 -21.5 56.5t-52 39t-66.5 23.5t-63 8q-47 0 -91 -14t-77.5 -41t-53 -68t-19.5 -92q0 -55 23.5 -109.5t55 -109.5t62.5 -109.5 t45 -105.5h324q18 0 21 -9t3 -44q0 -37 -4 -49.5t-14 -12.5h-312q0 -100 -26.5 -192t-81.5 -172q51 -23 121.5 -39t126.5 -16q106 0 178 55t123 172q6 14 9 33.5t13 19.5q18 0 41 -9t23 -15q0 -14 -8.5 -48t-21.5 -76t-30.5 -86t-33.5 -75q-47 -88 -124 -141.5t-182 -53.5 q-94 0 -181 36t-163 89q-35 -43 -92 -78.5t-115 -35.5q-86 0 -140 47t-54 139zM88 168q0 -43 27.5 -68.5t68.5 -25.5q43 0 77 25.5t61 56.5q-27 31 -71 60.5t-85 29.5q-37 0 -57.5 -21.5t-20.5 -56.5z" />
<glyph unicode="&#xa4;" d="M51 338l90 90q-41 66 -63.5 125t-22.5 139q0 74 22.5 138.5t63.5 127.5l-90 89l162 163l90 -90q59 35 128 56.5t136 21.5q150 0 275 -78l90 90l158 -163l-91 -89q41 -61 64.5 -126.5t23.5 -139.5q0 -70 -22.5 -138.5t-65.5 -125.5l91 -90l-158 -162l-90 90 q-61 -37 -127 -58.5t-137 -21.5q-152 0 -275 80l-90 -90zM315 692q0 -141 71 -220t185 -79q115 0 185.5 80t70.5 219q0 141 -70.5 220t-185.5 79t-185.5 -78.5t-70.5 -220.5z" />
<glyph unicode="&#xa5;" d="M6 1425q0 10 4 22.5t29 12.5q86 0 178 -4t156 -4q63 0 126.5 4t98.5 4q16 0 20.5 -12t4.5 -23q0 -29 -6.5 -36t-41.5 -11q-23 -4 -52 -15t-29 -44q0 -16 24.5 -120.5t91.5 -315.5q29 -86 40.5 -118t15.5 -32q14 0 26.5 32t30.5 91q41 131 66.5 212t40 128t19.5 69.5 t5 34.5q0 35 -20.5 51.5t-67.5 26.5q-41 8 -47 20.5t-6 28.5q0 33 39 33q12 0 61 -4t109 -4q53 0 102 4t80 4q23 0 27 -10t4 -27q0 -27 -8.5 -36t-51.5 -9q-41 0 -79 -31.5t-56 -84.5l-160 -484h230v-92h-262q-10 -35 -22.5 -68.5t-12.5 -68.5h297v-92h-299v-271 q0 -35 8 -56t29.5 -32.5t60.5 -15.5t100 -4q27 0 27 -43q0 -23 -8 -31t-35 -8q-23 0 -44.5 1t-60 1t-103 1t-171.5 1q-78 0 -125 -1t-73.5 -1t-39 -1t-22.5 -1q-35 0 -42 6t-7 33q0 29 9 36t50 7q84 0 120 20.5t36 98.5v260h-299v92h295l-37 137h-258v92h231l-143 479 q-16 55 -51 87t-90 34q-43 2 -52.5 11.5t-9.5 35.5z" />
<glyph unicode="&#xa6;" d="M473 0v582h191v-582h-191zM473 870v582h191v-582h-191z" />
<glyph unicode="&#xa7;" d="M86 713q0 113 54.5 223.5t140.5 181.5q2 92 34.5 156.5t88 105.5t129 60.5t157.5 19.5q33 0 75 -6t79 -21.5t62.5 -42t25.5 -69.5q0 -45 -33 -72.5t-78 -27.5t-75.5 21.5t-58.5 47t-56.5 47t-69.5 21.5q-53 0 -86 -31t-33 -86q0 -37 13.5 -69.5t55.5 -82t122 -127 t213 -204.5q74 -72 127 -145.5t69 -178.5q29 -178 -37.5 -326.5t-193.5 -283.5q-18 -74 -62 -127t-100.5 -87t-121 -49.5t-124.5 -15.5q-33 0 -70.5 5.5t-70.5 20.5t-54.5 41t-21.5 69t37 68.5t76 25.5q45 0 79 -19.5t61.5 -44t55 -44t64.5 -19.5q18 0 38.5 10t38 29.5 t29 47t11.5 62.5q0 49 -18.5 92t-66.5 102.5t-131 145.5t-212 221q-72 74 -117 162.5t-45 192.5zM231 852q0 -70 45.5 -145.5t107.5 -147.5t128 -134.5t109 -105.5q80 -80 133 -175t59 -212q41 53 66.5 117t25.5 133q0 74 -25.5 136.5t-76.5 129t-129 144.5l-182 182 q-59 59 -112.5 125t-76.5 150q-35 -41 -53.5 -92.5t-18.5 -104.5z" />
<glyph unicode="&#xa8;" horiz-adv-x="569" d="M-59 1239q0 55 38.5 94t94.5 39q55 0 94 -39t39 -94t-39 -94t-94 -39t-94 39t-39 94zM362 1239q0 55 39 94t95 39q55 0 94 -39t39 -94t-39 -94t-94 -39t-94.5 39t-39.5 94z" />
<glyph unicode="&#xa9;" horiz-adv-x="1693" d="M76 725q0 156 57 294t160.5 240.5t245 162t307.5 59.5t308 -59.5t244.5 -162t161 -240.5t58.5 -294q0 -158 -58.5 -295t-161 -239.5t-244.5 -162t-308 -59.5t-307.5 59.5t-245 162t-160.5 239.5t-57 295zM260 725q0 -133 41 -249t118 -201t185.5 -134t241.5 -49t241.5 49 t185.5 134t119 201t42 249t-42 249t-119 201t-185.5 134t-241.5 49t-241.5 -49t-185.5 -134t-118 -201t-41 -249zM446 713q0 92 32 168.5t88.5 134t133 89.5t166.5 32q31 0 71 -5.5t80 -13.5t78 -20.5t64 -26.5v-215h-78q-6 39 -20 75t-38 63.5t-58.5 44t-79.5 16.5 q-59 0 -100.5 -24.5t-67 -66.5t-36.5 -97.5t-11 -116.5t12 -125t41 -116t75 -86t115 -34q82 0 125 38t82 89l64 -22q-41 -102 -134.5 -149.5t-195.5 -47.5q-92 0 -168 31.5t-129 88t-82 132.5t-29 164z" />
<glyph unicode="&#xaa;" horiz-adv-x="681" d="M31 1016q0 37 12 61.5t31.5 41t41 26.5t40.5 16l215 84v86q0 23 -34 45.5t-75 22.5q-27 0 -49.5 -18.5t-22.5 -34.5q0 -4 9.5 -19.5t9.5 -26.5q0 -35 -27.5 -52t-75.5 -17q-35 0 -55 16.5t-20 50.5q0 45 25.5 71t97.5 61q78 39 110.5 45t54.5 6q88 0 137.5 -16.5t71 -40 t25.5 -49t4 -44.5v-280q0 -43 27 -43q20 0 32.5 15t24.5 15q4 0 12.5 -8t8.5 -24q0 -12 -13.5 -30t-37 -35t-54.5 -28.5t-65 -11.5q-47 0 -79 20.5t-42 57.5q-35 -35 -83 -56.5t-100 -21.5q-74 0 -115.5 28.5t-41.5 86.5zM217 1042q0 -12 12.5 -27.5t49.5 -15.5q10 0 25 6.5 t30.5 15.5t26 20.5t10.5 21.5v108q-53 -16 -85 -32.5t-47.5 -31.5t-18.5 -30.5t-3 -34.5z" />
<glyph unicode="&#xab;" d="M47 483q0 18 31 37t91 54.5t148.5 96t202.5 160.5q47 41 58 41q10 0 24 -13t14 -23q0 -18 -38.5 -70.5t-90 -109t-100 -107t-68.5 -66.5q20 -16 68.5 -66t100 -106.5t90 -108.5t38.5 -71q0 -10 -14 -23.5t-24 -13.5t-58 41q-115 100 -203 160.5t-148 96.5t-91 54.5 t-31 36.5zM485 483q0 18 31 37t91.5 54.5t148.5 96t202 160.5q47 41 58 41q10 0 24.5 -13t14.5 -23q0 -18 -39 -70.5t-90.5 -109t-99.5 -107t-68 -66.5q20 -16 68 -66t99.5 -106.5t90.5 -108.5t39 -71q0 -10 -14.5 -23.5t-24.5 -13.5t-58 41q-115 100 -202.5 160.5 t-148 96.5t-91.5 54.5t-31 36.5z" />
<glyph unicode="&#xac;" d="M117 522v207h905v-520h-207v313h-698z" />
<glyph unicode="&#xad;" horiz-adv-x="872" d="M104 416v135q0 14 9.5 24.5t25.5 10.5h594q35 0 35 -41v-133q0 -25 -31 -25h-606q-27 0 -27 29z" />
<glyph unicode="&#xae;" horiz-adv-x="1693" d="M76 725q0 156 57 294t160.5 240.5t245 162t307.5 59.5t308 -59.5t244.5 -162t161 -240.5t58.5 -294q0 -158 -58.5 -295t-161 -239.5t-244.5 -162t-308 -59.5t-307.5 59.5t-245 162t-160.5 239.5t-57 295zM260 725q0 -133 41 -249t118 -201t185.5 -134t241.5 -49t241.5 49 t185.5 134t119 201t42 249t-42 249t-119 201t-185.5 134t-241.5 49t-241.5 -49t-185.5 -134t-118 -201t-41 -249zM498 344v51h14q39 0 56.5 5.5t17.5 48.5v602q0 33 -24.5 33.5t-59.5 0.5v60h325q55 0 112.5 -4t104 -24.5t76 -61.5t29.5 -115q0 -41 -16.5 -76t-43 -61.5 t-61.5 -44t-72 -23.5v-4q35 -2 64 -28.5t51.5 -63.5t42 -80t38.5 -79t40.5 -60.5t48.5 -24.5v-51h-125q-39 0 -62.5 7t-40 26.5t-31.5 52.5t-38 84q-31 68 -46 104.5t-29.5 55t-37 22.5t-69.5 4v-243q0 -23 5 -42.5t34 -19.5h43v-51h-346zM762 762q90 -14 151.5 29t61.5 137 q0 92 -57.5 130t-145.5 23q-10 -4 -10 -9v-13v-297z" />
<glyph unicode="&#xaf;" horiz-adv-x="569" d="M-8 1165v133h586v-133h-586z" />
<glyph unicode="&#xb0;" horiz-adv-x="819" d="M92 1130q0 63 23.5 119t66.5 98t101.5 66.5t126.5 24.5t125 -24.5t100 -66.5t67.5 -97.5t24.5 -119.5q0 -63 -24.5 -119.5t-67.5 -97.5t-100 -65.5t-125 -24.5t-126.5 24.5t-100.5 65.5t-66.5 97.5t-24.5 119.5zM225 1130q0 -84 53.5 -138t131.5 -54q76 0 130 54.5 t54 137.5q0 82 -54.5 137.5t-131.5 55.5q-37 0 -71 -14.5t-58.5 -41t-39 -61.5t-14.5 -76z" />
<glyph unicode="&#xb1;" d="M117 0v207h905v-207h-905zM117 485v207h348v211h207v-211h350v-207h-350v-211h-207v211h-348z" />
<glyph unicode="&#xb2;" horiz-adv-x="681" d="M33 575v80q111 111 182.5 191t114.5 139t59.5 102t16.5 80q0 61 -42 101.5t-114 40.5q-37 0 -66.5 -11.5t-50 -23.5t-33 -23.5t-14.5 -11.5q-16 0 -27.5 14.5t-11.5 24.5q0 8 20.5 33.5t59.5 53.5t94 50.5t125 22.5q55 0 105.5 -14.5t88.5 -42t59.5 -66.5t21.5 -90 q0 -49 -20.5 -95.5t-67 -100.5t-119 -123.5t-178.5 -166.5h251q20 0 37 13.5t31 30t27.5 29.5t25.5 13q6 0 18.5 -6t12.5 -22q0 -10 -11.5 -39t-24.5 -62.5t-24.5 -66.5t-13.5 -54h-532z" />
<glyph unicode="&#xb3;" horiz-adv-x="681" d="M41 647q0 41 24.5 58.5t49.5 17.5q29 0 48 -13.5t35.5 -30.5t34 -30.5t41.5 -13.5q16 0 36 7t36 23.5t27.5 46t11.5 72.5q0 98 -58.5 144.5t-158.5 58.5v70q35 12 67.5 27.5t58 36t41 45t15.5 59.5q0 45 -30.5 72.5t-94.5 27.5q-33 0 -57.5 -8t-41.5 -17.5t-28.5 -17.5 t-13.5 -8q-39 0 -39 41q0 12 24.5 32.5t63.5 41t88 35t98 14.5q119 0 178.5 -49.5t59.5 -108.5q0 -78 -51 -120t-123 -75v-4q94 -20 151.5 -76.5t57.5 -148.5q0 -82 -48 -139.5t-113.5 -94t-133.5 -54t-107 -17.5q-23 0 -48 3t-47.5 13.5t-38 28.5t-15.5 51z" />
<glyph unicode="&#xb4;" horiz-adv-x="569" d="M123 1085l289 314q14 16 40.5 34.5t49.5 18.5q43 0 73.5 -20.5t30.5 -67.5q0 -31 -15.5 -46t-37.5 -30l-326 -203h-104z" />
<glyph unicode="&#xb5;" d="M-20 862q0 8 2 19.5t12 11.5q98 2 197.5 6t205.5 8v-532q0 -123 35 -189.5t146 -66.5q16 0 43.5 6t55.5 16.5t47 25.5t19 34v454q0 66 -9 101t-27.5 51t-44 19t-58.5 3q-14 0 -16 6.5t-2 26.5q0 8 2 19.5t12 11.5q98 2 198.5 6t215.5 8q-4 -86 -7 -163.5t-3 -133.5v-430 q0 -37 9 -53t50 -16q16 0 29.5 2t29.5 2q8 0 13.5 -3t5.5 -24q0 -25 -3 -33t-20 -10q-63 -6 -123.5 -18.5t-109.5 -22.5q-47 -12 -81 -21.5t-44 -9.5q-8 0 -16.5 9.5t-8.5 42.5q0 10 2 28.5t2 46.5q-63 -51 -145 -89t-166 -38q-29 0 -46 8.5t-28 18.5q-2 -12 -7 -37.5 t-5 -97.5q0 -109 10 -172.5t22.5 -101t23 -57t10.5 -38.5q0 -41 -18.5 -47t-47.5 -6q-47 0 -90 13.5t-75 34t-51.5 44t-19.5 43.5t5.5 44t10.5 58.5t10 83t5 117.5v774q0 66 -9 101t-27.5 51t-44 19t-58.5 3q-14 0 -16 6.5t-2 26.5z" />
<glyph unicode="&#xb6;" horiz-adv-x="1529" d="M86 987q0 125 24.5 214t84 146.5t159 85t248.5 27.5q55 0 131 -4t187 -4q129 0 217 1t148.5 3t99 3t71.5 1q16 0 34.5 -4t18.5 -20q0 -39 -23.5 -48.5t-101.5 -9.5q-31 0 -50 -14t-28.5 -35.5t-12.5 -48.5t-3 -51v-1258q0 -25 3 -50t12.5 -46.5t29 -36t49.5 -14.5 q78 -2 101.5 -11.5t23.5 -48.5q0 -16 -18 -19t-35 -3q-33 0 -71.5 1t-99 3t-148.5 3t-217 1t-218.5 -1t-149.5 -3t-99 -3t-72 -1q-16 0 -34.5 3t-18.5 19q0 39 23.5 48.5t101.5 11.5q31 0 50 14.5t28.5 36t12.5 47t3 49.5v531q-88 0 -171 23.5t-147.5 81t-103.5 149.5 t-39 231zM389 813q0 -229 158 -229v794q-80 0 -119 -60.5t-39 -189.5v-315zM823 -176h191v1554h-191v-1554z" />
<glyph unicode="&#xb7;" horiz-adv-x="569" d="M121 453q0 68 47 115.5t117 47.5t117 -47.5t47 -115.5t-47.5 -116t-116.5 -48q-70 0 -117 48t-47 116z" />
<glyph unicode="&#xb8;" horiz-adv-x="569" d="M61 -387l33 74q29 -10 59.5 -18.5t61.5 -8.5q45 0 83 16.5t38 69.5q0 39 -30 56.5t-64 17.5q-16 0 -30.5 -1t-29.5 -9l-22 16l86 199h86l-64 -131q27 6 58 6q82 0 134 -32t52 -120q0 -47 -24.5 -77.5t-61.5 -51t-81 -29t-81 -8.5q-53 0 -103 6t-100 25z" />
<glyph unicode="&#xb9;" horiz-adv-x="681" d="M94 1307q0 23 8.5 28.5t18.5 7.5q14 0 46 6.5t70.5 18.5t78.5 30.5t69 45.5q4 4 10 6t25 2q25 0 32 -3t7 -17q0 -23 -2 -40.5t-3 -40t-3 -51t-2 -71.5v-475q0 -31 3 -51.5t15 -34t35.5 -18.5t66.5 -5q12 0 14.5 -10t2.5 -27q0 -18 -6.5 -27.5t-32.5 -9.5q-37 0 -88 2 t-113 2q-61 0 -115.5 -2t-107.5 -2q-23 0 -23 43q0 8 3 13.5t12.5 8.5t28 5t51.5 4q25 2 31.5 21.5t6.5 42.5v473q0 31 -3 49t-13 27.5t-27.5 11.5t-48.5 4q-16 0 -31.5 5t-15.5 28z" />
<glyph unicode="&#xba;" horiz-adv-x="716" d="M14 1190q0 68 27 122t73 91t109 57.5t135 20.5t135.5 -20.5t109.5 -57.5t72.5 -90t26.5 -121t-26.5 -121t-72.5 -91t-109.5 -58.5t-135.5 -20.5t-135 20.5t-109 58.5t-73 91t-27 119zM225 1192q0 -35 4 -75t18.5 -73.5t40 -56t68.5 -22.5t70 22.5t41 56t19.5 73.5t5.5 75 q0 33 -5.5 73t-19.5 73.5t-41 56t-70 22.5t-68.5 -22.5t-40 -56t-18.5 -73.5t-4 -73z" />
<glyph unicode="&#xbb;" d="M84 131q0 12 18.5 41t47 63.5t63.5 74.5t67.5 75t59.5 61.5t41 36.5q-12 10 -40 37t-60.5 61.5t-67.5 74.5t-63.5 75t-47 63.5t-18.5 41.5q0 10 14.5 23t24.5 13t57 -41q115 -100 203 -160.5t148.5 -96t91 -54t30.5 -37.5q0 -18 -30.5 -36.5t-91 -54.5t-148.5 -96 t-203 -161q-47 -41 -57 -41t-24.5 13.5t-14.5 23.5zM522 131q0 12 18.5 41t47 63.5t63.5 74.5t68 75t59.5 61.5t40.5 36.5q-14 10 -40.5 37t-59.5 61.5t-68 74.5t-63.5 75t-47 63.5t-18.5 41.5q0 10 14.5 23t24.5 13t57 -41q115 -100 203 -160.5t148.5 -96t91.5 -54 t31 -37.5q0 -18 -31 -36.5t-91.5 -54.5t-148.5 -96t-203 -161q-47 -41 -57 -41t-24.5 13.5t-14.5 23.5z" />
<glyph unicode="&#xbc;" horiz-adv-x="1708" d="M94 1307q0 23 8.5 28.5t18.5 7.5q14 0 46 6.5t70.5 18.5t78.5 30.5t69 45.5q4 4 10 6t25 2q25 0 32 -3t7 -17q0 -23 -2 -40.5t-3 -40t-3 -51t-2 -71.5v-475q0 -31 3 -51.5t15 -34t35.5 -18.5t66.5 -5q12 0 14.5 -10t2.5 -27q0 -18 -6.5 -27.5t-32.5 -9.5q-37 0 -88 2 t-113 2q-61 0 -115.5 -2t-107.5 -2q-23 0 -23 43q0 8 3 13.5t12.5 8.5t28 5t51.5 4q25 2 31.5 21.5t6.5 42.5v473q0 31 -3 49t-13 27.5t-27.5 11.5t-48.5 4q-16 0 -31.5 5t-15.5 28zM328 -27l858 1465h123l-858 -1465h-123zM918 219v107q39 92 105.5 184t132 167t117.5 122 t64 47h150v-486h141v-141h-141v-250h-195v250h-374zM1040 360h252v338q-74 -59 -137 -149t-115 -189z" />
<glyph unicode="&#xbd;" horiz-adv-x="1708" d="M94 1307q0 23 8.5 28.5t18.5 7.5q14 0 46 6.5t70.5 18.5t78.5 30.5t69 45.5q4 4 10 6t25 2q25 0 32 -3t7 -17q0 -23 -2 -40.5t-3 -40t-3 -51t-2 -71.5v-475q0 -31 3 -51.5t15 -34t35.5 -18.5t66.5 -5q12 0 14.5 -10t2.5 -27q0 -18 -6.5 -27.5t-32.5 -9.5q-37 0 -88 2 t-113 2q-61 0 -115.5 -2t-107.5 -2q-23 0 -23 43q0 8 3 13.5t12.5 8.5t28 5t51.5 4q25 2 31.5 21.5t6.5 42.5v473q0 31 -3 49t-13 27.5t-27.5 11.5t-48.5 4q-16 0 -31.5 5t-15.5 28zM346 -27l858 1465h123l-858 -1465h-123zM1004 0v80q111 111 182 190.5t114 139t59.5 102.5 t16.5 80q0 61 -42 101t-113 40q-37 0 -67 -11t-50.5 -23.5t-32.5 -23.5t-14 -11q-16 0 -27.5 14t-11.5 24q0 8 20.5 34t59.5 53.5t94 50t125 22.5q55 0 105.5 -14t88 -42t59 -67t21.5 -90q0 -49 -20.5 -95t-66.5 -100.5t-118.5 -124t-179.5 -165.5h252q20 0 36.5 13t31 29.5 t28 30t25.5 13.5q6 0 18.5 -6t12.5 -23q0 -10 -11.5 -38.5t-24.5 -62.5t-24.5 -67t-13.5 -53h-532z" />
<glyph unicode="&#xbe;" horiz-adv-x="1708" d="M41 647q0 41 24.5 58.5t49.5 17.5q29 0 48 -13.5t35.5 -30.5t34 -30.5t41.5 -13.5q16 0 36 7t36 23.5t27.5 46t11.5 72.5q0 98 -58.5 144.5t-158.5 58.5v70q35 12 67.5 27.5t58 36t41 45t15.5 59.5q0 45 -30.5 72.5t-94.5 27.5q-33 0 -57.5 -8t-41.5 -17.5t-28.5 -17.5 t-13.5 -8q-39 0 -39 41q0 12 24.5 32.5t63.5 41t88 35t98 14.5q119 0 178.5 -49.5t59.5 -108.5q0 -78 -51 -120t-123 -75v-4q94 -20 151.5 -76.5t57.5 -148.5q0 -82 -48 -139.5t-113.5 -94t-133.5 -54t-107 -17.5q-23 0 -48 3t-47.5 13.5t-38 28.5t-15.5 51zM326 -27 l858 1465h123l-858 -1465h-123zM918 219v107q39 92 105.5 184t132 167t117.5 122t64 47h150v-486h141v-141h-141v-250h-195v250h-374zM1040 360h252v338q-74 -59 -137 -149t-115 -189z" />
<glyph unicode="&#xbf;" horiz-adv-x="909" d="M141 84q0 12 3 43t13.5 67.5t29 72.5t49.5 57q16 12 32.5 19t45 13t74.5 10.5t124 8.5q27 2 42 13t22.5 29.5t9.5 43t4 49.5q2 10 9 14t32 4q23 0 30 -3t7 -19v-293q0 -35 -7.5 -51.5t-50.5 -16.5h-223q-86 0 -121 -32.5t-35 -118.5q0 -59 29 -114.5t88 -76.5 q18 -6 65.5 -12t99.5 -11t100.5 -8t72.5 -3q33 0 50.5 -25t25.5 -61.5t9 -80.5t1 -85q0 -27 -5 -41.5t-11 -21.5t-14.5 -9t-14.5 -2q-10 0 -22.5 3t-12.5 19q0 45 -30.5 55.5t-57.5 10.5q-111 0 -183.5 17.5t-118.5 54.5t-73.5 92t-50.5 133q-37 123 -37 256zM446 786 q0 68 47.5 116t116.5 48q70 0 117 -48t47 -116t-47 -115.5t-117 -47.5t-117 48t-47 115z" />
<glyph unicode="&#xc0;" horiz-adv-x="1441" d="M-51 31q0 29 14 37t60 10q51 2 75.5 51t57.5 125q43 98 84 198.5t75 204.5q20 63 52 145.5t67 170.5t72 173t66.5 154.5t51 115.5t25.5 54q4 10 23.5 12.5t29.5 2.5q31 0 41.5 -5t16.5 -20q25 -61 65.5 -163.5t90 -225.5t102.5 -255t103 -252t91 -215t66 -146 q20 -41 35.5 -65.5t34 -38t45 -17.5t67.5 -4q25 0 29 -11.5t4 -27.5q0 -14 -2 -28.5t-23 -14.5q-86 0 -172 2t-170 2q-170 0 -243.5 -2t-83.5 -2q-23 0 -23 37q0 14 2 23.5t10.5 13.5t25.5 6t48 2q41 0 66.5 6t25.5 45q0 14 -18 64.5t-43 106.5t-46.5 108.5t-27.5 74.5h-446 q-12 0 -21.5 -1t-13.5 -11q-12 -23 -30.5 -64.5t-36 -89t-31 -90.5t-13.5 -67q0 -31 22.5 -56.5t86.5 -25.5q80 0 97.5 -7.5t17.5 -31.5q0 -16 -3.5 -29.5t-25.5 -13.5q-59 0 -119.5 2t-120.5 2q-53 0 -105 -2t-106 -2q-23 0 -22 35zM358 1917q0 47 31 67.5t74 20.5 q23 0 49.5 -18.5t40.5 -34.5l289 -314h-105l-325 203q-23 14 -38.5 29.5t-15.5 46.5zM381 592q0 -4 8 -10.5t37 -6.5h356l-204 529q-8 -18 -24.5 -60.5t-39 -95.5t-46.5 -110.5t-43 -107.5t-31.5 -88t-12.5 -50z" />
<glyph unicode="&#xc1;" horiz-adv-x="1441" d="M-51 31q0 29 14 37t60 10q51 2 75.5 51t57.5 125q43 98 84 198.5t75 204.5q20 63 52 145.5t67 170.5t72 173t66.5 154.5t51 115.5t25.5 54q4 10 23.5 12.5t29.5 2.5q31 0 41.5 -5t16.5 -20q25 -61 65.5 -163.5t90 -225.5t102.5 -255t103 -252t91 -215t66 -146 q20 -41 35.5 -65.5t34 -38t45 -17.5t67.5 -4q25 0 29 -11.5t4 -27.5q0 -14 -2 -28.5t-23 -14.5q-86 0 -172 2t-170 2q-170 0 -243.5 -2t-83.5 -2q-23 0 -23 37q0 14 2 23.5t10.5 13.5t25.5 6t48 2q41 0 66.5 6t25.5 45q0 14 -18 64.5t-43 106.5t-46.5 108.5t-27.5 74.5h-446 q-12 0 -21.5 -1t-13.5 -11q-12 -23 -30.5 -64.5t-36 -89t-31 -90.5t-13.5 -67q0 -31 22.5 -56.5t86.5 -25.5q80 0 97.5 -7.5t17.5 -31.5q0 -16 -3.5 -29.5t-25.5 -13.5q-59 0 -119.5 2t-120.5 2q-53 0 -105 -2t-106 -2q-23 0 -22 35zM381 592q0 -4 8 -10.5t37 -6.5h356 l-204 529q-8 -18 -24.5 -60.5t-39 -95.5t-46.5 -110.5t-43 -107.5t-31.5 -88t-12.5 -50zM600 1638l289 314q14 16 40.5 34.5t49.5 18.5q43 0 73.5 -20.5t30.5 -67.5q0 -31 -15 -46.5t-38 -29.5l-325 -203h-105z" />
<glyph unicode="&#xc2;" horiz-adv-x="1441" d="M-51 31q0 29 14 37t60 10q51 2 75.5 51t57.5 125q43 98 84 198.5t75 204.5q20 63 52 145.5t67 170.5t72 173t66.5 154.5t51 115.5t25.5 54q4 10 23.5 12.5t29.5 2.5q31 0 41.5 -5t16.5 -20q25 -61 65.5 -163.5t90 -225.5t102.5 -255t103 -252t91 -215t66 -146 q20 -41 35.5 -65.5t34 -38t45 -17.5t67.5 -4q25 0 29 -11.5t4 -27.5q0 -14 -2 -28.5t-23 -14.5q-86 0 -172 2t-170 2q-170 0 -243.5 -2t-83.5 -2q-23 0 -23 37q0 14 2 23.5t10.5 13.5t25.5 6t48 2q41 0 66.5 6t25.5 45q0 14 -18 64.5t-43 106.5t-46.5 108.5t-27.5 74.5h-446 q-12 0 -21.5 -1t-13.5 -11q-12 -23 -30.5 -64.5t-36 -89t-31 -90.5t-13.5 -67q0 -31 22.5 -56.5t86.5 -25.5q80 0 97.5 -7.5t17.5 -31.5q0 -16 -3.5 -29.5t-25.5 -13.5q-59 0 -119.5 2t-120.5 2q-53 0 -105 -2t-106 -2q-23 0 -22 35zM358 1653l248 340h168l248 -340h-82 l-250 200l-250 -200h-82zM381 592q0 -4 8 -10.5t37 -6.5h356l-204 529q-8 -18 -24.5 -60.5t-39 -95.5t-46.5 -110.5t-43 -107.5t-31.5 -88t-12.5 -50z" />
<glyph unicode="&#xc3;" horiz-adv-x="1441" d="M-51 31q0 29 14 37t60 10q51 2 75.5 51t57.5 125q43 98 84 198.5t75 204.5q20 63 52 145.5t67 170.5t72 173t66.5 154.5t51 115.5t25.5 54q4 10 23.5 12.5t29.5 2.5q31 0 41.5 -5t16.5 -20q25 -61 65.5 -163.5t90 -225.5t102.5 -255t103 -252t91 -215t66 -146 q20 -41 35.5 -65.5t34 -38t45 -17.5t67.5 -4q25 0 29 -11.5t4 -27.5q0 -14 -2 -28.5t-23 -14.5q-86 0 -172 2t-170 2q-170 0 -243.5 -2t-83.5 -2q-23 0 -23 37q0 14 2 23.5t10.5 13.5t25.5 6t48 2q41 0 66.5 6t25.5 45q0 14 -18 64.5t-43 106.5t-46.5 108.5t-27.5 74.5h-446 q-12 0 -21.5 -1t-13.5 -11q-12 -23 -30.5 -64.5t-36 -89t-31 -90.5t-13.5 -67q0 -31 22.5 -56.5t86.5 -25.5q80 0 97.5 -7.5t17.5 -31.5q0 -16 -3.5 -29.5t-25.5 -13.5q-59 0 -119.5 2t-120.5 2q-53 0 -105 -2t-106 -2q-23 0 -22 35zM367 1683q8 43 25.5 85t45 74t65.5 52.5 t87 20.5q41 0 81 -13.5t79 -29.5q41 -16 76.5 -30.5t66.5 -14.5q41 0 69.5 24.5t38.5 65.5h74q-8 -43 -25.5 -84t-45.5 -74q-29 -35 -67 -54t-87 -19q-43 0 -86 14t-84 31q-41 16 -75 30.5t-60 14.5q-39 0 -69 -28t-36 -65h-73zM381 592q0 -4 8 -10.5t37 -6.5h356l-204 529 q-8 -18 -24.5 -60.5t-39 -95.5t-46.5 -110.5t-43 -107.5t-31.5 -88t-12.5 -50z" />
<glyph unicode="&#xc4;" horiz-adv-x="1441" d="M-51 31q0 29 14 37t60 10q51 2 75.5 51t57.5 125q43 98 84 198.5t75 204.5q20 63 52 145.5t67 170.5t72 173t66.5 154.5t51 115.5t25.5 54q4 10 23.5 12.5t29.5 2.5q31 0 41.5 -5t16.5 -20q25 -61 65.5 -163.5t90 -225.5t102.5 -255t103 -252t91 -215t66 -146 q20 -41 35.5 -65.5t34 -38t45 -17.5t67.5 -4q25 0 29 -11.5t4 -27.5q0 -14 -2 -28.5t-23 -14.5q-86 0 -172 2t-170 2q-170 0 -243.5 -2t-83.5 -2q-23 0 -23 37q0 14 2 23.5t10.5 13.5t25.5 6t48 2q41 0 66.5 6t25.5 45q0 14 -18 64.5t-43 106.5t-46.5 108.5t-27.5 74.5h-446 q-12 0 -21.5 -1t-13.5 -11q-12 -23 -30.5 -64.5t-36 -89t-31 -90.5t-13.5 -67q0 -31 22.5 -56.5t86.5 -25.5q80 0 97.5 -7.5t17.5 -31.5q0 -16 -3.5 -29.5t-25.5 -13.5q-59 0 -119.5 2t-120.5 2q-53 0 -105 -2t-106 -2q-23 0 -22 35zM356 1792q0 55 39 94t94 39t94.5 -39 t39.5 -94t-39 -94t-95 -39q-55 0 -94 39t-39 94zM381 592q0 -4 8 -10.5t37 -6.5h356l-204 529q-8 -18 -24.5 -60.5t-39 -95.5t-46.5 -110.5t-43 -107.5t-31.5 -88t-12.5 -50zM778 1792q0 55 39 94t94 39t94 -39t39 -94t-38.5 -94t-94.5 -39q-55 0 -94 39t-39 94z" />
<glyph unicode="&#xc5;" horiz-adv-x="1441" d="M-51 31q0 29 14 37t60 10q51 2 75.5 51t57.5 125q43 98 84 198.5t75 204.5q20 63 52 145.5t67 170.5t72 173t66.5 154.5t51 115.5t25.5 54q4 10 23.5 12.5t29.5 2.5q31 0 41.5 -5t16.5 -20q25 -61 65.5 -163.5t90 -225.5t102.5 -255t103 -252t91 -215t66 -146 q20 -41 35.5 -65.5t34 -38t45 -17.5t67.5 -4q25 0 29 -11.5t4 -27.5q0 -14 -2 -28.5t-23 -14.5q-86 0 -172 2t-170 2q-170 0 -243.5 -2t-83.5 -2q-23 0 -23 37q0 14 2 23.5t10.5 13.5t25.5 6t48 2q41 0 66.5 6t25.5 45q0 14 -18 64.5t-43 106.5t-46.5 108.5t-27.5 74.5h-446 q-12 0 -21.5 -1t-13.5 -11q-12 -23 -30.5 -64.5t-36 -89t-31 -90.5t-13.5 -67q0 -31 22.5 -56.5t86.5 -25.5q80 0 97.5 -7.5t17.5 -31.5q0 -16 -3.5 -29.5t-25.5 -13.5q-59 0 -119.5 2t-120.5 2q-53 0 -105 -2t-106 -2q-23 0 -22 35zM381 592q0 -4 8 -10.5t37 -6.5h356 l-204 529q-8 -18 -24.5 -60.5t-39 -95.5t-46.5 -110.5t-43 -107.5t-31.5 -88t-12.5 -50zM455 1817q0 47 19.5 87t52 68.5t74.5 45t87 16.5t85 -19.5t69.5 -51.5t47 -74t17.5 -85q0 -47 -18.5 -88t-50 -71.5t-73.5 -48t-89 -17.5t-88 20.5t-71 53.5t-46 76t-16 88zM549 1808 q0 -59 41 -97t98 -38q47 0 86 38t39 85q0 61 -38 102t-101 41q-49 0 -87 -40.5t-38 -90.5z" />
<glyph unicode="&#xc6;" horiz-adv-x="2086" d="M-59 37q0 23 6 32t35 9q43 0 71.5 9t50 28.5t41 51.5t45.5 77q152 256 298.5 510t293.5 510q4 8 15.5 32.5t11.5 34.5q0 45 -131 47q-25 0 -39 2t-20.5 6.5t-7.5 13.5t-1 25q0 23 5.5 29t21.5 6q31 0 83 -1t113.5 -3t126 -3t119.5 -1q248 0 397.5 1t231.5 3t113.5 3 t44.5 1q6 0 13 -4t7 -10q0 -12 14.5 -55t31 -94.5t30.5 -94.5t14 -55q0 -14 -10 -16.5t-33 -2.5t-33 8.5t-42 49.5q-10 12 -28 32.5t-39.5 43t-45 42t-45.5 31.5q-23 12 -39 18.5t-36.5 9.5t-53.5 4t-88 1q-74 0 -116 -2t-61.5 -13.5t-23.5 -37t-4 -72.5v-473h117q59 0 97 9 t61.5 32t36 58.5t22.5 91.5q6 35 13 47t32 12t35 -4t10 -21q0 -8 -1 -24.5t-2 -47t-2 -77.5t-1 -117q0 -72 3 -138.5t3 -133.5q0 -12 -14.5 -15.5t-42.5 -3.5q-10 0 -14.5 6.5t-10.5 38.5q-12 68 -24.5 108t-41 61.5t-81 28.5t-142.5 7h-53v-528q0 -29 6 -44.5t41 -24.5 t113 -11t219 -2q72 0 120 20.5t74 55.5q43 61 69 96t42 53.5t26.5 23.5t24.5 5q25 0 35 -2t10 -13q0 -4 -11 -35.5t-27.5 -74.5t-36 -92t-35.5 -88q-10 -23 -20.5 -27t-51.5 -4h-22.5t-41 1t-80 1t-138.5 1t-215 1h-310q-98 0 -154.5 -1t-87 -1t-43 -1t-20.5 -1 q-27 0 -27 27q0 39 11.5 47t58.5 8q55 0 86 9t45 42t17 97.5t3 176.5v275h-401q-16 0 -23.5 -8t-11.5 -17q-94 -162 -148.5 -256t-83 -146t-36.5 -75.5t-8 -42.5q0 -20 17.5 -31.5t43 -16.5t53 -6t50.5 -1q16 0 20 -13.5t4 -27.5q0 -27 -8 -34t-33 -7q-53 0 -104 2t-105 2 q-29 0 -64.5 -1t-68.5 -1t-58.5 -1t-33.5 -1q-14 0 -16 8t-2 33zM592 772q0 -12 20 -12h346v606h-4q-88 -139 -149.5 -236.5t-101 -162t-62.5 -102.5t-34 -57.5t-13 -26.5t-2 -9z" />
<glyph unicode="&#xc7;" horiz-adv-x="1630" d="M76 756q0 66 15 145.5t53 160.5t101.5 156.5t158 134t222.5 93.5t296 35q100 0 178 -12.5t135 -27t92 -26.5t51 -12q25 0 41.5 19.5t30.5 19.5q16 0 22.5 -12.5t10.5 -47.5q4 -43 10 -88t11 -87t8.5 -78.5t3.5 -61.5q0 -8 -21.5 -14t-30.5 -6q-18 0 -24 12 q-55 150 -163 245t-276 95q-141 0 -246.5 -61.5t-174 -161t-102.5 -223.5t-34 -248q0 -152 38 -260.5t94.5 -181.5t125 -115t129 -63.5t106.5 -27.5t58 -6q123 0 202 34t130 84t82 106.5t55 101.5q4 16 19 16q41 0 50 -5t9 -15q0 -18 -5 -56t-11 -81t-12.5 -85t-8.5 -69 q-2 -16 -11 -22.5t-26 -10.5q-147 -33 -271 -56.5t-234 -23.5q-63 0 -125 6l-39 -81q27 6 57 6q82 0 134 -32t52 -120q0 -47 -24.5 -77.5t-61 -51t-81 -29t-80.5 -8.5q-53 0 -103.5 6t-99.5 25l33 74q29 -10 59.5 -18.5t60.5 -8.5q45 0 83 16.5t38 69.5q0 39 -29.5 56.5 t-64.5 17.5q-16 0 -30.5 -1t-28.5 -9l-23 16l68 158q-152 23 -277 81t-215 153t-140 229.5t-50 308.5z" />
<glyph unicode="&#xc8;" horiz-adv-x="1441" d="M25 1403q0 41 5 49t31 8q41 0 130.5 -4t185.5 -4q248 0 397.5 1t234.5 3t121.5 3t61.5 1q6 0 13 -4t7 -10q0 -12 14.5 -55t31 -94.5t31 -94.5t14.5 -55q0 -14 -10.5 -16.5t-32.5 -2.5q-23 0 -33 8.5t-43 49.5q-10 12 -26.5 31.5t-38 41t-47 42t-54.5 34.5 q-23 12 -39 18.5t-38.5 9.5t-59.5 4t-101 1q-74 0 -115.5 -2t-61 -13.5t-24 -37t-4.5 -72.5v-473h134q59 0 97 9t61.5 32t35.5 58.5t23 91.5q6 35 13 47t32 12t35 -4t10 -21q0 -8 -1 -24.5t-2 -47t-2 -77.5t-1 -117q0 -72 3 -138.5t3 -133.5q0 -12 -14.5 -15.5t-43.5 -3.5 q-10 0 -14 6.5t-10 38.5q-12 68 -24.5 108t-41 61.5t-81 28.5t-142.5 7h-70v-528q0 -29 8.5 -44.5t54.5 -24.5t146.5 -11t284.5 -2q29 0 70 20.5t67 55.5q43 61 68.5 96t42 53.5t27 23.5t24.5 5q25 0 35 -2t10 -13q0 -4 -11 -35.5t-27.5 -74.5t-36 -92t-35.5 -88 q-10 -23 -20.5 -27t-51.5 -4h-22.5t-43 1t-86 1t-147.5 1t-230.5 1h-334.5q-98 0 -154.5 -1t-87.5 -1t-43 -1t-21 -1q-27 0 -26 27q0 39 11 47t58 8q55 0 86 9t45.5 42t17.5 97.5t3 176.5v705q0 92 -4 145.5t-22.5 81t-54.5 35.5t-97 8q-20 0 -36.5 7.5t-16.5 17.5z M399 1917q0 47 31 67.5t74 20.5q23 0 49.5 -18.5t40.5 -34.5l289 -314h-105l-325 203q-23 14 -38.5 29.5t-15.5 46.5z" />
<glyph unicode="&#xc9;" horiz-adv-x="1441" d="M25 1403q0 41 5 49t31 8q41 0 130.5 -4t185.5 -4q248 0 397.5 1t234.5 3t121.5 3t61.5 1q6 0 13 -4t7 -10q0 -12 14.5 -55t31 -94.5t31 -94.5t14.5 -55q0 -14 -10.5 -16.5t-32.5 -2.5q-23 0 -33 8.5t-43 49.5q-10 12 -26.5 31.5t-38 41t-47 42t-54.5 34.5 q-23 12 -39 18.5t-38.5 9.5t-59.5 4t-101 1q-74 0 -115.5 -2t-61 -13.5t-24 -37t-4.5 -72.5v-473h134q59 0 97 9t61.5 32t35.5 58.5t23 91.5q6 35 13 47t32 12t35 -4t10 -21q0 -8 -1 -24.5t-2 -47t-2 -77.5t-1 -117q0 -72 3 -138.5t3 -133.5q0 -12 -14.5 -15.5t-43.5 -3.5 q-10 0 -14 6.5t-10 38.5q-12 68 -24.5 108t-41 61.5t-81 28.5t-142.5 7h-70v-528q0 -29 8.5 -44.5t54.5 -24.5t146.5 -11t284.5 -2q29 0 70 20.5t67 55.5q43 61 68.5 96t42 53.5t27 23.5t24.5 5q25 0 35 -2t10 -13q0 -4 -11 -35.5t-27.5 -74.5t-36 -92t-35.5 -88 q-10 -23 -20.5 -27t-51.5 -4h-22.5t-43 1t-86 1t-147.5 1t-230.5 1h-334.5q-98 0 -154.5 -1t-87.5 -1t-43 -1t-21 -1q-27 0 -26 27q0 39 11 47t58 8q55 0 86 9t45.5 42t17.5 97.5t3 176.5v705q0 92 -4 145.5t-22.5 81t-54.5 35.5t-97 8q-20 0 -36.5 7.5t-16.5 17.5z M559 1638l289 314q14 16 40.5 34.5t49.5 18.5q43 0 73.5 -20.5t30.5 -67.5q0 -31 -15 -46.5t-38 -29.5l-325 -203h-105z" />
<glyph unicode="&#xca;" horiz-adv-x="1441" d="M25 1403q0 41 5 49t31 8q41 0 130.5 -4t185.5 -4q248 0 397.5 1t234.5 3t121.5 3t61.5 1q6 0 13 -4t7 -10q0 -12 14.5 -55t31 -94.5t31 -94.5t14.5 -55q0 -14 -10.5 -16.5t-32.5 -2.5q-23 0 -33 8.5t-43 49.5q-10 12 -26.5 31.5t-38 41t-47 42t-54.5 34.5 q-23 12 -39 18.5t-38.5 9.5t-59.5 4t-101 1q-74 0 -115.5 -2t-61 -13.5t-24 -37t-4.5 -72.5v-473h134q59 0 97 9t61.5 32t35.5 58.5t23 91.5q6 35 13 47t32 12t35 -4t10 -21q0 -8 -1 -24.5t-2 -47t-2 -77.5t-1 -117q0 -72 3 -138.5t3 -133.5q0 -12 -14.5 -15.5t-43.5 -3.5 q-10 0 -14 6.5t-10 38.5q-12 68 -24.5 108t-41 61.5t-81 28.5t-142.5 7h-70v-528q0 -29 8.5 -44.5t54.5 -24.5t146.5 -11t284.5 -2q29 0 70 20.5t67 55.5q43 61 68.5 96t42 53.5t27 23.5t24.5 5q25 0 35 -2t10 -13q0 -4 -11 -35.5t-27.5 -74.5t-36 -92t-35.5 -88 q-10 -23 -20.5 -27t-51.5 -4h-22.5t-43 1t-86 1t-147.5 1t-230.5 1h-334.5q-98 0 -154.5 -1t-87.5 -1t-43 -1t-21 -1q-27 0 -26 27q0 39 11 47t58 8q55 0 86 9t45.5 42t17.5 97.5t3 176.5v705q0 92 -4 145.5t-22.5 81t-54.5 35.5t-97 8q-20 0 -36.5 7.5t-16.5 17.5z M389 1653l248 340h168l248 -340h-82l-250 200l-250 -200h-82z" />
<glyph unicode="&#xcb;" horiz-adv-x="1441" d="M25 1403q0 41 5 49t31 8q41 0 130.5 -4t185.5 -4q248 0 397.5 1t234.5 3t121.5 3t61.5 1q6 0 13 -4t7 -10q0 -12 14.5 -55t31 -94.5t31 -94.5t14.5 -55q0 -14 -10.5 -16.5t-32.5 -2.5q-23 0 -33 8.5t-43 49.5q-10 12 -26.5 31.5t-38 41t-47 42t-54.5 34.5 q-23 12 -39 18.5t-38.5 9.5t-59.5 4t-101 1q-74 0 -115.5 -2t-61 -13.5t-24 -37t-4.5 -72.5v-473h134q59 0 97 9t61.5 32t35.5 58.5t23 91.5q6 35 13 47t32 12t35 -4t10 -21q0 -8 -1 -24.5t-2 -47t-2 -77.5t-1 -117q0 -72 3 -138.5t3 -133.5q0 -12 -14.5 -15.5t-43.5 -3.5 q-10 0 -14 6.5t-10 38.5q-12 68 -24.5 108t-41 61.5t-81 28.5t-142.5 7h-70v-528q0 -29 8.5 -44.5t54.5 -24.5t146.5 -11t284.5 -2q29 0 70 20.5t67 55.5q43 61 68.5 96t42 53.5t27 23.5t24.5 5q25 0 35 -2t10 -13q0 -4 -11 -35.5t-27.5 -74.5t-36 -92t-35.5 -88 q-10 -23 -20.5 -27t-51.5 -4h-22.5t-43 1t-86 1t-147.5 1t-230.5 1h-334.5q-98 0 -154.5 -1t-87.5 -1t-43 -1t-21 -1q-27 0 -26 27q0 39 11 47t58 8q55 0 86 9t45.5 42t17.5 97.5t3 176.5v705q0 92 -4 145.5t-22.5 81t-54.5 35.5t-97 8q-20 0 -36.5 7.5t-16.5 17.5z M377 1792q0 55 39 94t94 39t94 -39t39 -94t-39 -94t-94 -39t-94 39t-39 94zM799 1792q0 55 39 94t94 39t94 -39t39 -94t-39 -94t-94 -39t-94 39t-39 94z" />
<glyph unicode="&#xcc;" horiz-adv-x="833" d="M25 1403q0 41 5 49t31 8q90 0 177.5 -4t177.5 -4t177 4t177 4q27 0 32 -8t5 -49q0 -10 -16.5 -17.5t-36.5 -7.5q-61 0 -97 -8t-54.5 -35.5t-23 -81t-4.5 -145.5v-705q0 -113 3.5 -177t17.5 -97t45 -42t86 -9q47 0 58.5 -8.5t11.5 -46.5q0 -27 -27 -27q-90 0 -177 2 t-177 2t-177 -2t-178 -2q-27 0 -26 27q0 39 11 47t58 8q55 0 86 9t45.5 42t17.5 97.5t3 176.5v705q0 92 -4 145.5t-22.5 81t-54.5 35.5t-97 8q-20 0 -36.5 7.5t-16.5 17.5zM96 1917q0 47 31 67.5t74 20.5q23 0 49 -18.5t41 -34.5l289 -314h-105l-325 203q-23 14 -38.5 29.5 t-15.5 46.5z" />
<glyph unicode="&#xcd;" horiz-adv-x="833" d="M25 1403q0 41 5 49t31 8q90 0 177.5 -4t177.5 -4t177 4t177 4q27 0 32 -8t5 -49q0 -10 -16.5 -17.5t-36.5 -7.5q-61 0 -97 -8t-54.5 -35.5t-23 -81t-4.5 -145.5v-705q0 -113 3.5 -177t17.5 -97t45 -42t86 -9q47 0 58.5 -8.5t11.5 -46.5q0 -27 -27 -27q-90 0 -177 2 t-177 2t-177 -2t-178 -2q-27 0 -26 27q0 39 11 47t58 8q55 0 86 9t45.5 42t17.5 97.5t3 176.5v705q0 92 -4 145.5t-22.5 81t-54.5 35.5t-97 8q-20 0 -36.5 7.5t-16.5 17.5zM256 1638l289 314q14 16 40.5 34.5t49.5 18.5q43 0 73.5 -20.5t30.5 -67.5q0 -31 -15 -46.5 t-38 -29.5l-326 -203h-104z" />
<glyph unicode="&#xce;" horiz-adv-x="833" d="M25 1403q0 41 5 49t31 8q90 0 177.5 -4t177.5 -4t177 4t177 4q27 0 32 -8t5 -49q0 -10 -16.5 -17.5t-36.5 -7.5q-61 0 -97 -8t-54.5 -35.5t-23 -81t-4.5 -145.5v-705q0 -113 3.5 -177t17.5 -97t45 -42t86 -9q47 0 58.5 -8.5t11.5 -46.5q0 -27 -27 -27q-90 0 -177 2 t-177 2t-177 -2t-178 -2q-27 0 -26 27q0 39 11 47t58 8q55 0 86 9t45.5 42t17.5 97.5t3 176.5v705q0 92 -4 145.5t-22.5 81t-54.5 35.5t-97 8q-20 0 -36.5 7.5t-16.5 17.5zM86 1653l248 340h168l248 -340h-82l-250 200l-250 -200h-82z" />
<glyph unicode="&#xcf;" horiz-adv-x="833" d="M25 1403q0 41 5 49t31 8q90 0 177.5 -4t177.5 -4t177 4t177 4q27 0 32 -8t5 -49q0 -10 -16.5 -17.5t-36.5 -7.5q-61 0 -97 -8t-54.5 -35.5t-23 -81t-4.5 -145.5v-705q0 -113 3.5 -177t17.5 -97t45 -42t86 -9q47 0 58.5 -8.5t11.5 -46.5q0 -27 -27 -27q-90 0 -177 2 t-177 2t-177 -2t-178 -2q-27 0 -26 27q0 39 11 47t58 8q55 0 86 9t45.5 42t17.5 97.5t3 176.5v705q0 92 -4 145.5t-22.5 81t-54.5 35.5t-97 8q-20 0 -36.5 7.5t-16.5 17.5zM74 1792q0 55 39 94t94 39t94 -39t39 -94t-39 -94t-94 -39t-94 39t-39 94zM496 1792q0 55 38.5 94 t94.5 39q55 0 94 -39t39 -94t-39 -94t-94 -39t-94 39t-39 94z" />
<glyph unicode="&#xd0;" horiz-adv-x="1744" d="M45 1403q0 41 5 49t32 8q74 0 159 -4t175 -4q29 0 60.5 1t80.5 3t120 3t175 1q180 0 311 -35.5t221.5 -95t146.5 -134.5t87 -151.5t41 -149.5t10 -126q0 -147 -47 -285.5t-151.5 -247t-273.5 -174t-415 -65.5q-92 0 -183 2t-183 2q-90 0 -175 -2t-159 -2q-27 0 -27 27 q0 39 8.5 47t40.5 8q55 0 86 9t45.5 42t17.5 97.5t3 176.5v289h-205v92h205v324q0 92 -4 145.5t-22.5 81t-54.5 35.5t-97 8q-4 0 -18.5 7.5t-14.5 17.5zM573 692l2 -471q0 -49 7.5 -77.5t24 -43t45 -18.5t69.5 -4q129 0 235.5 44t183.5 128t118.5 209t41.5 284q0 47 -7 112 t-29.5 135.5t-62.5 140t-106.5 125t-161.5 89t-226 33.5q-27 0 -50.5 -2t-42 -11t-29 -27.5t-10.5 -51.5l-2 -502h283v-92h-283z" />
<glyph unicode="&#xd1;" horiz-adv-x="1781" d="M-4 1419q0 16 5 28.5t24 12.5q18 0 48.5 -1t63.5 -2t62.5 -3t44.5 -2q20 0 55 1t73 2t74.5 3t61.5 2q14 0 24.5 -9t20.5 -19q229 -248 453.5 -495t466.5 -482q0 172 8 326.5t8 273.5q0 111 -14.5 175t-41 97t-65.5 42t-90 9q-31 0 -37 9.5t-6 31.5q0 16 4 28.5t23 12.5 q20 0 59 -1t80 -3t76.5 -3t52.5 -1q14 0 50 1t76 3t74.5 3t49.5 1q25 0 24 -37q0 -23 -4 -34t-31 -11q-49 0 -83.5 -9t-56 -30.5t-32 -57.5t-14.5 -91q-2 -33 -6 -117t-8 -195.5t-8.5 -238.5t-7.5 -248t-5 -222t-2 -163q0 -35 -12 -40t-51 -5q-4 0 -16.5 10.5t-55.5 57.5 l-1055 1132q-2 -43 -4 -107.5t-3 -136t-2 -145.5t-1 -135.5v-104.5v-55q0 -145 3 -224t21.5 -118t59.5 -47t115 -10q35 -2 43 -9.5t8 -37.5q0 -20 -5 -27.5t-28 -7.5q-61 0 -123.5 2t-124.5 2q-63 0 -125.5 -2t-126.5 -2q-23 0 -26.5 11t-3.5 30q0 23 7 31t42 10q53 2 86 6 t50.5 20.5t23.5 50t10 95.5q2 20 3 79.5t3 140.5t4 178t3 192.5t2 182.5t1 148q0 35 -7 60.5t-42 60.5q-31 31 -50 47.5t-34.5 24.5t-32 10t-41.5 4q-47 4 -56 10.5t-9 30.5zM537 1683q8 43 25.5 85t45 74t65.5 52.5t87 20.5q41 0 81 -13.5t79 -29.5q41 -16 76.5 -30.5 t66.5 -14.5q41 0 69.5 24.5t38.5 65.5h74q-8 -43 -25.5 -84t-45.5 -74q-29 -35 -67 -54t-87 -19q-43 0 -86 14t-84 31q-41 16 -75 30.5t-60 14.5q-39 0 -69 -28t-36 -65h-73z" />
<glyph unicode="&#xd2;" horiz-adv-x="1781" d="M76 725q0 170 65.5 309.5t179 238.5t268.5 153.5t333 54.5q172 0 315 -53.5t247.5 -151.5t163 -237.5t58.5 -313.5q0 -66 -14.5 -146.5t-49 -164.5t-96 -164t-155 -142.5t-224.5 -100.5t-307 -38q-172 0 -315.5 53.5t-247.5 151.5t-162.5 237.5t-58.5 313.5zM444 725 q0 -96 19.5 -213t70 -219.5t137.5 -172t220 -69.5q139 0 226 60.5t136.5 158t66.5 217t17 238.5q0 106 -20.5 224t-71.5 218.5t-137 166t-217 65.5q-139 0 -226 -62.5t-136.5 -161t-67 -218t-17.5 -232.5zM569 1917q0 47 31 67.5t74 20.5q23 0 49.5 -18.5t40.5 -34.5 l289 -314h-105l-325 203q-23 14 -38.5 29.5t-15.5 46.5z" />
<glyph unicode="&#xd3;" horiz-adv-x="1781" d="M76 725q0 170 65.5 309.5t179 238.5t268.5 153.5t333 54.5q172 0 315 -53.5t247.5 -151.5t163 -237.5t58.5 -313.5q0 -66 -14.5 -146.5t-49 -164.5t-96 -164t-155 -142.5t-224.5 -100.5t-307 -38q-172 0 -315.5 53.5t-247.5 151.5t-162.5 237.5t-58.5 313.5zM444 725 q0 -96 19.5 -213t70 -219.5t137.5 -172t220 -69.5q139 0 226 60.5t136.5 158t66.5 217t17 238.5q0 106 -20.5 224t-71.5 218.5t-137 166t-217 65.5q-139 0 -226 -62.5t-136.5 -161t-67 -218t-17.5 -232.5zM729 1638l289 314q14 16 40.5 34.5t49.5 18.5q43 0 73.5 -20.5 t30.5 -67.5q0 -31 -15 -46.5t-38 -29.5l-325 -203h-105z" />
<glyph unicode="&#xd4;" horiz-adv-x="1781" d="M76 725q0 170 65.5 309.5t179 238.5t268.5 153.5t333 54.5q172 0 315 -53.5t247.5 -151.5t163 -237.5t58.5 -313.5q0 -66 -14.5 -146.5t-49 -164.5t-96 -164t-155 -142.5t-224.5 -100.5t-307 -38q-172 0 -315.5 53.5t-247.5 151.5t-162.5 237.5t-58.5 313.5zM444 725 q0 -96 19.5 -213t70 -219.5t137.5 -172t220 -69.5q139 0 226 60.5t136.5 158t66.5 217t17 238.5q0 106 -20.5 224t-71.5 218.5t-137 166t-217 65.5q-139 0 -226 -62.5t-136.5 -161t-67 -218t-17.5 -232.5zM559 1653l248 340h168l248 -340h-82l-250 200l-250 -200h-82z" />
<glyph unicode="&#xd5;" horiz-adv-x="1781" d="M76 725q0 170 65.5 309.5t179 238.5t268.5 153.5t333 54.5q172 0 315 -53.5t247.5 -151.5t163 -237.5t58.5 -313.5q0 -66 -14.5 -146.5t-49 -164.5t-96 -164t-155 -142.5t-224.5 -100.5t-307 -38q-172 0 -315.5 53.5t-247.5 151.5t-162.5 237.5t-58.5 313.5zM444 725 q0 -96 19.5 -213t70 -219.5t137.5 -172t220 -69.5q139 0 226 60.5t136.5 158t66.5 217t17 238.5q0 106 -20.5 224t-71.5 218.5t-137 166t-217 65.5q-139 0 -226 -62.5t-136.5 -161t-67 -218t-17.5 -232.5zM537 1683q8 43 25.5 85t45 74t65.5 52.5t87 20.5q41 0 81 -13.5 t79 -29.5q41 -16 76.5 -30.5t66.5 -14.5q41 0 69.5 24.5t38.5 65.5h74q-8 -43 -25.5 -84t-45.5 -74q-29 -35 -67 -54t-87 -19q-43 0 -86 14t-84 31q-41 16 -75 30.5t-60 14.5q-39 0 -69 -28t-36 -65h-73z" />
<glyph unicode="&#xd6;" horiz-adv-x="1781" d="M76 725q0 170 65.5 309.5t179 238.5t268.5 153.5t333 54.5q172 0 315 -53.5t247.5 -151.5t163 -237.5t58.5 -313.5q0 -66 -14.5 -146.5t-49 -164.5t-96 -164t-155 -142.5t-224.5 -100.5t-307 -38q-172 0 -315.5 53.5t-247.5 151.5t-162.5 237.5t-58.5 313.5zM444 725 q0 -96 19.5 -213t70 -219.5t137.5 -172t220 -69.5q139 0 226 60.5t136.5 158t66.5 217t17 238.5q0 106 -20.5 224t-71.5 218.5t-137 166t-217 65.5q-139 0 -226 -62.5t-136.5 -161t-67 -218t-17.5 -232.5zM547 1792q0 55 39 94t94 39t94 -39t39 -94t-39 -94t-94 -39t-94 39 t-39 94zM969 1792q0 55 39 94t94 39t94 -39t39 -94t-39 -94t-94 -39t-94 39t-39 94z" />
<glyph unicode="&#xd7;" d="M117 147l305 306l-305 305l145 145l307 -303l305 303l148 -145l-307 -305l307 -306l-148 -147l-305 305l-307 -305z" />
<glyph unicode="&#xd8;" horiz-adv-x="1781" d="M76 725q0 170 65.5 309.5t179 238.5t268 153.5t333.5 54.5q90 0 160.5 -10.5t129 -30t108.5 -47t99 -64.5l195 197l67 -66l-188 -192q104 -100 158.5 -239.5t54.5 -303.5q0 -66 -14.5 -146.5t-49 -164.5t-96 -164t-155 -142.5t-224.5 -100.5t-307 -38q-145 0 -271 37 t-227 111l-192 -195l-70 66l191 192q-102 98 -158.5 234.5t-56.5 310.5zM444 725q0 -74 11.5 -162t40.5 -174l751 766q-45 104 -132 174t-224 70q-139 0 -226 -62.5t-136.5 -161t-67 -218t-17.5 -232.5zM535 293q47 -104 139 -173t217 -69q139 0 226 60.5t136.5 158 t66.5 217t17 238.5q0 84 -11 168t-38 168z" />
<glyph unicode="&#xd9;" horiz-adv-x="1705" d="M4 1403q0 41 5 49t32 8q90 0 177 -4t177 -4t177 4t178 4q27 0 31.5 -8t4.5 -49q0 -10 -16 -17.5t-37 -7.5q-61 0 -97 -8t-54.5 -35.5t-22.5 -81t-4 -145.5v-510q0 -117 24.5 -199t63.5 -135t88 -82.5t98.5 -43t92.5 -16.5t71 -3q205 0 313.5 140t108.5 421v360 q0 127 -13 196t-39 100.5t-63.5 36.5t-87.5 5q-14 0 -37.5 7.5t-23.5 29.5q0 23 5 34t26 11q49 0 121.5 -4t136.5 -4q53 0 121.5 4t140.5 4q20 0 23.5 -12t3.5 -41q0 -16 -17.5 -21.5t-52.5 -7.5q-20 -2 -46 -7t-49.5 -23.5t-40 -52t-16.5 -91.5q-4 -203 -7 -340t-8 -226 t-10 -140.5t-14 -83.5q-29 -121 -89 -206t-143 -138.5t-183.5 -77t-204.5 -23.5q-156 0 -270.5 41t-190.5 109.5t-113.5 160t-37.5 191.5v637q0 92 -4.5 145.5t-23 81t-54 35.5t-97.5 8q-20 0 -36.5 7.5t-16.5 17.5zM532 1917q0 47 31 67.5t74 20.5q23 0 49.5 -18.5 t40.5 -34.5l289 -314h-105l-325 203q-23 14 -38.5 29.5t-15.5 46.5z" />
<glyph unicode="&#xda;" horiz-adv-x="1705" d="M4 1403q0 41 5 49t32 8q90 0 177 -4t177 -4t177 4t178 4q27 0 31.5 -8t4.5 -49q0 -10 -16 -17.5t-37 -7.5q-61 0 -97 -8t-54.5 -35.5t-22.5 -81t-4 -145.5v-510q0 -117 24.5 -199t63.5 -135t88 -82.5t98.5 -43t92.5 -16.5t71 -3q205 0 313.5 140t108.5 421v360 q0 127 -13 196t-39 100.5t-63.5 36.5t-87.5 5q-14 0 -37.5 7.5t-23.5 29.5q0 23 5 34t26 11q49 0 121.5 -4t136.5 -4q53 0 121.5 4t140.5 4q20 0 23.5 -12t3.5 -41q0 -16 -17.5 -21.5t-52.5 -7.5q-20 -2 -46 -7t-49.5 -23.5t-40 -52t-16.5 -91.5q-4 -203 -7 -340t-8 -226 t-10 -140.5t-14 -83.5q-29 -121 -89 -206t-143 -138.5t-183.5 -77t-204.5 -23.5q-156 0 -270.5 41t-190.5 109.5t-113.5 160t-37.5 191.5v637q0 92 -4.5 145.5t-23 81t-54 35.5t-97.5 8q-20 0 -36.5 7.5t-16.5 17.5zM741 1638l289 314q14 16 41 34.5t49 18.5q43 0 74 -20.5 t31 -67.5q0 -31 -15.5 -46.5t-38.5 -29.5l-325 -203h-105z" />
<glyph unicode="&#xdb;" horiz-adv-x="1705" d="M4 1403q0 41 5 49t32 8q90 0 177 -4t177 -4t177 4t178 4q27 0 31.5 -8t4.5 -49q0 -10 -16 -17.5t-37 -7.5q-61 0 -97 -8t-54.5 -35.5t-22.5 -81t-4 -145.5v-510q0 -117 24.5 -199t63.5 -135t88 -82.5t98.5 -43t92.5 -16.5t71 -3q205 0 313.5 140t108.5 421v360 q0 127 -13 196t-39 100.5t-63.5 36.5t-87.5 5q-14 0 -37.5 7.5t-23.5 29.5q0 23 5 34t26 11q49 0 121.5 -4t136.5 -4q53 0 121.5 4t140.5 4q20 0 23.5 -12t3.5 -41q0 -16 -17.5 -21.5t-52.5 -7.5q-20 -2 -46 -7t-49.5 -23.5t-40 -52t-16.5 -91.5q-4 -203 -7 -340t-8 -226 t-10 -140.5t-14 -83.5q-29 -121 -89 -206t-143 -138.5t-183.5 -77t-204.5 -23.5q-156 0 -270.5 41t-190.5 109.5t-113.5 160t-37.5 191.5v637q0 92 -4.5 145.5t-23 81t-54 35.5t-97.5 8q-20 0 -36.5 7.5t-16.5 17.5zM522 1653l248 340h168l248 -340h-82l-250 200l-250 -200 h-82z" />
<glyph unicode="&#xdc;" horiz-adv-x="1705" d="M4 1403q0 41 5 49t32 8q90 0 177 -4t177 -4t177 4t178 4q27 0 31.5 -8t4.5 -49q0 -10 -16 -17.5t-37 -7.5q-61 0 -97 -8t-54.5 -35.5t-22.5 -81t-4 -145.5v-510q0 -117 24.5 -199t63.5 -135t88 -82.5t98.5 -43t92.5 -16.5t71 -3q205 0 313.5 140t108.5 421v360 q0 127 -13 196t-39 100.5t-63.5 36.5t-87.5 5q-14 0 -37.5 7.5t-23.5 29.5q0 23 5 34t26 11q49 0 121.5 -4t136.5 -4q53 0 121.5 4t140.5 4q20 0 23.5 -12t3.5 -41q0 -16 -17.5 -21.5t-52.5 -7.5q-20 -2 -46 -7t-49.5 -23.5t-40 -52t-16.5 -91.5q-4 -203 -7 -340t-8 -226 t-10 -140.5t-14 -83.5q-29 -121 -89 -206t-143 -138.5t-183.5 -77t-204.5 -23.5q-156 0 -270.5 41t-190.5 109.5t-113.5 160t-37.5 191.5v637q0 92 -4.5 145.5t-23 81t-54 35.5t-97.5 8q-20 0 -36.5 7.5t-16.5 17.5zM510 1792q0 55 39 94t94 39t94 -39t39 -94t-39 -94 t-94 -39t-94 39t-39 94zM932 1792q0 55 39 94t94 39t94 -39t39 -94t-39 -94t-94 -39t-94 39t-39 94z" />
<glyph unicode="&#xdd;" horiz-adv-x="1402" d="M-41 1419q0 16 3 28.5t20 12.5q102 0 196 -4t158 -4q63 0 143 4t185 4q16 0 20 -12t4 -23q0 -29 -8 -36t-59 -11q-59 -4 -81 -14t-22 -45q0 -16 54.5 -127t181.5 -346q39 -74 52 -98.5t17 -24.5q6 0 17.5 18.5t19.5 32.5q90 162 143.5 259t80 152.5t33.5 79t7 35.5 q0 16 -3 29.5t-13 24t-32.5 16.5t-61.5 8q-51 4 -61.5 12.5t-10.5 36.5q0 33 39 33q59 0 115.5 -4t115.5 -4q53 0 106.5 4t106.5 4q23 0 27 -10t4 -27q0 -27 -8 -35t-53 -10t-76 -13t-59 -48q-14 -18 -49 -78.5t-84.5 -151t-111 -205t-130.5 -241.5q-16 -31 -19.5 -42 t-3.5 -28v-168q0 -113 3 -177t17.5 -97t45 -42t86.5 -9q47 0 58 -8.5t11 -46.5q0 -27 -26 -27q-90 0 -177 2t-178 2q-90 0 -177 -2t-177 -2q-27 0 -26 27q0 39 11 47t58 8q55 0 86 9t45.5 42t17.5 97.5t3 176.5v134q0 8 -1 17t-7.5 23.5t-18.5 37t-33 61.5l-254 471 q-41 74 -64.5 119t-43 70.5t-41 33.5t-57.5 8q-41 0 -52.5 12.5t-11.5 28.5zM631 1638l289 314q14 16 40.5 34.5t49.5 18.5q43 0 73.5 -20.5t30.5 -67.5q0 -31 -15.5 -46.5t-37.5 -29.5l-326 -203h-104z" />
<glyph unicode="&#xde;" horiz-adv-x="1366" d="M25 1403q0 41 5 49t31 8q90 0 177.5 -4t177.5 -4t177 4t177 4q27 0 32 -8t5 -49q0 -10 -16.5 -17.5t-36.5 -7.5q-68 0 -104 -5t-52 -26.5t-19.5 -66.5t-3.5 -125q0 -31 31 -31q35 0 85 4.5t122 4.5q139 0 236.5 -26t158 -71t88 -107.5t27.5 -137.5q0 -88 -28.5 -161 t-93 -126t-168 -83t-251.5 -30q-51 0 -105 6t-102 15v-105q0 -76 3.5 -121t20.5 -69.5t54 -31.5t105 -7q55 0 67.5 -8.5t12.5 -46.5q0 -14 -7.5 -20.5t-29.5 -6.5q-113 0 -204 2t-181 2t-177 -2t-178 -2q-27 0 -26 27q0 39 11 47t58 8q55 0 86 9t45.5 42t17.5 97.5t3 176.5 v705q0 92 -4 145.5t-22.5 81t-54.5 35.5t-97 8q-20 0 -36.5 7.5t-16.5 17.5zM575 524q0 -12 8.5 -20t20.5 -12.5t25.5 -6.5t21.5 -2q156 0 244 76t88 227q0 145 -81 205t-234 60q-35 0 -53.5 -7.5t-27.5 -20.5t-10.5 -32.5t-1.5 -44.5v-422z" />
<glyph unicode="&#xdf;" horiz-adv-x="1175" d="M0 836q0 8 18.5 14t44 12t52 15.5t41.5 27.5q10 12 22 119q18 158 83 257t146.5 154.5t162.5 76t130 20.5q47 0 104.5 -14.5t107 -45t83 -81t33.5 -121.5q0 -68 -26.5 -115t-74.5 -80t-115 -54.5t-148 -35.5v-4q115 -35 197.5 -93.5t136 -133t79 -161.5t25.5 -181 q0 -92 -27.5 -172t-77 -139.5t-114 -93.5t-138.5 -34q-76 0 -129 54.5t-53 140.5q0 20 6 45t18.5 46.5t32 35.5t44.5 14q35 0 63.5 -18.5t28.5 -59.5q0 -29 -10.5 -45t-23.5 -28.5t-23.5 -22.5t-10.5 -29q0 -29 20.5 -44t47.5 -15q18 0 36.5 8t34 29.5t24.5 59.5t9 100 q0 117 -29.5 231.5t-74.5 211.5t-99.5 169t-101.5 100q-6 4 -9 10.5t-3 22.5q0 6 1 13.5t9 11.5q92 33 153.5 101.5t61.5 170.5q0 74 -30.5 123t-102.5 49q-35 0 -71 -18.5t-64.5 -63.5t-48 -119.5t-19.5 -187.5v-917q0 -29 8.5 -45.5t18.5 -23.5t19 -9t14 -2q41 -4 53 -9.5 t12 -17.5q0 -29 -2 -38t-16 -9q-47 0 -108.5 2t-129.5 2q-66 0 -130.5 -2t-125.5 -2q-14 0 -16 9t-2 38q0 12 14 17.5t72 9.5q4 0 13 2t19.5 9t18.5 23.5t8 45.5v481q0 88 -4 118.5t-31 30.5h-96q-29 0 -35 10.5t-6 43.5z" />
<glyph unicode="&#xe0;" horiz-adv-x="985" d="M72 164q0 47 16 81t41 58.5t52.5 39.5t49.5 26l328 141v188q0 27 -14.5 51.5t-37 43t-52 28.5t-60.5 10q-14 0 -35.5 -8t-42 -20t-35 -27.5t-14.5 -30.5q0 -8 14.5 -32.5t14.5 -40.5q0 -57 -33 -86t-92 -29q-41 0 -70.5 23.5t-29.5 70.5q0 25 8 45.5t29.5 42t59.5 47 t95 60.5q55 33 90 51t61.5 27.5t48 11.5t52.5 2q113 0 175.5 -32t90 -73.5t32.5 -84.5t5 -64v-532q0 -18 7.5 -35t31.5 -17q20 0 32.5 7.5t22 16.5t16.5 17.5t17 8.5q4 0 18.5 -11.5t14.5 -17.5q0 -12 -20.5 -37t-55.5 -49.5t-80 -43t-92 -18.5q-59 0 -105 34t-63 93 q-55 -55 -129 -91t-153 -36q-92 0 -150.5 47.5t-58.5 143.5zM172 1364q0 47 30.5 67.5t73.5 20.5q23 0 49.5 -18.5t41.5 -34.5l288 -314h-104l-326 203q-23 14 -38 29.5t-15 46.5zM324 207q0 -16 4 -34.5t15 -35t29.5 -27t47.5 -10.5q14 0 37.5 7.5t46 19.5t39 26.5 t16.5 30.5v23v227q-66 -27 -111 -47t-72.5 -44t-39.5 -55.5t-12 -80.5z" />
<glyph unicode="&#xe1;" horiz-adv-x="985" d="M72 164q0 47 16 81t41 58.5t52.5 39.5t49.5 26l328 141v188q0 27 -14.5 51.5t-37 43t-52 28.5t-60.5 10q-14 0 -35.5 -8t-42 -20t-35 -27.5t-14.5 -30.5q0 -8 14.5 -32.5t14.5 -40.5q0 -57 -33 -86t-92 -29q-41 0 -70.5 23.5t-29.5 70.5q0 25 8 45.5t29.5 42t59.5 47 t95 60.5q55 33 90 51t61.5 27.5t48 11.5t52.5 2q113 0 175.5 -32t90 -73.5t32.5 -84.5t5 -64v-532q0 -18 7.5 -35t31.5 -17q20 0 32.5 7.5t22 16.5t16.5 17.5t17 8.5q4 0 18.5 -11.5t14.5 -17.5q0 -12 -20.5 -37t-55.5 -49.5t-80 -43t-92 -18.5q-59 0 -105 34t-63 93 q-55 -55 -129 -91t-153 -36q-92 0 -150.5 47.5t-58.5 143.5zM324 207q0 -16 4 -34.5t15 -35t29.5 -27t47.5 -10.5q14 0 37.5 7.5t46 19.5t39 26.5t16.5 30.5v23v227q-66 -27 -111 -47t-72.5 -44t-39.5 -55.5t-12 -80.5zM332 1085l289 314q14 16 40.5 34.5t49.5 18.5 q43 0 73.5 -20.5t30.5 -67.5q0 -31 -15.5 -46t-37.5 -30l-326 -203h-104z" />
<glyph unicode="&#xe2;" horiz-adv-x="985" d="M72 164q0 47 16 81t41 58.5t52.5 39.5t49.5 26l328 141v188q0 27 -14.5 51.5t-37 43t-52 28.5t-60.5 10q-14 0 -35.5 -8t-42 -20t-35 -27.5t-14.5 -30.5q0 -8 14.5 -32.5t14.5 -40.5q0 -57 -33 -86t-92 -29q-41 0 -70.5 23.5t-29.5 70.5q0 25 8 45.5t29.5 42t59.5 47 t95 60.5q55 33 90 51t61.5 27.5t48 11.5t52.5 2q113 0 175.5 -32t90 -73.5t32.5 -84.5t5 -64v-532q0 -18 7.5 -35t31.5 -17q20 0 32.5 7.5t22 16.5t16.5 17.5t17 8.5q4 0 18.5 -11.5t14.5 -17.5q0 -12 -20.5 -37t-55.5 -49.5t-80 -43t-92 -18.5q-59 0 -105 34t-63 93 q-55 -55 -129 -91t-153 -36q-92 0 -150.5 47.5t-58.5 143.5zM131 1100l248 340h168l248 -340h-82l-250 200l-250 -200h-82zM324 207q0 -16 4 -34.5t15 -35t29.5 -27t47.5 -10.5q14 0 37.5 7.5t46 19.5t39 26.5t16.5 30.5v23v227q-66 -27 -111 -47t-72.5 -44t-39.5 -55.5 t-12 -80.5z" />
<glyph unicode="&#xe3;" horiz-adv-x="985" d="M72 164q0 47 16 81t41 58.5t52.5 39.5t49.5 26l328 141v188q0 27 -14.5 51.5t-37 43t-52 28.5t-60.5 10q-14 0 -35.5 -8t-42 -20t-35 -27.5t-14.5 -30.5q0 -8 14.5 -32.5t14.5 -40.5q0 -57 -33 -86t-92 -29q-41 0 -70.5 23.5t-29.5 70.5q0 25 8 45.5t29.5 42t59.5 47 t95 60.5q55 33 90 51t61.5 27.5t48 11.5t52.5 2q113 0 175.5 -32t90 -73.5t32.5 -84.5t5 -64v-532q0 -18 7.5 -35t31.5 -17q20 0 32.5 7.5t22 16.5t16.5 17.5t17 8.5q4 0 18.5 -11.5t14.5 -17.5q0 -12 -20.5 -37t-55.5 -49.5t-80 -43t-92 -18.5q-59 0 -105 34t-63 93 q-55 -55 -129 -91t-153 -36q-92 0 -150.5 47.5t-58.5 143.5zM139 1130q8 43 25.5 85t45.5 74t65.5 52.5t86.5 20.5q41 0 81 -13.5t79 -29.5q41 -16 77 -30.5t67 -14.5q41 0 69.5 24.5t38.5 65.5h74q-8 -43 -25.5 -84t-46.5 -74q-29 -35 -66.5 -54t-86.5 -19q-43 0 -86 14 t-84 31q-41 16 -75 30.5t-61 14.5q-39 0 -68.5 -28t-35.5 -65h-74zM324 207q0 -16 4 -34.5t15 -35t29.5 -27t47.5 -10.5q14 0 37.5 7.5t46 19.5t39 26.5t16.5 30.5v23v227q-66 -27 -111 -47t-72.5 -44t-39.5 -55.5t-12 -80.5z" />
<glyph unicode="&#xe4;" horiz-adv-x="985" d="M72 164q0 47 16 81t41 58.5t52.5 39.5t49.5 26l328 141v188q0 27 -14.5 51.5t-37 43t-52 28.5t-60.5 10q-14 0 -35.5 -8t-42 -20t-35 -27.5t-14.5 -30.5q0 -8 14.5 -32.5t14.5 -40.5q0 -57 -33 -86t-92 -29q-41 0 -70.5 23.5t-29.5 70.5q0 25 8 45.5t29.5 42t59.5 47 t95 60.5q55 33 90 51t61.5 27.5t48 11.5t52.5 2q113 0 175.5 -32t90 -73.5t32.5 -84.5t5 -64v-532q0 -18 7.5 -35t31.5 -17q20 0 32.5 7.5t22 16.5t16.5 17.5t17 8.5q4 0 18.5 -11.5t14.5 -17.5q0 -12 -20.5 -37t-55.5 -49.5t-80 -43t-92 -18.5q-59 0 -105 34t-63 93 q-55 -55 -129 -91t-153 -36q-92 0 -150.5 47.5t-58.5 143.5zM150 1239q0 55 38.5 94t94.5 39q55 0 94 -39t39 -94t-39 -94t-94 -39t-94 39t-39 94zM324 207q0 -16 4 -34.5t15 -35t29.5 -27t47.5 -10.5q14 0 37.5 7.5t46 19.5t39 26.5t16.5 30.5v23v227q-66 -27 -111 -47 t-72.5 -44t-39.5 -55.5t-12 -80.5zM571 1239q0 55 39 94t95 39q55 0 94 -39t39 -94t-39 -94t-94 -39t-94.5 39t-39.5 94z" />
<glyph unicode="&#xe5;" horiz-adv-x="985" d="M72 164q0 47 16 81t41 58.5t52.5 39.5t49.5 26l328 141v188q0 27 -14.5 51.5t-37 43t-52 28.5t-60.5 10q-14 0 -35.5 -8t-42 -20t-35 -27.5t-14.5 -30.5q0 -8 14.5 -32.5t14.5 -40.5q0 -57 -33 -86t-92 -29q-41 0 -70.5 23.5t-29.5 70.5q0 25 8 45.5t29.5 42t59.5 47 t95 60.5q55 33 90 51t61.5 27.5t48 11.5t52.5 2q113 0 175.5 -32t90 -73.5t32.5 -84.5t5 -64v-532q0 -18 7.5 -35t31.5 -17q20 0 32.5 7.5t22 16.5t16.5 17.5t17 8.5q4 0 18.5 -11.5t14.5 -17.5q0 -12 -20.5 -37t-55.5 -49.5t-80 -43t-92 -18.5q-59 0 -105 34t-63 93 q-55 -55 -129 -91t-153 -36q-92 0 -150.5 47.5t-58.5 143.5zM238 1264q0 47 19 87t52 68.5t75 45t87 16.5t85 -19.5t69.5 -51.5t47 -74t17.5 -85q0 -47 -18.5 -88t-50 -71.5t-73.5 -48t-89 -17.5t-88 20.5t-71 53.5t-46 76t-16 88zM324 207q0 -16 4 -34.5t15 -35t29.5 -27 t47.5 -10.5q14 0 37.5 7.5t46 19.5t39 26.5t16.5 30.5v23v227q-66 -27 -111 -47t-72.5 -44t-39.5 -55.5t-12 -80.5zM332 1255q0 -59 41 -97t98 -38q47 0 86 38t39 85q0 61 -38 102t-101 41q-49 0 -87 -40.5t-38 -90.5z" />
<glyph unicode="&#xe6;" horiz-adv-x="1441" d="M59 164q0 47 16.5 81t41 58.5t52.5 39.5t50 26l328 141v188q0 27 -14.5 51.5t-37 43t-52 28.5t-60.5 10q-14 0 -35.5 -8t-42 -20t-35 -27.5t-14.5 -30.5q0 -8 14.5 -32.5t14.5 -40.5q0 -57 -33 -86t-92 -29q-41 0 -71 23.5t-30 70.5q0 25 8.5 45.5t30 42t59.5 47t95 60.5 q55 33 90 51t61.5 27.5t48 11.5t52.5 2q74 0 134 -17.5t116 -76.5q45 51 108.5 78.5t151.5 27.5q129 0 202.5 -42t109.5 -94t45 -97t9 -49q0 -8 -12 -14.5t-31.5 -12.5t-42 -11t-43.5 -12l-452 -135v-34q0 -68 14 -125.5t47 -100.5t83 -67.5t124 -24.5q84 0 137 22.5t86 50 t49.5 50t28.5 22.5q4 0 22.5 -7t18.5 -19q0 -4 -19.5 -48t-67.5 -94.5t-132 -92.5t-213 -42q-111 0 -199 33t-166 117q-70 -57 -157.5 -103.5t-186.5 -46.5q-92 0 -150.5 47.5t-58.5 143.5zM311 207q0 -16 4 -34.5t15.5 -35t30 -27t47.5 -10.5q14 0 37.5 7.5t46 19.5 t39 26.5t16.5 30.5v23v227q-66 -27 -111 -47t-72.5 -44t-40 -55.5t-12.5 -80.5zM799 559l280 88q23 6 30 19.5t7 35.5q0 33 -11 65t-30.5 56.5t-48.5 39t-63 14.5q-53 0 -86 -31t-50.5 -77t-22.5 -102.5t-5 -107.5z" />
<glyph unicode="&#xe7;" horiz-adv-x="985" d="M59 459q0 113 41 204t114 155.5t169 98t207 33.5q121 0 192.5 -25.5t110.5 -59.5t50 -68.5t11 -53.5q0 -53 -31.5 -86.5t-84.5 -33.5t-80 18t-39 47t-16.5 61.5t-13.5 61.5t-30.5 47.5t-66.5 18.5q-72 0 -118 -40t-73.5 -98.5t-39 -127t-11.5 -124.5q0 -74 20.5 -140 t60.5 -117.5t100.5 -81t140.5 -29.5q55 0 98 18.5t75 40t51.5 40t25.5 18.5q10 0 25.5 -13.5t15.5 -23.5q0 -4 -27 -39t-80 -77t-132 -76t-183 -34h-22.5t-22.5 2l-39 -81q27 6 57 6q82 0 134 -32t52 -120q0 -47 -24.5 -77.5t-61 -51t-81 -29t-80.5 -8.5q-53 0 -103.5 6 t-99.5 25l33 74q29 -10 59.5 -18.5t60.5 -8.5q45 0 83 16.5t38 69.5q0 39 -29.5 56.5t-64.5 17.5q-16 0 -30.5 -1t-28.5 -9l-23 16l70 162q-82 18 -147.5 60t-112.5 103.5t-73 139.5t-26 168z" />
<glyph unicode="&#xe8;" horiz-adv-x="1062" d="M80 455q0 100 33.5 190t95 157.5t147.5 107.5t191 40q129 0 213 -41t135 -98t71.5 -118.5t20.5 -100.5q0 -33 -8 -39t-35 -6h-588q-2 -18 -3 -28.5t-1 -16.5q0 -63 18.5 -128t58.5 -117t103.5 -86t153.5 -34q76 0 124 22.5t78 48t44 48.5t24 23q14 0 27.5 -7.5 t13.5 -23.5q0 -10 -21.5 -54t-71.5 -93.5t-133 -88.5t-208 -39q-147 0 -240.5 52.5t-147.5 128t-74.5 157.5t-20.5 144zM211 1364q0 47 30.5 67.5t73.5 20.5q23 0 49.5 -18.5t41.5 -34.5l288 -314h-104l-326 203q-23 14 -38 29.5t-15 46.5zM362 627q82 -6 164 -6q61 0 97 3 t54.5 11t24 22.5t5.5 36.5q0 78 -42 130.5t-124 52.5q-45 0 -79 -25t-55.5 -61.5t-33 -80.5t-11.5 -83z" />
<glyph unicode="&#xe9;" horiz-adv-x="1062" d="M80 455q0 100 33.5 190t95 157.5t147.5 107.5t191 40q129 0 213 -41t135 -98t71.5 -118.5t20.5 -100.5q0 -33 -8 -39t-35 -6h-588q-2 -18 -3 -28.5t-1 -16.5q0 -63 18.5 -128t58.5 -117t103.5 -86t153.5 -34q76 0 124 22.5t78 48t44 48.5t24 23q14 0 27.5 -7.5 t13.5 -23.5q0 -10 -21.5 -54t-71.5 -93.5t-133 -88.5t-208 -39q-147 0 -240.5 52.5t-147.5 128t-74.5 157.5t-20.5 144zM362 627q82 -6 164 -6q61 0 97 3t54.5 11t24 22.5t5.5 36.5q0 78 -42 130.5t-124 52.5q-45 0 -79 -25t-55.5 -61.5t-33 -80.5t-11.5 -83zM371 1085 l288 314q14 16 41 34.5t50 18.5q43 0 73.5 -20.5t30.5 -67.5q0 -31 -15.5 -46t-37.5 -30l-326 -203h-104z" />
<glyph unicode="&#xea;" horiz-adv-x="1062" d="M80 455q0 100 33.5 190t95 157.5t147.5 107.5t191 40q129 0 213 -41t135 -98t71.5 -118.5t20.5 -100.5q0 -33 -8 -39t-35 -6h-588q-2 -18 -3 -28.5t-1 -16.5q0 -63 18.5 -128t58.5 -117t103.5 -86t153.5 -34q76 0 124 22.5t78 48t44 48.5t24 23q14 0 27.5 -7.5 t13.5 -23.5q0 -10 -21.5 -54t-71.5 -93.5t-133 -88.5t-208 -39q-147 0 -240.5 52.5t-147.5 128t-74.5 157.5t-20.5 144zM221 1100l248 340h168l248 -340h-82l-250 200l-250 -200h-82zM362 627q82 -6 164 -6q61 0 97 3t54.5 11t24 22.5t5.5 36.5q0 78 -42 130.5t-124 52.5 q-45 0 -79 -25t-55.5 -61.5t-33 -80.5t-11.5 -83z" />
<glyph unicode="&#xeb;" horiz-adv-x="1062" d="M80 455q0 100 33.5 190t95 157.5t147.5 107.5t191 40q129 0 213 -41t135 -98t71.5 -118.5t20.5 -100.5q0 -33 -8 -39t-35 -6h-588q-2 -18 -3 -28.5t-1 -16.5q0 -63 18.5 -128t58.5 -117t103.5 -86t153.5 -34q76 0 124 22.5t78 48t44 48.5t24 23q14 0 27.5 -7.5 t13.5 -23.5q0 -10 -21.5 -54t-71.5 -93.5t-133 -88.5t-208 -39q-147 0 -240.5 52.5t-147.5 128t-74.5 157.5t-20.5 144zM188 1239q0 55 39 94t95 39q55 0 94 -39t39 -94t-39 -94t-94 -39t-94.5 39t-39.5 94zM362 627q82 -6 164 -6q61 0 97 3t54.5 11t24 22.5t5.5 36.5 q0 78 -42 130.5t-124 52.5q-45 0 -79 -25t-55.5 -61.5t-33 -80.5t-11.5 -83zM610 1239q0 55 39 94t94 39t94.5 -39t39.5 -94t-39 -94t-95 -39q-55 0 -94 39t-39 94z" />
<glyph unicode="&#xec;" horiz-adv-x="606" d="M-18 1364q0 47 30.5 67.5t73.5 20.5q23 0 49.5 -18.5t40.5 -34.5l289 -314h-105l-325 203q-23 14 -38 29.5t-15 46.5zM27 45q0 12 14 17.5t72 9.5q4 0 13 2t19.5 9t18.5 23.5t8 45.5v475q0 47 -6 75.5t-20.5 45t-38 24.5t-58.5 16q-14 4 -17 10.5t-3 20.5q0 20 10 25 q106 18 178 41.5t115 43t62.5 33t23.5 13.5q10 0 17 -9.5t7 -19.5q0 -12 -5 -90t-5 -225v-479q0 -29 8.5 -45.5t18.5 -23.5t19 -9t14 -2q57 -4 71.5 -9.5t14.5 -17.5q0 -29 -2.5 -38t-16.5 -9q-61 0 -125.5 2t-132.5 2q-66 0 -130.5 -2t-125.5 -2q-14 0 -16 9t-2 38z" />
<glyph unicode="&#xed;" horiz-adv-x="606" d="M27 45q0 12 14 17.5t72 9.5q4 0 13 2t19.5 9t18.5 23.5t8 45.5v475q0 47 -6 75.5t-20.5 45t-38 24.5t-58.5 16q-14 4 -17 10.5t-3 20.5q0 20 10 25q106 18 178 41.5t115 43t62.5 33t23.5 13.5q10 0 17 -9.5t7 -19.5q0 -12 -5 -90t-5 -225v-479q0 -29 8.5 -45.5 t18.5 -23.5t19 -9t14 -2q57 -4 71.5 -9.5t14.5 -17.5q0 -29 -2.5 -38t-16.5 -9q-61 0 -125.5 2t-132.5 2q-66 0 -130.5 -2t-125.5 -2q-14 0 -16 9t-2 38zM141 1085l289 314q14 16 41 34.5t49 18.5q43 0 74 -20.5t31 -67.5q0 -31 -15.5 -46t-38.5 -30l-325 -203h-105z" />
<glyph unicode="&#xee;" horiz-adv-x="606" d="M-29 1100l248 340h168l248 -340h-82l-250 200l-250 -200h-82zM27 45q0 12 14 17.5t72 9.5q4 0 13 2t19.5 9t18.5 23.5t8 45.5v475q0 47 -6 75.5t-20.5 45t-38 24.5t-58.5 16q-14 4 -17 10.5t-3 20.5q0 20 10 25q106 18 178 41.5t115 43t62.5 33t23.5 13.5q10 0 17 -9.5 t7 -19.5q0 -12 -5 -90t-5 -225v-479q0 -29 8.5 -45.5t18.5 -23.5t19 -9t14 -2q57 -4 71.5 -9.5t14.5 -17.5q0 -29 -2.5 -38t-16.5 -9q-61 0 -125.5 2t-132.5 2q-66 0 -130.5 -2t-125.5 -2q-14 0 -16 9t-2 38z" />
<glyph unicode="&#xef;" horiz-adv-x="606" d="M-41 1239q0 55 39 94t94 39t94 -39t39 -94t-39 -94t-94 -39t-94 39t-39 94zM27 45q0 12 14 17.5t72 9.5q4 0 13 2t19.5 9t18.5 23.5t8 45.5v475q0 47 -6 75.5t-20.5 45t-38 24.5t-58.5 16q-14 4 -17 10.5t-3 20.5q0 20 10 25q106 18 178 41.5t115 43t62.5 33t23.5 13.5 q10 0 17 -9.5t7 -19.5q0 -12 -5 -90t-5 -225v-479q0 -29 8.5 -45.5t18.5 -23.5t19 -9t14 -2q57 -4 71.5 -9.5t14.5 -17.5q0 -29 -2.5 -38t-16.5 -9q-61 0 -125.5 2t-132.5 2q-66 0 -130.5 -2t-125.5 -2q-14 0 -16 9t-2 38zM381 1239q0 55 39 94t94 39t94 -39t39 -94t-39 -94 t-94 -39t-94 39t-39 94z" />
<glyph unicode="&#xf0;" horiz-adv-x="1175" d="M59 463q0 141 56.5 235.5t138.5 149.5t173 78.5t161 23.5q59 0 100 -12t64 -23q8 -4 21 -14t20 -10q6 0 6 20q0 18 -5.5 50t-22.5 71t-49 83t-83 89l-332 -200l-82 71l322 193q-51 39 -101.5 62.5t-90.5 36.5t-64.5 20.5t-24.5 15.5q0 16 2 21.5t8 9.5l72 41q8 6 21 6 q14 0 50 -8.5t81 -25.5t94 -41t92 -54l338 202l82 -69l-326 -197q63 -49 125 -114.5t108 -148.5t74.5 -185.5t28.5 -225.5q0 -193 -46 -316.5t-119.5 -196t-169 -100.5t-193.5 -28q-70 0 -161 23.5t-173 80t-138.5 151t-56.5 235.5zM362 461q0 -68 7.5 -140.5t31 -134 t67.5 -100.5t120 -39t120 39t67.5 100.5t30.5 135t7 141.5t-7 140.5t-30.5 134t-67.5 100.5t-120 39t-120 -39t-67.5 -100.5t-31 -135.5t-7.5 -141z" />
<glyph unicode="&#xf1;" horiz-adv-x="1214" d="M25 45q0 12 14 17.5t72 9.5q4 0 13 2t19.5 9t18.5 23.5t8 45.5v475q0 47 -6 75.5t-20.5 45t-38 24.5t-58.5 16q-14 4 -17 10.5t-3 20.5q0 20 10 25q106 18 178 41.5t115 43t62.5 33t23.5 13.5q2 0 9 -5t7 -14q0 -39 -3 -79.5t-3 -81.5q92 63 179 103t181 40 q113 0 187 -71.5t74 -194.5v-520q0 -29 8 -45.5t18 -23.5t19.5 -9t13.5 -2q57 -4 81.5 -9.5t24.5 -17.5q0 -29 -5 -38t-33 -9q-61 0 -126 2t-133 2q-66 0 -127 -2t-108 -2q-14 0 -16 9t-2 38q0 12 12 17.5t53 9.5q4 0 13.5 2t19.5 9t18 23.5t8 45.5v454q0 25 -7 56.5 t-26.5 61.5t-53 49.5t-85.5 19.5q-18 0 -43.5 -6.5t-52 -16.5t-49.5 -24.5t-35 -28.5q-4 -16 -4 -40v-46v-479q0 -29 8 -45.5t18.5 -23.5t19.5 -9t13 -2q57 -4 71.5 -9.5t14.5 -17.5q0 -29 -2 -38t-16 -9q-61 0 -125.5 2t-132.5 2q-66 0 -130.5 -2t-125.5 -2q-14 0 -16 9 t-2 38zM254 1130q8 43 25.5 85t45 74t65.5 52.5t87 20.5q41 0 81 -13.5t79 -29.5q41 -16 77 -30.5t66 -14.5q41 0 70 24.5t39 65.5h74q-8 -43 -25.5 -84t-46.5 -74q-29 -35 -67 -54t-87 -19q-43 0 -86 14t-84 31q-41 16 -74.5 30.5t-60.5 14.5q-39 0 -68.5 -28t-35.5 -65 h-74z" />
<glyph unicode="&#xf2;" horiz-adv-x="1175" d="M59 463q0 141 56.5 235.5t138.5 149.5t173 78.5t161 23.5t161 -23.5t173 -78.5t138 -149.5t56 -235.5t-56 -235.5t-138 -151t-173 -80t-161 -23.5t-161 23.5t-173 80t-138.5 151t-56.5 235.5zM266 1364q0 47 31 67.5t74 20.5q23 0 49 -18.5t41 -34.5l289 -314h-105 l-326 203q-23 14 -38 29.5t-15 46.5zM362 461q0 -68 7.5 -140.5t31 -134t67.5 -100.5t120 -39t120 39t67.5 100.5t30.5 135t7 141.5t-7 140.5t-30.5 134t-67.5 100.5t-120 39t-120 -39t-67.5 -100.5t-31 -135.5t-7.5 -141z" />
<glyph unicode="&#xf3;" horiz-adv-x="1175" d="M59 463q0 141 56.5 235.5t138.5 149.5t173 78.5t161 23.5t161 -23.5t173 -78.5t138 -149.5t56 -235.5t-56 -235.5t-138 -151t-173 -80t-161 -23.5t-161 23.5t-173 80t-138.5 151t-56.5 235.5zM362 461q0 -68 7.5 -140.5t31 -134t67.5 -100.5t120 -39t120 39t67.5 100.5 t30.5 135t7 141.5t-7 140.5t-30.5 134t-67.5 100.5t-120 39t-120 -39t-67.5 -100.5t-31 -135.5t-7.5 -141zM426 1085l289 314q14 16 40.5 34.5t49.5 18.5q43 0 73.5 -20.5t30.5 -67.5q0 -31 -15 -46t-38 -30l-326 -203h-104z" />
<glyph unicode="&#xf4;" horiz-adv-x="1175" d="M59 463q0 141 56.5 235.5t138.5 149.5t173 78.5t161 23.5t161 -23.5t173 -78.5t138 -149.5t56 -235.5t-56 -235.5t-138 -151t-173 -80t-161 -23.5t-161 23.5t-173 80t-138.5 151t-56.5 235.5zM256 1100l248 340h168l248 -340h-82l-250 200l-250 -200h-82zM362 461 q0 -68 7.5 -140.5t31 -134t67.5 -100.5t120 -39t120 39t67.5 100.5t30.5 135t7 141.5t-7 140.5t-30.5 134t-67.5 100.5t-120 39t-120 -39t-67.5 -100.5t-31 -135.5t-7.5 -141z" />
<glyph unicode="&#xf5;" horiz-adv-x="1175" d="M59 463q0 141 56.5 235.5t138.5 149.5t173 78.5t161 23.5t161 -23.5t173 -78.5t138 -149.5t56 -235.5t-56 -235.5t-138 -151t-173 -80t-161 -23.5t-161 23.5t-173 80t-138.5 151t-56.5 235.5zM233 1130q8 43 25.5 85t45.5 74t66 52.5t87 20.5q41 0 81 -13.5t78 -29.5 q41 -16 77 -30.5t67 -14.5q41 0 69.5 24.5t38.5 65.5h74q-8 -43 -25.5 -84t-46.5 -74q-29 -35 -66.5 -54t-86.5 -19q-43 0 -86 14t-84 31q-41 16 -75 30.5t-60 14.5q-39 0 -69 -28t-36 -65h-74zM362 461q0 -68 7.5 -140.5t31 -134t67.5 -100.5t120 -39t120 39t67.5 100.5 t30.5 135t7 141.5t-7 140.5t-30.5 134t-67.5 100.5t-120 39t-120 -39t-67.5 -100.5t-31 -135.5t-7.5 -141z" />
<glyph unicode="&#xf6;" horiz-adv-x="1175" d="M59 463q0 141 56.5 235.5t138.5 149.5t173 78.5t161 23.5t161 -23.5t173 -78.5t138 -149.5t56 -235.5t-56 -235.5t-138 -151t-173 -80t-161 -23.5t-161 23.5t-173 80t-138.5 151t-56.5 235.5zM244 1239q0 55 39 94t94 39t94 -39t39 -94t-39 -94t-94 -39t-94 39t-39 94z M362 461q0 -68 7.5 -140.5t31 -134t67.5 -100.5t120 -39t120 39t67.5 100.5t30.5 135t7 141.5t-7 140.5t-30.5 134t-67.5 100.5t-120 39t-120 -39t-67.5 -100.5t-31 -135.5t-7.5 -141zM666 1239q0 55 38.5 94t94.5 39q55 0 94 -39t39 -94t-39 -94t-94 -39t-94 39t-39 94z " />
<glyph unicode="&#xf7;" d="M117 348v207h905v-207h-905zM444 125q0 51 36 88t89 37q51 0 88 -37t37 -88t-36.5 -88t-88.5 -37q-53 0 -89 37t-36 88zM444 778q0 51 36 88t89 37q51 0 88 -37t37 -88t-36.5 -88t-88.5 -37q-53 0 -89 37t-36 88z" />
<glyph unicode="&#xf8;" horiz-adv-x="1175" d="M59 4l129 127q-57 55 -93 137t-36 195q0 141 56.5 235.5t138.5 149.5t173 78.5t161 23.5q76 0 164 -22.5t170 -79.5l133 131l61 -59l-131 -129q59 -55 95 -136.5t36 -191.5q0 -141 -56 -235.5t-138 -151t-173.5 -80t-160.5 -23.5q-70 0 -160 23.5t-172 79.5l-135 -133z M362 461q0 -37 2.5 -76t8.5 -78l411 406q-23 72 -69.5 118t-126.5 46q-76 0 -120 -39t-67.5 -100.5t-31 -135.5t-7.5 -141zM391 209q25 -72 71 -117t126 -45q76 0 120 39t67.5 100.5t30.5 135t7 141.5q0 37 -3 76t-7 77z" />
<glyph unicode="&#xf9;" horiz-adv-x="1214" d="M16 862q0 8 2 19.5t13 11.5q98 2 197.5 6t205.5 8v-532q0 -123 35 -189.5t145 -66.5q16 0 44 6t55.5 16.5t47 25.5t19.5 34v454q0 66 -9 101t-27.5 51t-44 19t-58.5 3q-14 0 -16 6.5t-2 26.5q0 8 2 19.5t12 11.5q98 2 198.5 6t215.5 8q-4 -86 -7.5 -163.5t-3.5 -133.5 v-430q0 -37 9.5 -53t50.5 -16q16 0 29.5 2t29.5 2q8 0 13.5 -3t5.5 -24q0 -25 -3.5 -33t-19.5 -10q-63 -6 -123.5 -18.5t-109.5 -22.5q-47 -12 -81 -21.5t-44 -9.5q-8 0 -16.5 9.5t-8.5 42.5q0 10 2 28.5t2 46.5q-63 -51 -145 -89t-166 -38q-109 0 -168 37t-87 96.5t-32 135 t-4 153.5v260q0 66 -9 101t-27.5 51t-44 19t-58.5 3q-14 0 -16.5 6.5t-2.5 26.5zM287 1364q0 47 30.5 67.5t73.5 20.5q23 0 49.5 -18.5t40.5 -34.5l289 -314h-104l-326 203q-23 14 -38 29.5t-15 46.5z" />
<glyph unicode="&#xfa;" horiz-adv-x="1214" d="M16 862q0 8 2 19.5t13 11.5q98 2 197.5 6t205.5 8v-532q0 -123 35 -189.5t145 -66.5q16 0 44 6t55.5 16.5t47 25.5t19.5 34v454q0 66 -9 101t-27.5 51t-44 19t-58.5 3q-14 0 -16 6.5t-2 26.5q0 8 2 19.5t12 11.5q98 2 198.5 6t215.5 8q-4 -86 -7.5 -163.5t-3.5 -133.5 v-430q0 -37 9.5 -53t50.5 -16q16 0 29.5 2t29.5 2q8 0 13.5 -3t5.5 -24q0 -25 -3.5 -33t-19.5 -10q-63 -6 -123.5 -18.5t-109.5 -22.5q-47 -12 -81 -21.5t-44 -9.5q-8 0 -16.5 9.5t-8.5 42.5q0 10 2 28.5t2 46.5q-63 -51 -145 -89t-166 -38q-109 0 -168 37t-87 96.5t-32 135 t-4 153.5v260q0 66 -9 101t-27.5 51t-44 19t-58.5 3q-14 0 -16.5 6.5t-2.5 26.5zM446 1085l289 314q14 16 41 34.5t49 18.5q43 0 74 -20.5t31 -67.5q0 -31 -15.5 -46t-37.5 -30l-326 -203h-105z" />
<glyph unicode="&#xfb;" horiz-adv-x="1214" d="M16 862q0 8 2 19.5t13 11.5q98 2 197.5 6t205.5 8v-532q0 -123 35 -189.5t145 -66.5q16 0 44 6t55.5 16.5t47 25.5t19.5 34v454q0 66 -9 101t-27.5 51t-44 19t-58.5 3q-14 0 -16 6.5t-2 26.5q0 8 2 19.5t12 11.5q98 2 198.5 6t215.5 8q-4 -86 -7.5 -163.5t-3.5 -133.5 v-430q0 -37 9.5 -53t50.5 -16q16 0 29.5 2t29.5 2q8 0 13.5 -3t5.5 -24q0 -25 -3.5 -33t-19.5 -10q-63 -6 -123.5 -18.5t-109.5 -22.5q-47 -12 -81 -21.5t-44 -9.5q-8 0 -16.5 9.5t-8.5 42.5q0 10 2 28.5t2 46.5q-63 -51 -145 -89t-166 -38q-109 0 -168 37t-87 96.5t-32 135 t-4 153.5v260q0 66 -9 101t-27.5 51t-44 19t-58.5 3q-14 0 -16.5 6.5t-2.5 26.5zM276 1100l248 340h168l248 -340h-82l-250 200l-250 -200h-82z" />
<glyph unicode="&#xfc;" horiz-adv-x="1214" d="M16 862q0 8 2 19.5t13 11.5q98 2 197.5 6t205.5 8v-532q0 -123 35 -189.5t145 -66.5q16 0 44 6t55.5 16.5t47 25.5t19.5 34v454q0 66 -9 101t-27.5 51t-44 19t-58.5 3q-14 0 -16 6.5t-2 26.5q0 8 2 19.5t12 11.5q98 2 198.5 6t215.5 8q-4 -86 -7.5 -163.5t-3.5 -133.5 v-430q0 -37 9.5 -53t50.5 -16q16 0 29.5 2t29.5 2q8 0 13.5 -3t5.5 -24q0 -25 -3.5 -33t-19.5 -10q-63 -6 -123.5 -18.5t-109.5 -22.5q-47 -12 -81 -21.5t-44 -9.5q-8 0 -16.5 9.5t-8.5 42.5q0 10 2 28.5t2 46.5q-63 -51 -145 -89t-166 -38q-109 0 -168 37t-87 96.5t-32 135 t-4 153.5v260q0 66 -9 101t-27.5 51t-44 19t-58.5 3q-14 0 -16.5 6.5t-2.5 26.5zM264 1239q0 55 39 94t94 39t94 -39t39 -94t-38.5 -94t-94.5 -39q-55 0 -94 39t-39 94zM686 1239q0 55 39 94t94 39t94 -39t39 -94t-39 -94t-94 -39t-94 39t-39 94z" />
<glyph unicode="&#xfd;" horiz-adv-x="1024" d="M-41 870q0 12 4 24.5t31 12.5q10 0 25.5 -1t41 -2t65.5 -2t97 -1q72 0 119 1t77 2t47 2t30 1q16 0 18 -12t2 -25q0 -16 -4 -26t-33 -10q-8 0 -21.5 -2.5t-26.5 -7.5t-22.5 -15t-9.5 -25q0 -29 12.5 -74.5t31 -100t40 -111t43 -107.5t39 -91t25.5 -58q18 37 55 112.5 t74 158.5t65.5 155.5t28.5 105.5q0 25 -12.5 42.5t-71.5 17.5q-27 0 -41 2t-20 7t-7.5 12t-1.5 19q0 20 5.5 26.5t27.5 6.5q18 0 55 -3t117 -3q86 0 121 3t57 3q18 0 21.5 -11t3.5 -26q0 -8 -7 -22t-44 -14q-23 0 -41.5 -12.5t-33.5 -32t-28.5 -44t-23.5 -47.5l-426 -940 q-27 -57 -52.5 -113.5t-57 -101.5t-72.5 -72.5t-99 -27.5q-49 0 -90 34t-41 87t35 91t88 38q27 0 45.5 -8.5t33.5 -17.5t26.5 -17t21.5 -8q16 0 37.5 37.5t42 86t34 90.5t13.5 52q0 25 -11 59.5t-25.5 72.5t-31 71.5t-24.5 54.5q-49 109 -90 214t-73 192t-52.5 145.5 t-26.5 70.5t-12 21.5t-16.5 14.5t-28 7.5t-45.5 2.5q-25 0 -29 11t-4 25zM350 1085l289 314q14 16 41 34.5t49 18.5q43 0 74 -20.5t31 -67.5q0 -31 -15.5 -46t-38.5 -30l-325 -203h-105z" />
<glyph unicode="&#xfe;" horiz-adv-x="1175" d="M4 1432q0 10 3 17t13.5 11t31 8.5t54.5 8.5q57 6 109.5 19t93.5 26.5t67.5 22.5t33.5 9q4 0 12 -5t8 -15q0 -37 -3 -66.5t-6 -71.5t-6 -107.5t-3 -178.5v-252q53 47 114.5 69.5t114.5 22.5q219 0 347 -122.5t128 -344.5q0 -154 -43 -253t-108.5 -155.5t-147.5 -79 t-158 -22.5q-61 0 -121.5 7.5t-125.5 23.5v-379q0 -29 8 -45t18.5 -23.5t19.5 -9.5t13 -2q57 -4 83 -9t34 -17q0 -29 -3 -38t-26 -9q-78 0 -144.5 2t-133.5 2q-66 0 -130.5 -2t-125.5 -2q-14 0 -16.5 9t-2.5 38q0 12 14.5 17t71.5 9q4 0 13.5 2t19.5 9.5t18.5 24t8.5 44.5 v1616q0 49 -4.5 80t-18.5 47t-41 23.5t-70 11.5q-14 0 -14 29zM412 322q0 -135 46 -205t150 -70q31 0 67 13.5t66.5 55.5t51 116.5t20.5 197.5q0 61 -5 136t-26.5 139.5t-64.5 108.5t-119 44q-84 0 -135 -56.5t-51 -135.5v-344z" />
<glyph unicode="&#xff;" horiz-adv-x="1024" d="M-41 870q0 12 4 24.5t31 12.5q10 0 25.5 -1t41 -2t65.5 -2t97 -1q72 0 119 1t77 2t47 2t30 1q16 0 18 -12t2 -25q0 -16 -4 -26t-33 -10q-8 0 -21.5 -2.5t-26.5 -7.5t-22.5 -15t-9.5 -25q0 -29 12.5 -74.5t31 -100t40 -111t43 -107.5t39 -91t25.5 -58q18 37 55 112.5 t74 158.5t65.5 155.5t28.5 105.5q0 25 -12.5 42.5t-71.5 17.5q-27 0 -41 2t-20 7t-7.5 12t-1.5 19q0 20 5.5 26.5t27.5 6.5q18 0 55 -3t117 -3q86 0 121 3t57 3q18 0 21.5 -11t3.5 -26q0 -8 -7 -22t-44 -14q-23 0 -41.5 -12.5t-33.5 -32t-28.5 -44t-23.5 -47.5l-426 -940 q-27 -57 -52.5 -113.5t-57 -101.5t-72.5 -72.5t-99 -27.5q-49 0 -90 34t-41 87t35 91t88 38q27 0 45.5 -8.5t33.5 -17.5t26.5 -17t21.5 -8q16 0 37.5 37.5t42 86t34 90.5t13.5 52q0 25 -11 59.5t-25.5 72.5t-31 71.5t-24.5 54.5q-49 109 -90 214t-73 192t-52.5 145.5 t-26.5 70.5t-12 21.5t-16.5 14.5t-28 7.5t-45.5 2.5q-25 0 -29 11t-4 25zM199 1239q0 55 38.5 94t94.5 39q55 0 94 -39t39 -94t-39 -94t-94 -39t-94 39t-39 94zM621 1239q0 55 38.5 94t94.5 39q55 0 94 -39t39 -94t-39 -94t-94 -39t-94 39t-39 94z" />
<glyph unicode="&#x152;" horiz-adv-x="2314" d="M76 725q0 170 65.5 309.5t179 238.5t268 153.5t333.5 54.5q16 0 45.5 -4t64.5 -11q35 -4 68 -9t55 -5q297 0 472 1t269 3t128 3t47 1q6 0 13 -4t7 -10q0 -12 14.5 -55t30.5 -94.5t30.5 -94.5t14.5 -55q0 -14 -10 -16.5t-33 -2.5t-33 8.5t-43 49.5q-10 12 -27.5 32.5 t-39 43t-45 42t-45.5 31.5q-23 12 -39.5 18.5t-37 9.5t-53 4t-87.5 1q-74 0 -116 -2t-61.5 -13.5t-23.5 -37t-4 -72.5v-473h116q59 0 97.5 9t62 32t35.5 58.5t23 91.5q6 35 13 47t32 12t35 -4t10 -21q0 -8 -1 -24.5t-2 -47t-2 -77.5t-1 -117q0 -72 3 -138.5t3 -133.5 q0 -12 -14.5 -15.5t-43.5 -3.5q-10 0 -14 6.5t-10 38.5q-12 68 -24.5 108t-41 61.5t-81 28.5t-142.5 7h-53v-528q0 -29 6 -44.5t41 -24.5t112.5 -11t219.5 -2q72 0 120 20.5t74 55.5q43 61 68.5 96t42 53.5t27 23.5t24.5 5q25 0 35 -2t10 -13q0 -4 -11 -35.5t-27.5 -74.5 t-36 -92t-36.5 -88q-10 -23 -20 -27t-51 -4h-22.5t-43 1t-85 1t-146.5 1t-230.5 1h-332.5q-68 0 -122.5 -5t-97.5 -9q-45 -6 -78.5 -11.5t-62.5 -5.5q-172 0 -315.5 53.5t-247.5 151.5t-162.5 237.5t-58.5 313.5zM444 725q0 -96 19.5 -213t70 -219.5t137.5 -172t220 -69.5 q57 0 107.5 14.5t87 52.5t57 102.5t20.5 164.5v733q0 76 -22.5 129t-59.5 87t-86 49.5t-104 15.5q-139 0 -226 -62.5t-136.5 -161t-67 -218t-17.5 -232.5z" />
<glyph unicode="&#x153;" horiz-adv-x="1744" d="M59 463q0 141 56.5 235.5t138.5 149.5t173 78.5t161 23.5q102 0 184 -33.5t160 -109.5q20 20 44.5 46t61.5 47.5t88.5 35.5t122.5 14q129 0 213 -41t135.5 -98t72 -118.5t20.5 -100.5q0 -33 -8.5 -39t-34.5 -6h-588q-2 -18 -3 -28.5t-1 -16.5q0 -63 18.5 -128t58 -117 t103 -86t154.5 -34q76 0 124 22.5t77.5 48t44 48.5t24.5 23q14 0 27.5 -7.5t13.5 -23.5q0 -10 -21.5 -54t-72 -93.5t-133 -88.5t-207.5 -39q-86 0 -176.5 27t-161.5 102q-72 -61 -160 -95t-180 -34q-70 0 -161 23.5t-173 80t-138.5 151t-56.5 235.5zM362 461 q0 -68 7.5 -140.5t31 -134t67.5 -100.5t120 -39t120 39t67.5 100.5t30.5 135t7 141.5t-7 140.5t-30.5 134t-67.5 100.5t-120 39t-120 -39t-67.5 -100.5t-31 -135.5t-7.5 -141zM1065 627q82 -6 164 -6q61 0 97 3t54.5 11t23.5 22.5t5 36.5q0 78 -42 130.5t-124 52.5 q-45 0 -79 -25t-55.5 -61.5t-32.5 -80.5t-11 -83z" />
<glyph unicode="&#x178;" horiz-adv-x="1402" d="M-41 1419q0 16 3 28.5t20 12.5q102 0 196 -4t158 -4q63 0 143 4t185 4q16 0 20 -12t4 -23q0 -29 -8 -36t-59 -11q-59 -4 -81 -14t-22 -45q0 -16 54.5 -127t181.5 -346q39 -74 52 -98.5t17 -24.5q6 0 17.5 18.5t19.5 32.5q90 162 143.5 259t80 152.5t33.5 79t7 35.5 q0 16 -3 29.5t-13 24t-32.5 16.5t-61.5 8q-51 4 -61.5 12.5t-10.5 36.5q0 33 39 33q59 0 115.5 -4t115.5 -4q53 0 106.5 4t106.5 4q23 0 27 -10t4 -27q0 -27 -8 -35t-53 -10t-76 -13t-59 -48q-14 -18 -49 -78.5t-84.5 -151t-111 -205t-130.5 -241.5q-16 -31 -19.5 -42 t-3.5 -28v-168q0 -113 3 -177t17.5 -97t45 -42t86.5 -9q47 0 58 -8.5t11 -46.5q0 -27 -26 -27q-90 0 -177 2t-178 2q-90 0 -177 -2t-177 -2q-27 0 -26 27q0 39 11 47t58 8q55 0 86 9t45.5 42t17.5 97.5t3 176.5v134q0 8 -1 17t-7.5 23.5t-18.5 37t-33 61.5l-254 471 q-41 74 -64.5 119t-43 70.5t-41 33.5t-57.5 8q-41 0 -52.5 12.5t-11.5 28.5zM399 1792q0 55 39 94t94 39t94.5 -39t39.5 -94t-39 -94t-95 -39q-55 0 -94 39t-39 94zM821 1792q0 55 39 94t94 39t94 -39t39 -94t-38.5 -94t-94.5 -39q-55 0 -94 39t-39 94z" />
<glyph unicode="&#x2c6;" horiz-adv-x="569" d="M-47 1100l248 340h168l247 -340h-81l-250 200l-250 -200h-82z" />
<glyph unicode="&#x2dc;" horiz-adv-x="569" d="M-70 1130q8 43 25.5 85t45.5 74t65.5 52.5t87.5 20.5q41 0 80.5 -13.5t78.5 -29.5q41 -16 77 -30.5t67 -14.5q41 0 69.5 24.5t38.5 65.5h74q-8 -43 -25.5 -84t-46.5 -74q-29 -35 -66.5 -54t-86.5 -19q-43 0 -86 14t-84 31q-41 16 -75 30.5t-60 14.5q-39 0 -69 -28 t-36 -65h-74z" />
<glyph unicode="&#x2000;" horiz-adv-x="1017" />
<glyph unicode="&#x2001;" horiz-adv-x="2034" />
<glyph unicode="&#x2002;" horiz-adv-x="1017" />
<glyph unicode="&#x2003;" horiz-adv-x="2034" />
<glyph unicode="&#x2004;" horiz-adv-x="678" />
<glyph unicode="&#x2005;" horiz-adv-x="508" />
<glyph unicode="&#x2006;" horiz-adv-x="339" />
<glyph unicode="&#x2007;" horiz-adv-x="339" />
<glyph unicode="&#x2008;" horiz-adv-x="254" />
<glyph unicode="&#x2009;" horiz-adv-x="406" />
<glyph unicode="&#x200a;" horiz-adv-x="113" />
<glyph unicode="&#x2010;" horiz-adv-x="872" d="M104 416v135q0 14 9.5 24.5t25.5 10.5h594q35 0 35 -41v-133q0 -25 -31 -25h-606q-27 0 -27 29z" />
<glyph unicode="&#x2011;" horiz-adv-x="872" d="M104 416v135q0 14 9.5 24.5t25.5 10.5h594q35 0 35 -41v-133q0 -25 -31 -25h-606q-27 0 -27 29z" />
<glyph unicode="&#x2012;" horiz-adv-x="872" d="M104 416v135q0 14 9.5 24.5t25.5 10.5h594q35 0 35 -41v-133q0 -25 -31 -25h-606q-27 0 -27 29z" />
<glyph unicode="&#x2013;" horiz-adv-x="1024" d="M0 395v176h1024v-176h-1024z" />
<glyph unicode="&#x2014;" horiz-adv-x="2048" d="M0 395v176h2048v-176h-2048z" />
<glyph unicode="&#x2018;" horiz-adv-x="569" d="M100 1047q0 98 42 178t96.5 136t103.5 87t64 31q10 0 20 -15.5t10 -23.5q0 -12 -28.5 -31.5t-62.5 -53.5t-61.5 -87.5t-27.5 -128.5q0 -10 2 -23.5t12 -23.5h58q33 0 56.5 -13.5t37.5 -35t20.5 -46t6.5 -47.5q0 -33 -13.5 -61.5t-36 -49t-51.5 -32.5t-61 -12 q-53 0 -89 22.5t-57.5 58t-31 80.5t-9.5 91z" />
<glyph unicode="&#x2019;" horiz-adv-x="569" d="M121 1323q0 33 13 61.5t36 49t51.5 33t61.5 12.5q53 0 89 -22.5t57.5 -58.5t30.5 -81t9 -90q0 -98 -42 -178t-96.5 -136.5t-103.5 -87t-63 -30.5q-10 0 -20.5 15t-10.5 24q0 12 27.5 31.5t61.5 53t62.5 86t28.5 130.5q0 10 -2 23t-12 24h-57q-35 0 -57.5 13t-37 34.5 t-20.5 46t-6 47.5z" />
<glyph unicode="&#x201a;" horiz-adv-x="569" d="M121 141q0 33 13 61.5t36 49t51.5 33t61.5 12.5q53 0 89 -22.5t57.5 -58.5t30.5 -81t9 -90q0 -98 -42 -178t-96.5 -136.5t-103.5 -87t-63 -30.5q-10 0 -20.5 15.5t-10.5 23.5q0 12 27.5 31.5t61.5 53.5t62.5 86t28.5 130q0 10 -2 23.5t-12 23.5h-57q-35 0 -57.5 13.5 t-37 35t-20.5 46t-6 46.5z" />
<glyph unicode="&#x201c;" horiz-adv-x="1024" d="M102 1047q0 98 42 178t96.5 136t103.5 87t64 31q10 0 20 -15.5t10 -23.5q0 -12 -28.5 -31.5t-62.5 -53.5t-61.5 -87.5t-27.5 -128.5q0 -10 2 -23.5t12 -23.5h58q33 0 56.5 -13.5t37.5 -35t20.5 -46t6.5 -47.5q0 -33 -13.5 -61.5t-36 -49t-51 -32.5t-61.5 -12 q-53 0 -89 22.5t-57.5 58t-31 80.5t-9.5 91zM557 1047q0 98 42 178t96.5 136t103.5 87t63 31q10 0 20.5 -15.5t10.5 -23.5q0 -12 -28.5 -31.5t-62.5 -53.5t-61.5 -87.5t-27.5 -128.5q0 -10 2 -23.5t12 -23.5h57q33 0 56.5 -13.5t38 -35t20.5 -46t6 -47.5q0 -33 -13 -61.5 t-35.5 -49t-51.5 -32.5t-62 -12q-53 0 -89 22.5t-57.5 58t-30.5 80.5t-9 91z" />
<glyph unicode="&#x201d;" horiz-adv-x="1024" d="M119 1323q0 33 13 61.5t35.5 49t51.5 33t62 12.5q53 0 89 -22.5t57.5 -58.5t30.5 -81t9 -90q0 -98 -42 -178t-96.5 -136.5t-103.5 -87t-63 -30.5q-10 0 -20.5 15t-10.5 24q0 12 27.5 31.5t61.5 53t62.5 86t28.5 130.5q0 10 -2 23t-12 24h-57q-35 0 -57.5 13t-37 34.5 t-20.5 46t-6 47.5zM573 1323q0 33 13.5 61.5t36 49t51 33t61.5 12.5q53 0 89 -22.5t57.5 -58.5t31 -81t9.5 -90q0 -98 -42 -178t-96.5 -136.5t-103.5 -87t-64 -30.5q-10 0 -20 15t-10 24q0 12 27.5 31.5t61.5 53t62.5 86t28.5 130.5q0 10 -2 23t-12 24h-58q-35 0 -57.5 13 t-36.5 34.5t-20.5 46t-6.5 47.5z" />
<glyph unicode="&#x201e;" horiz-adv-x="1024" d="M119 141q0 33 13 61.5t35.5 49t51.5 33t62 12.5q53 0 89 -22.5t57.5 -58.5t30.5 -81t9 -90q0 -98 -42 -178t-96.5 -136.5t-103.5 -87t-63 -30.5q-10 0 -20.5 15.5t-10.5 23.5q0 12 27.5 31.5t61.5 53.5t62.5 86t28.5 130q0 10 -2 23.5t-12 23.5h-57q-35 0 -57.5 13.5 t-37 35t-20.5 46t-6 46.5zM573 141q0 33 13.5 61.5t36 49t51 33t61.5 12.5q53 0 89 -22.5t57.5 -58.5t31 -81t9.5 -90q0 -98 -42 -178t-96.5 -136.5t-103.5 -87t-64 -30.5q-10 0 -20 15.5t-10 23.5q0 12 27.5 31.5t61.5 53.5t62.5 86t28.5 130q0 10 -2 23.5t-12 23.5h-58 q-35 0 -57.5 13.5t-36.5 35t-20.5 46t-6.5 46.5z" />
<glyph unicode="&#x2022;" d="M199 727q0 78 29.5 145.5t79.5 117.5t118 79t143 29q76 0 143.5 -29t118 -79t80 -117.5t29.5 -145.5t-29.5 -145.5t-80 -117.5t-118 -79t-143.5 -29t-143.5 29t-117.5 79t-79.5 117.5t-29.5 145.5z" />
<glyph unicode="&#x2026;" horiz-adv-x="2048" d="M178 145q0 68 47 116t117 48t117 -48t47 -116t-47 -115.5t-117 -47.5t-117 48t-47 115zM860 145q0 68 47 116t117 48t117 -48t47 -116t-47 -115.5t-117 -47.5t-117 48t-47 115zM1542 145q0 68 47 116t117 48t117 -48t47 -116t-47 -115.5t-117 -47.5t-117 48t-47 115z" />
<glyph unicode="&#x202f;" horiz-adv-x="406" />
<glyph unicode="&#x2039;" horiz-adv-x="681" d="M39 483q0 18 30.5 37t91 54.5t148.5 96t203 160.5q47 41 57 41t24.5 -13t14.5 -23q0 -18 -39 -70.5t-90 -109t-99.5 -107t-68.5 -66.5q20 -16 68.5 -66t99.5 -106.5t90 -108.5t39 -71q0 -10 -14 -23.5t-25 -13.5q-10 0 -57 41q-115 100 -203 160.5t-148.5 96.5t-91 54.5 t-30.5 36.5z" />
<glyph unicode="&#x203a;" horiz-adv-x="681" d="M74 131q0 12 18.5 41t47 63.5t63.5 74.5t67.5 75t59.5 61.5t41 36.5q-12 10 -40 37t-60.5 61.5t-67.5 74.5t-63.5 75t-47 63.5t-18.5 41.5q0 10 14 23t25 13q10 0 57 -41q115 -100 203 -160.5t148.5 -96t91 -54t30.5 -37.5q0 -18 -30.5 -36.5t-91 -54.5t-148.5 -96 t-203 -161q-47 -41 -57 -41t-24.5 13.5t-14.5 23.5z" />
<glyph unicode="&#x205f;" horiz-adv-x="508" />
<glyph unicode="&#x20ac;" d="M41 522l20 92h80q-6 61 -6 131v7h-94l20 92h78q10 98 43 206.5t98.5 199.5t168 150.5t251.5 59.5q68 0 120 -11t90 -24.5t60.5 -24.5t33.5 -11q16 0 27 19t22 19q10 0 15 -12t7 -47q8 -84 17.5 -165t9.5 -130q0 -8 -20.5 -14t-28.5 -6q-18 0 -25 12q-35 147 -96.5 230 t-161.5 83q-72 0 -128 -44t-96 -118.5t-65.5 -171t-36.5 -200.5h500l-20 -92h-486v-58v-40.5t2 -39.5h451l-21 -92h-421q12 -104 40.5 -190t72.5 -149.5t104.5 -98.5t136.5 -35q70 0 136.5 30t123.5 71q4 4 10 4q10 0 22.5 -11.5t12.5 -27.5q0 -10 -6 -17 q-68 -66 -166 -97.5t-203 -31.5q-244 0 -390 146.5t-189 406.5h-113z" />
<glyph unicode="&#x2122;" horiz-adv-x="2048" d="M61 1235v217h789v-217h-72q0 84 -34.5 112.5t-116.5 28.5h-90v-585q2 -39 5 -60.5t15 -31t36.5 -10.5t72.5 -1v-63h-433v63q45 0 71 1t38 10.5t15 31t5 60.5v585h-77q-82 0 -117 -28.5t-35 -112.5h-72zM915 625v63q39 0 70 8.5t35 55.5v569q0 39 -5 56.5t-50 17.5h-31v57 h301l227 -526l219 526h306v-57h-39q-47 0 -55.5 -16.5t-8.5 -57.5v-530q0 -35 2 -53.5t12.5 -29t31 -14.5t57.5 -6v-63h-381v63q35 0 55 3t31.5 13.5t14.5 30t3 53.5v537h-4l-283 -700h-24l-299 700h-4v-573q0 -23 8 -36.5t22.5 -19.5t33 -7t36.5 -1v-63h-281z" />
<glyph unicode="&#x25fc;" horiz-adv-x="911" d="M0 0v911h911v-911h-911z" />
<glyph unicode="&#xfb01;" horiz-adv-x="1251" d="M20 836q0 8 18.5 14t44.5 12t52.5 15.5t40.5 27.5q10 12 23 119q14 125 68.5 220t136 159.5t184 96.5t213.5 32q82 0 134 -14.5t83 -36t42 -48t11 -51.5q0 -53 -39 -84.5t-90 -31.5q-57 0 -95 25.5t-70 57t-61.5 57.5t-70.5 26q-55 0 -90 -31t-56.5 -81t-31.5 -111.5 t-13 -121t-2 -112.5t1 -84h366q53 0 95 13.5t73 28.5t50.5 28.5t25.5 13.5q10 0 17 -9.5t7 -19.5q0 -12 -5 -90t-5 -225v-479q0 -29 8.5 -45.5t18.5 -23.5t19.5 -9t13.5 -2q57 -4 71.5 -9.5t14.5 -17.5q0 -29 -2 -38t-17 -9q-61 0 -125.5 2t-132.5 2q-66 0 -130 -2t-126 -2 q-14 0 -16 9t-2 38q0 12 14 17.5t72 9.5q4 0 13 2t19.5 9t18.5 23.5t8 45.5v475q0 51 -2 82.5t-8 47t-17.5 20.5t-31.5 5h-305v-630q0 -29 8 -45.5t18 -23.5t19.5 -9t13.5 -2q57 -4 71.5 -9.5t14.5 -17.5q0 -29 -2 -38t-16 -9q-61 0 -126 2t-132 2q-66 0 -130.5 -2 t-125.5 -2q-14 0 -16.5 9t-2.5 38q0 12 14.5 17.5t71.5 9.5q4 0 13.5 2t19.5 9t18.5 23.5t8.5 45.5v481q0 88 -4.5 118.5t-30.5 30.5h-97q-29 0 -35 10.5t-6 43.5z" />
<glyph unicode="&#xfb02;" horiz-adv-x="1251" d="M20 836q0 8 18.5 14t44.5 12t52.5 15.5t40.5 27.5q10 12 23 119q18 158 82.5 257t146.5 154.5t163 76t130 20.5q47 0 97 -15.5t81 -43.5q12 4 38 17t53.5 27.5t52 25.5t32.5 11q4 0 12.5 -5t8.5 -15q0 -37 -3 -66.5t-6.5 -71.5t-6.5 -107.5t-3 -178.5v-958 q0 -29 8.5 -45.5t18.5 -23.5t19.5 -9t13.5 -2q57 -4 71.5 -9.5t14.5 -17.5q0 -29 -2 -38t-17 -9q-61 0 -125.5 2t-132.5 2q-66 0 -130 -2t-126 -2q-14 0 -16 9t-2 38q0 12 14 17.5t72 9.5q4 0 13 2t19.5 9t18.5 23.5t8 45.5v630h-364v-630q0 -29 8 -45.5t18 -23.5t19.5 -9 t13.5 -2q57 -4 71.5 -9.5t14.5 -17.5q0 -29 -2 -38t-16 -9q-61 0 -126 2t-132 2q-66 0 -130.5 -2t-125.5 -2q-14 0 -16.5 9t-2.5 38q0 12 14.5 17.5t71.5 9.5q4 0 13.5 2t19.5 9t18.5 23.5t8.5 45.5v481q0 88 -4.5 118.5t-30.5 30.5h-97q-29 0 -35 10.5t-6 43.5zM453 891 h364v416q-18 -14 -35 -15q-45 0 -74.5 19.5t-53 43t-45 43t-48.5 19.5q-57 0 -82.5 -75.5t-25.5 -190.5v-260z" />
</font>
</defs>
</svg>
