<?xml version="1.0" encoding="utf-8"?>
<!-- Generator: Adobe Illustrator 16.0.0, SVG Export Plug-In . SVG Version: 6.00 Build 0)  -->
<!DOCTYPE svg PUBLIC "-//W3C//DTD SVG 1.1//EN" "http://www.w3.org/Graphics/SVG/1.1/DTD/svg11.dtd">
<svg version="1.1" id="Layer_1" xmlns="http://www.w3.org/2000/svg" xmlns:xlink="http://www.w3.org/1999/xlink" x="0px" y="0px"
	 width="142.155px" height="112.074px" viewBox="0 0 142.155 112.074" enable-background="new 0 0 142.155 112.074"
	 xml:space="preserve">
<g>
	<path fill="#FFFFFF" d="M63.363,47.113c0.503,0.111,1.005,0.221,1.509,0.332c0,4.28-0.184,8.569,0.047,12.838
		c0.279,5.171,0.383,10.444,1.532,15.451c1.175,5.117,6.909,7.553,11.261,4.975c6.18-3.662,12.307-7.703,15.07-14.844
		c4.83-12.471,13.74-21.616,23.907-29.735c5.35-4.273,11.019-8.15,16.333-12.465c5.091-4.133,7.707-9.776,7.711-16.275
		c0.002-2.076-1.688-4.151-2.604-6.227c-1.814,1.318-4.691,2.283-5.265,4.013c-3.235,9.763-11.158,14.892-18.792,20.524
		c-13.188,9.73-24.02,21.329-30.201,36.994c-1.562,3.961-5.898,6.828-9.891,11.225c-0.857-3.727-1.449-5.571-1.688-7.461
		c-0.696-5.501-0.947-11.077-2.002-16.501c-0.46-2.355-2.463-4.41-3.678-6.456c-1.213-2.616-1.73-6.299-3.694-7.396
		c-3.447-1.925-5.983,1.111-7.702,4.07c-0.977,1.684-1.766,3.501-2.437,5.333c-1.044,2.852-1.916,5.769-2.891,8.749
		c-5.312-3.691-7.425-3.897-11.059,0.934c-5.372,7.141-9.489,15.242-15.025,22.233c-6.724,8.491-10.005,20.344-22.134,23.854
		c-0.088,0.025-0.107,0.293-0.159,0.447c3.481,4.699,9.045,4.812,13.961-0.422c6.125-6.521,12.001-13.318,17.491-20.38
		c2.438-3.136,4.941-4.701,8.683-4.538c-0.582,9.318-1.125,18.404-1.727,27.486c-0.251,3.792,1.109,6.742,5.044,7.058
		c3.945,0.317,5.838-2.404,6.065-6.177c0.668-11.07,1.252-22.145,1.965-33.212c0.078-1.196,0.678-2.405,1.222-3.519
		c1.846-3.77,3.925-7.432,5.627-11.264C61.232,53.638,62.206,50.335,63.363,47.113z"/>
	<path fill-rule="evenodd" clip-rule="evenodd" d="M63.363,47.113c-0.117,0.326-2.131,6.525-3.517,9.645
		c-1.703,3.832-3.781,7.494-5.627,11.264c-0.544,1.113-1.145,2.322-1.222,3.519c-0.713,11.067-1.297,22.142-1.965,33.212
		c-0.228,3.772-2.121,6.494-6.065,6.177c-3.935-0.315-5.295-3.266-5.044-7.058c0.602-9.082,1.145-18.168,1.727-27.486
		c-3.742-0.163-6.245,1.402-8.683,4.538c-5.489,7.062-11.366,13.858-17.491,20.38c-4.916,5.234-10.717,5.094-13.961,0.422
		c-0.248-0.357,0.071-0.422,0.159-0.447c12.129-3.511,15.41-15.363,22.134-23.854c5.537-6.991,9.653-15.093,15.025-22.233
		c3.634-4.831,5.746-4.625,11.059-0.934c0.975-2.98,1.847-5.897,2.891-8.749c0.671-1.832,1.459-3.649,2.437-5.333
		c1.719-2.959,4.255-5.996,7.702-4.07c1.963,1.097,2.481,4.78,3.694,7.396c1.215,2.046,3.218,4.101,3.678,6.456
		c1.055,5.424,1.306,11,2.002,16.501c0.238,1.89,0.83,3.734,1.688,7.461c3.992-4.396,8.328-7.264,9.891-11.225
		c6.182-15.666,17.014-27.264,30.201-36.994c7.634-5.633,15.557-10.762,18.792-20.524c0.573-1.729,4.954-4.417,5.265-4.013
		c0.148,0.194,2.605,4.151,2.604,6.227c-0.004,6.5-2.62,12.142-7.711,16.275c-5.314,4.315-10.983,8.192-16.333,12.465
		c-10.167,8.12-19.077,17.265-23.907,29.735c-2.764,7.141-8.891,11.182-15.07,14.844c-4.352,2.578-10.086,0.143-11.261-4.975
		c-1.149-5.007-1.253-10.28-1.532-15.451c-0.23-4.27,0.066-12.302-0.047-12.838C64.758,46.909,63.479,46.787,63.363,47.113z"/>
</g>
</svg>
